<svg width="20" height="21" viewBox="0 0 20 21" fill="none" xmlns="http://www.w3.org/2000/svg">
<path d="M10 0.5C8.02219 0.5 6.08879 1.08649 4.4443 2.1853C2.79981 3.28412 1.51809 4.8459 0.761209 6.67316C0.00433283 8.50043 -0.1937 10.5111 0.192152 12.4509C0.578004 14.3907 1.53041 16.1725 2.92894 17.5711C4.32746 18.9696 6.10929 19.922 8.0491 20.3078C9.98891 20.6937 11.9996 20.4957 13.8268 19.7388C15.6541 18.9819 17.2159 17.7002 18.3147 16.0557C19.4135 14.4112 20 12.4778 20 10.5C20 7.84783 18.9464 5.30429 17.0711 3.42893C15.1957 1.55357 12.6522 0.5 10 0.5ZM4.28572 11.9286C4.00317 11.9286 3.72697 11.8448 3.49205 11.6878C3.25712 11.5308 3.07402 11.3077 2.96589 11.0467C2.85776 10.7857 2.82947 10.4984 2.8846 10.2213C2.93972 9.94418 3.07578 9.68964 3.27557 9.48985C3.47535 9.29006 3.7299 9.154 4.00702 9.09888C4.28413 9.04375 4.57137 9.07204 4.83241 9.18017C5.09345 9.28829 5.31656 9.4714 5.47353 9.70633C5.6305 9.94125 5.71429 10.2175 5.71429 10.5C5.71429 10.8789 5.56378 11.2422 5.29587 11.5101C5.02796 11.7781 4.6646 11.9286 4.28572 11.9286ZM10 11.9286C9.71746 11.9286 9.44126 11.8448 9.20633 11.6878C8.9714 11.5308 8.7883 11.3077 8.68017 11.0467C8.57205 10.7857 8.54376 10.4984 8.59888 10.2213C8.654 9.94418 8.79006 9.68964 8.98985 9.48985C9.18964 9.29006 9.44419 9.154 9.7213 9.09888C9.99842 9.04375 10.2857 9.07204 10.5467 9.18017C10.8077 9.28829 11.0308 9.4714 11.1878 9.70633C11.3448 9.94125 11.4286 10.2175 11.4286 10.5C11.4286 10.8789 11.2781 11.2422 11.0102 11.5101C10.7422 11.7781 10.3789 11.9286 10 11.9286ZM15.7143 11.9286C15.4317 11.9286 15.1555 11.8448 14.9206 11.6878C14.6857 11.5308 14.5026 11.3077 14.3945 11.0467C14.2863 10.7857 14.258 10.4984 14.3132 10.2213C14.3683 9.94418 14.5043 9.68964 14.7041 9.48985C14.9039 9.29006 15.1585 9.154 15.4356 9.09888C15.7127 9.04375 15.9999 9.07204 16.261 9.18017C16.522 9.28829 16.7451 9.4714 16.9021 9.70633C17.0591 9.94125 17.1429 10.2175 17.1429 10.5C17.1429 10.8789 16.9923 11.2422 16.7244 11.5101C16.4565 11.7781 16.0932 11.9286 15.7143 11.9286Z" fill="#E19943"/>
<path d="M5.71408 10.4999C5.71408 10.7824 5.63029 11.0586 5.47332 11.2935C5.31635 11.5285 5.09323 11.7116 4.8322 11.8197C4.57116 11.9278 4.28392 11.9561 4.00681 11.901C3.72969 11.8459 3.47514 11.7098 3.27535 11.51C3.07556 11.3102 2.93951 11.0557 2.88438 10.7786C2.82926 10.5014 2.85755 10.2142 2.96568 9.95317C3.0738 9.69213 3.25691 9.46902 3.49183 9.31205C3.72676 9.15507 4.00296 9.07129 4.28551 9.07129C4.66439 9.07129 5.02775 9.2218 5.29566 9.48971C5.56357 9.75762 5.71408 10.121 5.71408 10.4999ZM9.99979 9.07129C9.71725 9.07129 9.44105 9.15507 9.20612 9.31205C8.97119 9.46902 8.78809 9.69213 8.67996 9.95317C8.57184 10.2142 8.54355 10.5014 8.59867 10.7786C8.65379 11.0557 8.78985 11.3102 8.98964 11.51C9.18943 11.7098 9.44397 11.8459 9.72109 11.901C9.99821 11.9561 10.2854 11.9278 10.5465 11.8197C10.8075 11.7116 11.0306 11.5285 11.1876 11.2935C11.3446 11.0586 11.4284 10.7824 11.4284 10.4999C11.4284 10.121 11.2779 9.75762 11.0099 9.48971C10.742 9.2218 10.3787 9.07129 9.99979 9.07129ZM15.7141 9.07129C15.4315 9.07129 15.1553 9.15507 14.9204 9.31205C14.6855 9.46902 14.5024 9.69213 14.3942 9.95317C14.2861 10.2142 14.2578 10.5014 14.313 10.7786C14.3681 11.0557 14.5041 11.3102 14.7039 11.51C14.9037 11.7098 15.1583 11.8459 15.4354 11.901C15.7125 11.9561 15.9997 11.9278 16.2608 11.8197C16.5218 11.7116 16.7449 11.5285 16.9019 11.2935C17.0589 11.0586 17.1426 10.7824 17.1426 10.4999C17.1426 10.121 16.9921 9.75762 16.7242 9.48971C16.4563 9.2218 16.093 9.07129 15.7141 9.07129Z" fill="white"/>
</svg>
