<svg width="24" height="24" viewBox="0 0 24 24" fill="none" xmlns="http://www.w3.org/2000/svg">
<path d="M8.84181 2.78857C4.11627 2.78857 0.5 5.99516 0.5 9.49068C0.5 12.9862 3.62225 15.0116 3.62225 15.0116L3.11481 16.935C3.04773 17.1885 3.31942 17.3979 3.5475 17.2685L5.82833 15.9762C6.83698 16.2972 8.97742 16.3998 9.18585 16.4094C9.03635 15.8909 8.96256 15.3801 8.96256 14.9033C8.96256 12.2056 11.3114 8.40585 16.5329 8.40585C16.6518 8.40585 16.7706 8.40872 16.8894 8.41351C16.1946 5.0881 12.7417 2.78857 8.84181 2.78857Z" fill="#242C58"/>
<path opacity="0.48" d="M23.4999 14.4811C23.4999 11.4193 19.9075 9.17725 16.5323 9.17725C11.7588 9.17725 9.7334 12.6249 9.7334 14.9033C9.7334 17.1865 11.7584 20.6293 16.5323 20.6293C17.5884 20.6293 18.5175 20.4779 19.3254 20.2096L21.1208 21.349C21.2626 21.4391 21.4418 21.3121 21.404 21.1483L20.9967 19.3801C22.6929 18.1985 23.4999 16.336 23.4999 14.4811Z" fill="#242C58"/>
</svg>
