<svg width="10" height="8" viewBox="0 0 10 8" fill="none" xmlns="http://www.w3.org/2000/svg">
<path d="M2.87524 5.75875L0.995658 3.87917C0.894379 3.77789 0.757014 3.72099 0.613783 3.72099C0.470552 3.72099 0.333188 3.77789 0.231908 3.87917C0.130629 3.98045 0.0737305 4.11781 0.0737305 4.26104C0.0737305 4.33196 0.0876995 4.40219 0.11484 4.46771C0.14198 4.53323 0.18176 4.59277 0.231908 4.64292L2.49608 6.90708C2.70733 7.11833 3.04858 7.11833 3.25983 6.90708L8.99066 1.17625C9.09194 1.07497 9.14884 0.937606 9.14884 0.794375C9.14884 0.651144 9.09194 0.51378 8.99066 0.4125C8.88938 0.31122 8.75201 0.254322 8.60878 0.254322C8.46555 0.254322 8.32819 0.31122 8.22691 0.4125L2.87524 5.75875Z" fill="white"/>
</svg>
