<svg width="28" height="27" viewBox="0 0 28 27" fill="none" xmlns="http://www.w3.org/2000/svg">
<path opacity="0.12" fill-rule="evenodd" clip-rule="evenodd" d="M10.625 11.25C13.1103 11.25 15.125 9.23528 15.125 6.75C15.125 4.26472 13.1103 2.25 10.625 2.25C8.13972 2.25 6.125 4.26472 6.125 6.75C6.125 9.23528 8.13972 11.25 10.625 11.25ZM8.15 15.75C5.16766 15.75 2.75 18.1677 2.75 21.15C2.75 23.1382 4.36178 24.75 6.35 24.75H14.9C16.8882 24.75 18.5 23.1382 18.5 21.15C18.5 18.1677 16.0823 15.75 13.1 15.75H8.15Z" fill="url(#paint0_linear_492_2106)"/>
<path fill-rule="evenodd" clip-rule="evenodd" d="M10.625 3.09375C8.60571 3.09375 6.96875 4.73071 6.96875 6.75C6.96875 8.76929 8.60571 10.4062 10.625 10.4062C12.6443 10.4062 14.2812 8.76929 14.2812 6.75C14.2812 4.73071 12.6443 3.09375 10.625 3.09375ZM5.28125 6.75C5.28125 3.79873 7.67373 1.40625 10.625 1.40625C13.5763 1.40625 15.9688 3.79873 15.9688 6.75C15.9688 9.70127 13.5763 12.0938 10.625 12.0938C7.67373 12.0938 5.28125 9.70127 5.28125 6.75ZM1.90625 21.15C1.90625 17.7017 4.70167 14.9062 8.15 14.9062H13.1C16.5483 14.9062 19.3438 17.7017 19.3438 21.15C19.3438 23.6042 17.3542 25.5938 14.9 25.5938H6.35C3.89579 25.5938 1.90625 23.6042 1.90625 21.15ZM8.15 16.5938C5.63365 16.5938 3.59375 18.6337 3.59375 21.15C3.59375 22.6722 4.82777 23.9062 6.35 23.9062H14.9C16.4222 23.9062 17.6562 22.6722 17.6562 21.15C17.6562 18.6337 15.6163 16.5938 13.1 16.5938H8.15ZM23.8438 7.875C23.8438 7.40901 23.466 7.03125 23 7.03125C22.534 7.03125 22.1562 7.40901 22.1562 7.875V10.4062H19.625C19.159 10.4062 18.7812 10.784 18.7812 11.25C18.7812 11.716 19.159 12.0938 19.625 12.0938H22.1562V14.625C22.1562 15.091 22.534 15.4688 23 15.4688C23.466 15.4688 23.8438 15.091 23.8438 14.625V12.0938H26.375C26.841 12.0938 27.2188 11.716 27.2188 11.25C27.2188 10.784 26.841 10.4062 26.375 10.4062H23.8438V7.875Z" fill="url(#paint1_linear_492_2106)"/>
<defs>
<linearGradient id="paint0_linear_492_2106" x1="6.79204" y1="-12.0469" x2="42.7398" y2="12.2222" gradientUnits="userSpaceOnUse">
<stop offset="0.296875" stop-color="#009FE3"/>
<stop offset="1" stop-color="#A7BE18"/>
</linearGradient>
<linearGradient id="paint1_linear_492_2106" x1="8.40238" y1="-13.9629" x2="50.0652" y2="28.088" gradientUnits="userSpaceOnUse">
<stop offset="0.296875" stop-color="#009FE3"/>
<stop offset="1" stop-color="#A7BE18"/>
</linearGradient>
</defs>
</svg>
