<svg width="16" height="16" viewBox="0 0 16 16" fill="none" xmlns="http://www.w3.org/2000/svg">
<circle cx="8" cy="8" r="8" fill="#8A909A"/>
<path d="M4.53575 4.53549C4.64828 4.42297 4.80089 4.35975 4.96002 4.35975C5.11915 4.35975 5.27176 4.42297 5.38428 4.53549L8.07129 7.22249L10.7583 4.53549C10.8708 4.42297 11.0234 4.35975 11.1826 4.35975C11.3417 4.35975 11.4943 4.42297 11.6068 4.53549C11.7193 4.64801 11.7826 4.80062 11.7826 4.95975C11.7826 5.11888 11.7193 5.27149 11.6068 5.38402L8.91982 8.07102L11.6068 10.758C11.7193 10.8705 11.7826 11.0232 11.7826 11.1823C11.7826 11.3414 11.7193 11.494 11.6068 11.6066C11.4943 11.7191 11.3417 11.7823 11.1826 11.7823C11.0234 11.7823 10.8708 11.7191 10.7583 11.6066L8.07129 8.91955L5.38428 11.6066C5.27176 11.7191 5.11915 11.7823 4.96002 11.7823C4.80089 11.7823 4.64828 11.7191 4.53575 11.6066C4.42323 11.494 4.36002 11.3414 4.36002 11.1823C4.36002 11.0232 4.42323 10.8706 4.53575 10.758L7.22276 8.07102L4.53575 5.38402C4.42323 5.27149 4.36002 5.11888 4.36002 4.95975C4.36002 4.80062 4.42323 4.64801 4.53575 4.53549Z" fill="#C0C0C1"/>
</svg>
