<svg width="121" height="112" viewBox="0 0 121 112" fill="none" xmlns="http://www.w3.org/2000/svg">
<path d="M51.2833 28.1791V62.1263H51.3138L51.2833 28.1791ZM46.1805 41.2569C46.1805 41.2874 46.1805 41.3485 46.1805 41.3791C46.1805 41.3485 46.1805 41.318 46.1805 41.2874V41.2569ZM46.1805 48.5902C46.1805 48.6208 46.1805 48.6819 46.1805 48.7124C46.1805 48.6819 46.1805 48.6513 46.1805 48.6208V48.5902ZM19.6582 32.1819C19.536 32.1819 19.4138 32.1819 19.2916 32.2124C19.3832 32.1819 19.5055 32.1819 19.6582 32.1819ZM17.8555 41.5319C17.8555 41.5013 17.8555 41.4402 17.8555 41.4096C17.8555 41.4402 17.8555 41.4707 17.8555 41.5013C17.8555 41.5013 17.8555 41.5013 17.8555 41.5319ZM17.8555 48.8041V48.8346C17.8555 48.8041 17.8555 48.743 17.8555 48.7124C17.8555 48.743 17.8555 48.7735 17.8555 48.8041Z" fill="#AB62A4"/>
<path d="M91.5869 18.0652C91.5869 18.218 91.6175 18.3707 91.6786 18.493C91.6175 18.3707 91.6175 18.218 91.5869 18.0652Z" fill="#AB62A4"/>
<path d="M112.914 14.0625C112.762 13.2375 112.028 12.6263 111.173 12.6569H106.62C106.192 11.6486 105.673 10.7013 105.031 9.81523L107.017 6.33189C107.262 5.90412 107.353 5.41523 107.2 4.92634C107.078 4.43745 106.773 4.04023 106.314 3.82634L100.753 0.587448C99.8671 0.0985585 98.7365 0.404113 98.1865 1.25967L96.2004 4.74301C95.1004 4.59023 94.0004 4.59023 92.9004 4.74301L90.8837 1.25967C90.3643 0.404113 89.2643 0.0985585 88.3782 0.587448L82.7559 3.82634C82.3282 4.07078 82.0226 4.468 81.8698 4.92634C81.7476 5.41523 81.8393 5.90412 82.0532 6.33189L84.1004 9.81523C83.4282 10.7013 82.8782 11.6486 82.4504 12.6569H77.9587C77.3476 12.6569 76.7976 12.9319 76.4615 13.4208H12.1726C6.97811 13.4208 2.79199 17.6375 2.79199 22.8013V82.6903C2.79199 87.8847 7.00866 92.0708 12.1726 92.0708H36.4948H85.1698H109.492C114.687 92.0708 118.873 87.8542 118.873 82.6903V22.8319C118.903 18.9513 116.52 15.4986 112.914 14.0625ZM79.8226 16.4152H83.7948C84.6198 16.4152 85.3532 15.8958 85.5976 15.1013C85.7809 14.5208 85.9948 13.9708 86.2698 13.4513C86.6365 12.6569 87.1559 11.9541 87.7671 11.3125C88.3171 10.7013 88.4087 9.81523 88.0115 9.0819L86.2698 6.08745L88.6532 4.74301L90.3948 7.73745C90.7921 8.47078 91.6171 8.8069 92.442 8.62356C93.8782 8.22634 95.3754 8.22634 96.8115 8.62356C97.6059 8.8069 98.4309 8.47078 98.8282 7.73745L100.57 4.74301L102.953 6.08745L101.212 9.0819C100.784 9.78467 100.906 10.7013 101.456 11.3125C102.067 11.9236 102.587 12.6569 102.953 13.4513C103.198 13.9708 103.442 14.5208 103.625 15.1013C103.839 15.8958 104.542 16.4152 105.367 16.4152H109.4V19.1652H105.367C104.542 19.1652 103.839 19.6847 103.625 20.4791C103.167 21.8847 102.434 23.168 101.456 24.2375C100.875 24.818 100.784 25.7347 101.212 26.4069L102.953 29.4625L100.57 30.8069L98.8282 27.8125C98.4004 27.1097 97.6059 26.743 96.8115 26.8958C95.3754 27.293 93.8782 27.293 92.442 26.8958C91.6476 26.7125 90.7921 27.0791 90.3948 27.8125L88.6532 30.8069L86.2698 29.4625L88.0115 26.4069C88.4087 25.7041 88.3171 24.818 87.7671 24.2375C87.4004 23.8402 87.0643 23.443 86.7587 22.9847C86.2698 22.1902 85.8726 21.3652 85.5976 20.4791C85.5059 20.143 85.2921 19.8375 85.0171 19.593C84.6809 19.318 84.2532 19.1652 83.7948 19.1652H79.8226V16.4152ZM115.175 82.7514C115.145 85.8681 112.609 88.3736 109.523 88.3736H12.1726C9.05588 88.3736 6.55033 85.8681 6.51977 82.7514V78.6569H115.175V82.7514ZM115.175 74.868H6.51977V22.8319C6.51977 19.7152 9.05588 17.1791 12.1726 17.1791H76.0948V20.9986C76.0948 22.0069 76.9198 22.8319 77.9587 22.8319H81.4115L65.8893 37.8041H55.042V28.1486C55.042 26.2236 53.4837 24.6347 51.5281 24.6347H13.7614C11.8364 24.6347 10.2476 26.193 10.2476 28.1486V62.3708C10.2476 64.2958 11.8059 65.8847 13.7614 65.8847H51.5281C53.4531 65.8847 55.042 64.3264 55.042 62.3708V54.3347H66.0115L76.3698 67.6569C76.3698 67.6875 76.4309 67.6875 76.4615 67.718C76.6143 67.8708 76.767 67.993 76.9504 68.0847C77.0115 68.1153 77.0726 68.1764 77.1337 68.2069C77.3782 68.3292 77.6532 68.3903 77.8976 68.3903H110.959C111.998 68.3292 112.792 67.443 112.762 66.4042C112.7 65.4264 111.937 64.6625 110.959 64.6014H109.248V45.2597C109.309 44.2208 108.514 43.3347 107.445 43.2736C106.406 43.2125 105.52 44.0069 105.459 45.0764C105.459 45.1375 105.459 45.1986 105.459 45.2597V64.6014H101.578V50.0875C101.639 49.0486 100.845 48.1625 99.7754 48.1014C98.7365 48.0403 97.8504 48.8347 97.7893 49.9041C97.7893 49.9653 97.7893 50.0264 97.7893 50.0875V64.6014H94.2143V54.9153C94.2754 53.8764 93.4809 52.9903 92.4115 52.9291C91.3726 52.868 90.4865 53.6625 90.4254 54.7319C90.4254 54.793 90.4254 54.8541 90.4254 54.9153V64.6014H86.942V59.7736C87.0032 58.7347 86.1782 57.8486 85.1393 57.7875C84.1004 57.7264 83.2143 58.5208 83.1532 59.5903C83.1532 59.6514 83.1532 59.7125 83.1532 59.7736V64.6014H78.7226L68.3643 51.2791C67.9976 50.8208 67.4476 50.5458 66.867 50.5458H55.042V41.5014H66.0115C66.7143 41.5014 67.3559 41.2569 67.8754 40.7986L83.9782 25.4902C84.0393 25.5513 84.0698 25.643 84.1309 25.6736L82.0837 29.1569C81.8393 29.6152 81.7782 30.1041 81.9004 30.593C82.0532 31.0514 82.3587 31.4486 82.7865 31.693L88.4087 34.9319C89.2948 35.4208 90.4254 35.1152 90.9143 34.1986L92.9309 30.7764C94.0309 30.9291 95.1309 30.9291 96.2309 30.7764L98.2171 34.1986C98.5532 34.7791 99.1948 35.1458 99.8671 35.1764C100.203 35.1764 100.509 35.0847 100.784 34.9319L106.345 31.693C106.773 31.4486 107.078 31.0514 107.231 30.593C107.353 30.1041 107.292 29.5847 107.048 29.1569L105.062 25.6736C105.703 24.7875 106.223 23.8097 106.65 22.8013H111.203C112.212 22.8013 113.037 21.9763 113.037 20.968V18.4013C114.412 19.4402 115.237 21.0597 115.206 22.8013V74.868H115.175ZM51.2837 62.1264L14.067 62.4014L13.7614 28.4541L51.2531 28.1791V62.1264H51.2837Z" fill="#AB62A4"/>
<path d="M44.7748 39.5763C44.8359 39.5763 44.8665 39.6069 44.9276 39.6374C44.9887 39.668 45.0498 39.668 45.0804 39.6986C45.1415 39.7291 45.172 39.7597 45.2331 39.7902C45.2942 39.8208 45.3248 39.8513 45.3859 39.8819C45.447 39.943 45.5081 39.9736 45.5692 40.0347C45.5998 40.0652 45.6304 40.0958 45.6609 40.1263C45.6609 40.1263 45.6609 40.1263 45.6915 40.1569C45.722 40.1874 45.7526 40.218 45.7831 40.2486C45.7831 40.2486 45.7831 40.2791 45.8137 40.2791C45.8442 40.3097 45.8748 40.3708 45.9054 40.4013C45.9359 40.4319 45.9665 40.493 45.9665 40.5236C45.9665 40.5541 45.997 40.5847 45.997 40.6152C45.997 40.6458 46.0276 40.6763 46.0276 40.6763C46.0581 40.7069 46.0581 40.7374 46.0581 40.7986V40.8291C46.0581 40.8597 46.0887 40.9208 46.0887 40.9513C46.0887 40.9819 46.0887 41.0124 46.1192 41.043C46.1192 41.0736 46.1192 41.1041 46.1192 41.1347C46.1192 41.1652 46.1192 41.1958 46.1192 41.2263C46.1192 41.2569 46.1192 41.2874 46.1192 41.3486V41.3791C46.1192 41.4097 46.1192 41.4402 46.1192 41.4708C46.1192 41.5013 46.1192 41.5319 46.1192 41.5624V41.593C46.1192 41.6236 46.1192 41.6541 46.1192 41.7152C46.1192 41.7458 46.1192 41.7763 46.1192 41.8069C46.1192 41.8374 46.1192 41.868 46.1192 41.8986C46.1192 41.9291 46.1192 41.9597 46.0887 41.9902C46.0887 42.0208 46.0581 42.0819 46.0581 42.1124C46.0581 42.1124 46.0581 42.1124 46.0581 42.143C46.0581 42.1736 46.0276 42.2347 45.997 42.2652C45.997 42.2652 45.997 42.2958 45.9665 42.2958C45.9665 42.3263 45.9359 42.3569 45.9054 42.3875C45.8748 42.418 45.8748 42.4791 45.8442 42.5097C45.8137 42.5402 45.7831 42.6013 45.7526 42.6319C45.722 42.6624 45.6915 42.693 45.6915 42.7236C45.6609 42.7541 45.6609 42.7847 45.6304 42.8152C45.5387 42.9069 45.4776 42.968 45.3859 43.0291C45.3554 43.0597 45.2942 43.0902 45.2331 43.1208C45.172 43.1513 45.1415 43.1819 45.0804 43.2125C45.0498 43.243 44.9887 43.243 44.9581 43.2736C44.7748 43.3347 44.5915 43.3958 44.3776 43.3958H19.6276C19.4442 43.3958 19.2609 43.3652 19.1081 43.3041C19.0776 43.3041 19.0165 43.2736 18.9859 43.243C18.7415 43.1513 18.5581 42.9986 18.3748 42.8152C18.3442 42.7847 18.3137 42.7541 18.2831 42.693C18.2526 42.6624 18.222 42.6319 18.1915 42.6013C18.1915 42.5708 18.1609 42.5708 18.1609 42.5402C18.1303 42.5097 18.1303 42.4791 18.0998 42.4486L18.0692 42.418C18.0387 42.3874 18.0387 42.3569 18.0081 42.3263C18.0081 42.3263 18.0081 42.2958 17.9776 42.2958C17.947 42.2652 17.947 42.2041 17.9164 42.1736C17.9164 42.1736 17.9164 42.1736 17.9164 42.143C17.9164 42.1124 17.8859 42.0513 17.8859 42.0208C17.8859 41.9902 17.8859 41.9597 17.8553 41.9291C17.8553 41.8986 17.8553 41.868 17.8553 41.8374C17.8553 41.8069 17.8553 41.7763 17.8553 41.7458C17.8553 41.7152 17.8553 41.6847 17.8553 41.6236V41.593C17.8553 41.5624 17.8553 41.5319 17.8553 41.5013C17.8553 41.4708 17.8553 41.4402 17.8553 41.4097V41.3791C17.8553 41.3486 17.8553 41.318 17.8553 41.2569C17.8553 41.2263 17.8553 41.1958 17.8553 41.1652C17.8553 41.1347 17.8553 41.1041 17.8553 41.0736C17.8553 41.043 17.8553 41.0124 17.8859 40.9819C17.8859 40.9513 17.9164 40.8902 17.9164 40.8597V40.8291C17.9164 40.7986 17.947 40.768 17.947 40.7069C17.947 40.6763 17.9776 40.6458 17.9776 40.6458C17.9776 40.6152 18.0081 40.5847 18.0387 40.5541C18.0387 40.5541 18.0387 40.5236 18.0692 40.5236C18.0998 40.493 18.0998 40.4624 18.1303 40.4319C18.1303 40.4013 18.1609 40.4013 18.1609 40.3708C18.1915 40.3402 18.222 40.3097 18.222 40.2791C18.2526 40.2486 18.2831 40.218 18.3137 40.1874C18.3442 40.1569 18.3748 40.1263 18.4053 40.0958C18.5887 39.9124 18.8026 39.7902 19.047 39.6986C19.0776 39.6986 19.1387 39.668 19.1692 39.668C19.2915 39.6374 19.4442 39.6069 19.597 39.6069H44.347C44.5304 39.5152 44.6526 39.5152 44.7748 39.5763ZM46.1804 48.7125C46.1804 48.743 46.1804 48.7736 46.1804 48.8041V48.8347C46.1804 48.8652 46.1804 48.8958 46.1804 48.9263C46.1804 48.9569 46.1804 48.9875 46.1804 49.018C46.1804 49.0486 46.1804 49.0791 46.1804 49.1097C46.1804 49.1402 46.1804 49.1708 46.1498 49.1708C46.1498 49.2319 46.1192 49.2625 46.1192 49.3236C46.1192 49.3541 46.0887 49.4152 46.0581 49.4458C46.0581 49.4763 46.0276 49.4763 46.0276 49.5069C46.0276 49.5375 45.997 49.568 45.997 49.5986C45.9665 49.6291 45.9359 49.6902 45.9054 49.7208C45.8748 49.7513 45.8442 49.7819 45.8137 49.843C45.7831 49.8736 45.7526 49.9041 45.722 49.9347C45.6915 49.9652 45.6609 49.9958 45.6304 50.0263C45.6304 50.0263 45.6304 50.0263 45.5998 50.0569C45.5692 50.0875 45.5387 50.118 45.4776 50.1486C45.3554 50.2402 45.2026 50.3319 45.0804 50.4236C45.0498 50.4541 44.9887 50.4541 44.9581 50.4847C44.7748 50.5458 44.5915 50.6069 44.3776 50.6069H19.6276C19.4442 50.6069 19.2609 50.5763 19.1081 50.5152C19.0776 50.5152 19.0165 50.4847 18.9859 50.4541C18.9248 50.4236 18.8637 50.393 18.8026 50.3625C18.772 50.3319 18.7415 50.3319 18.6803 50.3013C18.6192 50.2708 18.5581 50.2097 18.497 50.1791C18.4665 50.1486 18.4053 50.118 18.3748 50.0875C18.3748 50.0875 18.3748 50.0875 18.3442 50.0569C18.3137 50.0263 18.2831 49.9652 18.222 49.9347C18.1914 49.9041 18.1609 49.843 18.1303 49.8125C18.1303 49.8125 18.1303 49.8125 18.0998 49.7819C18.0692 49.7513 18.0387 49.7208 18.0387 49.6597C18.0387 49.6597 18.0387 49.6291 18.0081 49.6291C17.9776 49.5986 17.9776 49.568 17.947 49.5375C17.947 49.5069 17.9164 49.5069 17.9164 49.4763C17.8859 49.4458 17.8859 49.3847 17.8553 49.3541C17.8248 49.3236 17.8248 49.2625 17.8248 49.2013C17.8248 49.1708 17.8248 49.1402 17.7942 49.1402C17.7942 49.1097 17.7942 49.0791 17.7942 49.0486C17.7942 49.018 17.7942 48.9875 17.7942 48.9569C17.7942 48.9263 17.7942 48.8958 17.7942 48.8652V48.8347C17.7942 48.8041 17.7942 48.7736 17.7942 48.743C17.7942 48.7125 17.7942 48.6819 17.7942 48.6513V48.6208C17.7942 48.5902 17.7942 48.5597 17.7942 48.4986C17.7942 48.468 17.7942 48.4375 17.7942 48.4069C17.7942 48.3763 17.7942 48.3458 17.7942 48.3152C17.7942 48.2847 17.7942 48.2541 17.8248 48.2236C17.8248 48.193 17.8553 48.1319 17.8553 48.1013C17.8553 48.1013 17.8553 48.1013 17.8553 48.0708C17.8553 48.0402 17.8859 47.9791 17.9164 47.9486C17.9164 47.918 17.947 47.8875 17.947 47.8569C17.947 47.8569 17.947 47.8263 17.9776 47.8263C17.9776 47.7958 18.0081 47.7652 18.0387 47.7347C18.0692 47.7041 18.0998 47.643 18.1303 47.6125C18.1609 47.5819 18.1914 47.5513 18.222 47.5208C18.2526 47.4902 18.2831 47.4291 18.3137 47.3986C18.3748 47.3375 18.4053 47.3069 18.4665 47.2458C18.497 47.2152 18.5276 47.1847 18.5887 47.1541C18.6192 47.1236 18.6803 47.093 18.7414 47.0624C18.8026 47.0319 18.8331 47.0013 18.8942 46.9708C18.9553 46.9402 18.9859 46.9097 19.047 46.9097C19.1998 46.8486 19.3831 46.818 19.5665 46.818H44.3165C44.5609 46.818 44.7748 46.8791 44.9887 46.9708C45.0498 47.0013 45.0804 47.0013 45.1415 47.0319C45.2026 47.0625 45.2637 47.093 45.2942 47.1236C45.3248 47.1541 45.3859 47.1847 45.4165 47.2152C45.4776 47.2458 45.5387 47.3069 45.5692 47.368C45.5998 47.3986 45.6304 47.4291 45.6304 47.4597C45.6609 47.4902 45.6915 47.5208 45.6915 47.5513C45.722 47.5819 45.7526 47.643 45.7831 47.6736C45.8137 47.7041 45.8442 47.7652 45.8748 47.8263C45.8748 47.8263 45.8748 47.8569 45.9054 47.8569C45.9359 47.8875 45.9359 47.918 45.9359 47.9486C45.9665 47.9791 45.9665 48.0402 45.997 48.0708C45.997 48.0708 45.997 48.0708 45.997 48.1013C45.997 48.1319 46.0276 48.193 46.0276 48.2236C46.0276 48.2541 46.0276 48.2847 46.0581 48.3152C46.0581 48.3458 46.0581 48.3763 46.0581 48.4069C46.0581 48.4375 46.0581 48.468 46.0581 48.4986C46.0581 48.5291 46.0581 48.5597 46.0581 48.6208V48.6513C46.1804 48.6513 46.1804 48.6819 46.1804 48.7125ZM19.2609 32.2124C19.3831 32.1819 19.5053 32.1819 19.6276 32.1819H29.8637C29.9859 32.1819 30.0776 32.1819 30.1998 32.2124C30.2303 32.2124 30.2915 32.2124 30.322 32.243C30.3526 32.243 30.3831 32.2736 30.4442 32.2736C30.5053 32.3041 30.5665 32.3041 30.6276 32.3347C30.7498 32.3958 30.8415 32.4263 30.9637 32.518C31.0248 32.5486 31.0553 32.5791 31.1165 32.6402C31.1776 32.6708 31.2081 32.7319 31.2387 32.7624C31.5748 33.0986 31.7887 33.5874 31.7887 34.1069C31.7887 35.1458 30.9331 36.0013 29.8942 36.0013H19.6581C18.6192 36.0013 17.7637 35.1458 17.7637 34.1069C17.7637 33.1597 18.4053 32.3958 19.2609 32.2124ZM45.9054 57.1763C45.8748 57.2375 45.8137 57.268 45.7831 57.3291C45.7831 57.3597 45.7526 57.3597 45.722 57.3902C45.6915 57.4208 45.6304 57.4819 45.5998 57.5125C45.447 57.6347 45.2942 57.7263 45.1415 57.7875C45.0192 57.8486 44.9276 57.8791 44.8054 57.9097C44.6831 57.9402 44.5609 57.9402 44.4387 57.9402H19.6887C19.5665 57.9402 19.4442 57.9402 19.322 57.9097C19.1998 57.8791 19.0776 57.8486 18.9553 57.7875C18.772 57.7263 18.6192 57.6041 18.497 57.5125C18.4359 57.4819 18.4053 57.4208 18.3748 57.3902C18.0387 57.0541 17.8248 56.5652 17.8248 56.0458C17.8248 55.0069 18.6803 54.1513 19.7192 54.1513H44.4692C44.9887 54.1513 45.447 54.3652 45.8137 54.7013C45.9054 54.793 45.9665 54.8847 46.0581 54.9763C46.272 55.2819 46.3942 55.6486 46.3942 56.0152C46.272 56.4736 46.1498 56.8708 45.9054 57.1763Z" fill="#AB62A4"/>
<path d="M12.1422 81.4987C11.1033 81.4987 10.2783 82.3542 10.2783 83.3625C10.2783 84.3709 11.1339 85.2264 12.1422 85.2264C13.1811 85.2264 14.0061 84.4014 14.0061 83.3625C14.0367 82.3237 13.1811 81.4987 12.1422 81.4987Z" fill="#AB62A4"/>
<path d="M19.6588 81.4987C18.6199 81.4987 17.7949 82.3237 17.7949 83.3625C17.7949 84.4014 18.6199 85.2264 19.6588 85.2264C20.6977 85.2264 21.5227 84.4014 21.5227 83.3625C21.5227 82.3237 20.6671 81.4987 19.6588 81.4987Z" fill="#AB62A4"/>
<path d="M27.1451 81.4987C26.1062 81.4987 25.2812 82.3237 25.2812 83.3625C25.2812 84.4014 26.1062 85.2264 27.1451 85.2264C28.184 85.2264 29.009 84.4014 29.009 83.3625C29.009 82.3237 28.184 81.4987 27.1451 81.4987Z" fill="#AB62A4"/>
<path d="M101.212 17.1791C101.12 15.8041 100.54 14.4902 99.6233 13.4513C98.401 11.9236 96.5372 11.068 94.5816 11.068C92.626 11.068 90.7622 11.9236 89.5094 13.4513C88.5622 14.4902 88.0122 15.8041 87.9205 17.1791C87.8899 17.3624 87.8594 17.5763 87.8594 17.7597C87.8899 21.4569 90.8844 24.4208 94.5816 24.4208C97.6066 24.4208 100.143 22.4041 100.968 19.6541C101.059 19.3791 101.12 19.0736 101.151 18.768C101.212 18.4319 101.243 18.0958 101.243 17.7597C101.243 17.5763 101.243 17.3624 101.212 17.1791ZM94.5816 20.7541C93.9094 20.7541 93.2983 20.5402 92.7788 20.143C92.7177 20.0819 92.626 20.0208 92.5649 19.9597C92.5344 19.9291 92.5038 19.8986 92.4733 19.868C92.1677 19.5624 91.9233 19.1652 91.7705 18.7374C91.7399 18.6458 91.7094 18.5847 91.7094 18.493C91.6788 18.3402 91.6483 18.1874 91.6177 18.0652C91.6177 17.9736 91.5872 17.8513 91.5872 17.7597C91.5872 17.5763 91.5872 17.3624 91.6483 17.1791C91.9233 15.7736 93.176 14.7652 94.6122 14.7652C96.0483 14.7652 97.2399 15.7736 97.5149 17.1791C97.5455 17.3624 97.5761 17.5763 97.5761 17.7597C97.5455 19.4097 96.201 20.7541 94.5816 20.7541Z" fill="#AB62A4"/>
<path d="M46.2724 56.0458C46.2724 56.4736 46.1502 56.8403 45.9058 57.1764C45.8752 57.2375 45.8141 57.268 45.7835 57.3291C45.7835 57.3597 45.753 57.3597 45.7224 57.3903C45.6919 57.4208 45.6308 57.4819 45.6002 57.5125C45.4474 57.6347 45.2947 57.7264 45.1419 57.7875C45.0197 57.8486 44.928 57.8791 44.8058 57.9097C44.6835 57.9403 44.5613 57.9403 44.4391 57.9403H19.6891C19.5669 57.9403 19.4446 57.9403 19.3224 57.9097C19.2002 57.8791 19.078 57.8486 18.9558 57.7875C18.7724 57.7264 18.6196 57.6041 18.4974 57.5125C18.4669 57.4819 18.4058 57.4208 18.3752 57.3903C18.0391 57.0541 17.8252 56.5653 17.8252 56.0458C17.8252 55.0069 18.6808 54.1514 19.7196 54.1514H44.4697C44.9891 54.1514 45.4474 54.3653 45.8141 54.7014C45.9058 54.793 45.9669 54.8847 46.0585 54.9764C46.1502 55.3125 46.2724 55.6486 46.2724 56.0458Z" fill="#AB62A4"/>
<path d="M46.1811 48.7124C46.1811 48.7735 46.1811 48.8041 46.1811 48.8347C46.1811 48.8652 46.1811 48.8958 46.1811 48.9263C46.1811 48.9569 46.1811 48.9874 46.1811 49.018C46.1811 49.0485 46.1811 49.0791 46.1811 49.1097C46.1811 49.1402 46.1811 49.1708 46.1505 49.1708C46.1505 49.2319 46.1199 49.2624 46.1199 49.3235C46.1199 49.3541 46.0894 49.4152 46.0588 49.4458C46.0588 49.4763 46.0283 49.4763 46.0283 49.5069C46.0283 49.5374 45.9977 49.568 45.9977 49.5985C45.9672 49.6291 45.9366 49.6902 45.9061 49.7208C45.8755 49.7513 45.8449 49.7819 45.8144 49.843C45.7838 49.8735 45.7533 49.9041 45.7227 49.9347C45.6922 49.9652 45.6616 49.9958 45.6311 50.0263C45.6311 50.0263 45.6311 50.0263 45.6005 50.0569C45.5699 50.0874 45.5394 50.118 45.4783 50.1485C45.3561 50.2402 45.2033 50.3319 45.0811 50.4235C45.0505 50.4541 44.9894 50.4541 44.9588 50.4847C44.7755 50.5458 44.5922 50.6069 44.3783 50.6069H19.6283C19.4449 50.6069 19.2616 50.5763 19.1088 50.5152C19.0783 50.5152 19.0171 50.4847 18.9866 50.4541C18.9255 50.4235 18.8644 50.393 18.8033 50.3624C18.7727 50.3319 18.7421 50.3319 18.681 50.3013C18.6199 50.2708 18.5588 50.2097 18.4977 50.1791C18.4671 50.1486 18.406 50.118 18.3755 50.0874C18.3755 50.0874 18.3755 50.0874 18.3449 50.0569C18.3144 50.0263 18.2838 49.9652 18.2227 49.9347C18.1921 49.9041 18.1616 49.843 18.131 49.8124C18.131 49.8124 18.131 49.8124 18.1005 49.7819C18.0699 49.7513 18.0394 49.7208 18.0394 49.6597C18.0394 49.6597 18.0394 49.6291 18.0088 49.6291C17.9783 49.5985 17.9783 49.568 17.9477 49.5374C17.9477 49.5069 17.9171 49.5069 17.9171 49.4763C17.8866 49.4458 17.8866 49.3847 17.856 49.3541C17.856 49.3235 17.8255 49.2624 17.8255 49.2013C17.8255 49.1708 17.8255 49.1402 17.7949 49.1402C17.7949 49.1097 17.7949 49.0791 17.7949 49.0485C17.7949 49.018 17.7949 48.9874 17.7949 48.9569C17.7949 48.9263 17.7949 48.8958 17.7949 48.8652V48.8347C17.7949 48.8041 17.7949 48.7735 17.7949 48.743C17.7949 48.7124 17.7949 48.6513 17.7949 48.6208C17.7949 48.5902 17.7949 48.5597 17.7949 48.4986C17.7949 48.468 17.7949 48.4374 17.7949 48.4069C17.7949 48.3763 17.7949 48.3458 17.7949 48.3152C17.7949 48.2847 17.7949 48.2541 17.8255 48.2235C17.8255 48.193 17.856 48.1319 17.856 48.1013C17.856 48.1013 17.856 48.1013 17.856 48.0708C17.856 48.0402 17.8866 47.9791 17.9171 47.9485C17.9171 47.918 17.9477 47.8874 17.9477 47.8569C17.9477 47.8569 17.9477 47.8263 17.9783 47.8263C17.9783 47.7958 18.0088 47.7652 18.0394 47.7347C18.0699 47.7041 18.1005 47.643 18.131 47.6124C18.1616 47.5819 18.1921 47.5513 18.2227 47.5208C18.2533 47.4902 18.2838 47.4291 18.3144 47.3985C18.3755 47.3374 18.406 47.3069 18.4671 47.2458C18.4977 47.2152 18.5283 47.1847 18.5894 47.1541C18.6505 47.1235 18.681 47.093 18.7421 47.0624C18.8033 47.0319 18.8338 47.0013 18.8949 46.9708C18.956 46.9402 19.0171 46.9402 19.0477 46.9097C19.2005 46.8485 19.3838 46.818 19.5671 46.818H44.3172C44.5616 46.818 44.7755 46.8791 44.9894 46.9708C45.0199 47.0013 45.0811 47.0013 45.1422 47.0319C45.2033 47.0624 45.2644 47.093 45.2949 47.1235C45.3255 47.1541 45.3866 47.1847 45.4172 47.2152C45.4783 47.2458 45.5394 47.3069 45.5699 47.368C45.6005 47.3985 45.6311 47.4291 45.6311 47.4597C45.6616 47.4902 45.6922 47.5208 45.6922 47.5513C45.7227 47.5819 45.7533 47.643 45.7838 47.6735C45.8144 47.7041 45.8449 47.7652 45.8755 47.8263C45.8755 47.8263 45.8755 47.8569 45.9061 47.8569C45.9061 47.8874 45.9366 47.918 45.9366 47.9485C45.9672 47.9791 45.9672 48.0402 45.9977 48.0708C45.9977 48.0708 45.9977 48.0708 45.9977 48.1013C45.9977 48.1319 46.0283 48.193 46.0283 48.2235C46.0283 48.2541 46.0283 48.2847 46.0588 48.3152C46.0588 48.3458 46.0588 48.3763 46.0588 48.4069C46.0588 48.4374 46.0588 48.468 46.0588 48.4986C46.0588 48.5291 46.0588 48.5597 46.0588 48.6208V48.6513C46.1811 48.6513 46.1811 48.6819 46.1811 48.7124Z" fill="#AB62A4"/>
<path d="M46.1809 41.3792C46.1809 41.4403 46.1809 41.4708 46.1809 41.5014C46.1809 41.5319 46.1809 41.5625 46.1809 41.6236C46.1809 41.6542 46.1809 41.6847 46.1809 41.7153C46.1809 41.7458 46.1809 41.7764 46.1809 41.8069C46.1809 41.8375 46.1809 41.868 46.1503 41.8986C46.1503 41.9292 46.1198 41.9903 46.1198 42.0208C46.1198 42.0208 46.1198 42.0208 46.1198 42.0514C46.1198 42.0819 46.0892 42.143 46.0587 42.1736C46.0587 42.1736 46.0587 42.2042 46.0281 42.2042C46.0281 42.2347 45.9976 42.2653 45.967 42.2958C45.9365 42.3264 45.9365 42.3875 45.9059 42.418C45.8753 42.4486 45.8448 42.5097 45.8142 42.5403C45.7837 42.5708 45.7531 42.6014 45.7531 42.6319C45.7226 42.6625 45.692 42.693 45.692 42.7236C45.6003 42.8153 45.5392 42.8764 45.4476 42.9375C45.417 42.968 45.3559 42.9986 45.2948 43.0292C45.2337 43.0597 45.2031 43.0903 45.142 43.1208C45.1115 43.1514 45.0503 43.1514 45.0198 43.1819C44.8365 43.243 44.6531 43.3042 44.4392 43.3042H19.6892C19.5059 43.3042 19.3225 43.2736 19.1698 43.2125C19.1392 43.2125 19.0781 43.1819 19.0475 43.1514C18.8031 43.0597 18.6198 42.9069 18.4364 42.7236C18.4059 42.693 18.3753 42.6625 18.3448 42.6014C18.3142 42.5708 18.2837 42.5403 18.2531 42.5097C18.2531 42.4792 18.2225 42.4792 18.2225 42.4486C18.192 42.418 18.192 42.3875 18.1614 42.3569L18.1309 42.3264C18.1003 42.2958 18.1003 42.2653 18.0698 42.2347C18.0698 42.2347 18.0698 42.2042 18.0392 42.2042C18.0087 42.1736 18.0087 42.1125 17.9781 42.0819C17.9781 42.0819 17.9781 42.0819 17.9781 42.0514C17.9781 42.0208 17.9475 41.9597 17.9475 41.9292C17.9475 41.8986 17.9475 41.868 17.917 41.8375C17.917 41.8069 17.917 41.7764 17.917 41.7458C17.917 41.7153 17.917 41.6847 17.917 41.6541C17.917 41.6236 17.917 41.593 17.917 41.5319V41.5014C17.917 41.4708 17.917 41.4403 17.917 41.4097C17.917 41.3791 17.917 41.318 17.917 41.2875C17.917 41.2569 17.917 41.2264 17.917 41.1653C17.917 41.1347 17.917 41.1042 17.917 41.0736C17.917 41.043 17.917 41.0125 17.917 40.9819C17.917 40.9514 17.917 40.9208 17.9475 40.8903C17.9475 40.8597 17.9781 40.7986 17.9781 40.768V40.7375C17.9781 40.7069 18.0087 40.6764 18.0087 40.6153C18.0087 40.5847 18.0392 40.5542 18.0392 40.5542C18.0392 40.5236 18.0698 40.493 18.1003 40.4625C18.1003 40.4625 18.1003 40.4319 18.1309 40.4319C18.1614 40.4014 18.1614 40.3708 18.192 40.3403C18.192 40.3097 18.2225 40.3097 18.2225 40.2791C18.2531 40.2486 18.2837 40.218 18.2837 40.1875C18.3142 40.1569 18.3448 40.1264 18.3753 40.0958C18.4059 40.0653 18.4364 40.0347 18.467 40.0041C18.6503 39.8208 18.8642 39.6986 19.1087 39.6069C19.1392 39.6069 19.2003 39.5764 19.2309 39.5764C19.3531 39.5458 19.5059 39.5153 19.6587 39.5153H44.4087C44.5309 39.5153 44.6837 39.5458 44.8059 39.5764C44.867 39.5764 44.8976 39.6069 44.9587 39.6375C45.0198 39.668 45.0809 39.668 45.1115 39.6986C45.1726 39.7291 45.2031 39.7597 45.2642 39.7903C45.3253 39.8208 45.3559 39.8514 45.417 39.8819C45.4781 39.943 45.5392 39.9736 45.6003 40.0347C45.6309 40.0653 45.6615 40.0958 45.692 40.1264C45.692 40.1264 45.692 40.1264 45.7226 40.1569C45.7531 40.1875 45.7837 40.218 45.8142 40.2486C45.8142 40.2486 45.8142 40.2791 45.8448 40.2791C45.8753 40.3097 45.9059 40.3708 45.9365 40.4014C45.967 40.4319 45.9976 40.493 45.9976 40.5236C46.0281 40.5541 46.0281 40.5847 46.0281 40.6153C46.0281 40.6458 46.0587 40.6764 46.0587 40.6764C46.0892 40.7069 46.0892 40.7375 46.0892 40.7986V40.8291C46.0892 40.8597 46.1198 40.9208 46.1198 40.9514C46.1198 40.9819 46.1198 41.0125 46.1503 41.043C46.1503 41.0736 46.1503 41.1041 46.1503 41.1347C46.1503 41.1653 46.1503 41.1958 46.1503 41.2264C46.1503 41.2569 46.1503 41.2875 46.1503 41.3486V41.3792C46.1809 41.318 46.1809 41.3486 46.1809 41.3792Z" fill="#AB62A4"/>
<path d="M31.7594 34.0457C31.7594 35.0846 30.9038 35.9401 29.8649 35.9401H19.6288C18.5899 35.9401 17.7344 35.0846 17.7344 34.0457C17.7344 33.129 18.376 32.3651 19.2316 32.1818C19.3538 32.1512 19.476 32.1512 19.5983 32.1512H29.8344C29.9566 32.1512 30.0483 32.1512 30.1705 32.1818C30.201 32.1818 30.2622 32.1818 30.2927 32.2124C30.3233 32.2124 30.3538 32.2429 30.4149 32.2429C30.476 32.2735 30.5372 32.2735 30.5983 32.304C30.7205 32.3651 30.8122 32.4262 30.9344 32.4874C30.9955 32.5179 31.0261 32.5485 31.0872 32.6096C31.1483 32.6401 31.1788 32.7012 31.2094 32.7318C31.576 33.0679 31.7594 33.5262 31.7594 34.0457Z" fill="#AB62A4"/>
<path d="M0.866211 97.8764C0.866211 97.4181 0.988433 97.0819 1.23288 96.8681C1.47732 96.6542 1.81343 96.5625 2.24121 96.5625H2.60788C3.06621 96.5625 3.40232 96.6542 3.61621 96.8681C3.86066 97.0819 3.98288 97.4181 3.98288 97.8764V106.982C3.98288 107.44 3.86066 107.776 3.61621 107.99C3.37177 108.204 3.03566 108.296 2.60788 108.296H2.24121C1.78288 108.296 1.44677 108.204 1.23288 107.99C0.988433 107.776 0.866211 107.44 0.866211 106.982V97.8764Z" fill="#AB62A4"/>
<path d="M6.33622 97.7847C6.33622 97.418 6.42789 97.1125 6.64177 96.8986C6.85566 96.6847 7.13067 96.593 7.49733 96.593H7.80289C8.56678 96.593 9.17789 96.9291 9.63622 97.5708L12.814 102.337C12.8751 102.399 12.9057 102.46 12.9362 102.49C12.9668 102.521 12.9973 102.551 13.0279 102.551C13.0584 102.551 13.089 102.49 13.089 102.399V97.8152C13.089 97.3875 13.2112 97.0819 13.4251 96.8986C13.639 96.7152 13.9446 96.6236 14.3723 96.6236H14.7084C15.1057 96.6236 15.4418 96.7152 15.6557 96.8986C15.8696 97.0819 15.9918 97.3875 15.9918 97.8152V107.104C15.9918 107.501 15.9001 107.776 15.6862 107.99C15.5029 108.204 15.1973 108.296 14.8001 108.296H14.5251C14.0362 108.296 13.6696 108.204 13.3946 108.021C13.1196 107.837 12.9057 107.624 12.6918 107.318L9.45289 102.49C9.36122 102.368 9.30011 102.307 9.26955 102.307C9.239 102.307 9.20844 102.368 9.20844 102.46V107.104C9.20844 107.532 9.08622 107.837 8.87233 108.021C8.65844 108.204 8.35289 108.296 7.92511 108.296H7.589C7.19177 108.296 6.85566 108.204 6.64177 108.021C6.42789 107.837 6.30566 107.532 6.30566 107.104V97.7847H6.33622Z" fill="#AB62A4"/>
<path d="M18.3135 97.7847C18.3135 97.4486 18.4357 97.143 18.6496 96.9291C18.8635 96.7152 19.1385 96.593 19.5051 96.593H24.9746C25.6774 96.593 26.0135 96.9597 26.0135 97.7236V98.0597C26.0135 98.793 25.6774 99.1291 24.9746 99.1291H21.644C21.4913 99.1291 21.4301 99.1902 21.4301 99.343V101.39C21.4301 101.543 21.4913 101.604 21.644 101.604H23.4774C24.1801 101.604 24.5163 101.971 24.5163 102.704V103.04C24.5163 103.774 24.1801 104.11 23.4774 104.11H21.644C21.4913 104.11 21.4301 104.171 21.4301 104.324V106.951C21.4301 107.41 21.3079 107.746 21.0635 107.96C20.819 108.174 20.4829 108.265 20.0551 108.265H19.6885C19.2301 108.265 18.894 108.174 18.6801 107.96C18.4357 107.746 18.3135 107.41 18.3135 106.951V97.7847Z" fill="#AB62A4"/>
<path d="M31.7582 108.479C31.0249 108.479 30.3832 108.388 29.7721 108.204C29.161 108.021 28.6415 107.685 28.1832 107.226C27.7249 106.768 27.3887 106.157 27.1137 105.363C26.8693 104.568 26.7471 103.59 26.7471 102.429C26.7471 101.299 26.8999 100.351 27.1749 99.5876C27.4499 98.8237 27.8165 98.182 28.3054 97.7237C28.7637 97.2348 29.3137 96.8987 29.9249 96.7153C30.536 96.5015 31.1471 96.4098 31.8193 96.4098C32.5526 96.4098 33.1943 96.5015 33.8054 96.6848C34.4165 96.8681 34.936 97.2042 35.3943 97.6626C35.8526 98.1209 36.1887 98.732 36.4637 99.5265C36.7387 100.321 36.8304 101.268 36.8304 102.46C36.8304 103.59 36.6776 104.538 36.4026 105.301C36.1276 106.065 35.761 106.707 35.2721 107.165C34.8137 107.654 34.2637 107.99 33.6526 108.174C33.0415 108.357 32.3999 108.479 31.7582 108.479ZM31.7582 105.913C32.0943 105.913 32.3693 105.882 32.5832 105.79C32.7971 105.729 33.011 105.546 33.1637 105.301C33.3165 105.057 33.4082 104.69 33.4999 104.232C33.561 103.774 33.5915 103.163 33.5915 102.368C33.5915 101.604 33.561 100.993 33.4999 100.535C33.4387 100.076 33.3165 99.7098 33.1637 99.4653C33.011 99.2209 32.8276 99.0681 32.5832 98.9765C32.3693 98.9153 32.0637 98.8542 31.7582 98.8542C31.4526 98.8542 31.1471 98.8848 30.9332 98.9765C30.7193 99.0376 30.5054 99.2209 30.3526 99.4653C30.1999 99.7098 30.1082 100.076 30.0165 100.535C29.9554 100.993 29.9249 101.604 29.9249 102.368C29.9249 103.163 29.9554 103.774 30.0165 104.232C30.0776 104.69 30.1999 105.026 30.3526 105.301C30.5054 105.546 30.6887 105.699 30.9332 105.79C31.1471 105.882 31.4221 105.913 31.7582 105.913Z" fill="#AB62A4"/>
<path d="M38.6025 97.7847C38.6025 97.4486 38.7248 97.143 38.9387 96.9291C39.1525 96.7152 39.4275 96.593 39.7942 96.593H43.247C44.6831 96.593 45.722 96.9291 46.3637 97.6013C47.0053 98.2736 47.3414 99.2208 47.3414 100.443C47.3414 101.176 47.2192 101.818 46.9748 102.368C46.7303 102.918 46.3331 103.346 45.7831 103.651C45.722 103.682 45.6914 103.743 45.6914 103.774C45.6914 103.804 45.722 103.835 45.7525 103.926L47.6164 106.982C47.7387 107.165 47.7692 107.349 47.7692 107.532C47.7692 107.746 47.7081 107.899 47.5553 108.051C47.4025 108.204 47.1887 108.265 46.8831 108.265H45.722C45.3553 108.265 45.0803 108.174 44.8664 107.99C44.6525 107.807 44.4692 107.562 44.3164 107.257L42.7887 104.476C42.7275 104.354 42.6359 104.293 42.5137 104.293H41.9025C41.7498 104.293 41.6887 104.354 41.6887 104.507V106.951C41.6887 107.41 41.5664 107.746 41.322 107.96C41.0775 108.174 40.7414 108.265 40.3137 108.265H39.9775C39.5192 108.265 39.1831 108.174 38.9692 107.96C38.7248 107.746 38.6025 107.41 38.6025 106.951V97.7847ZM42.4831 101.787C42.7275 101.787 42.972 101.787 43.1553 101.757C43.3692 101.726 43.522 101.665 43.6748 101.604C43.8275 101.512 43.9192 101.39 44.0109 101.207C44.1025 101.024 44.1331 100.779 44.1331 100.474C44.1331 100.168 44.1025 99.9236 44.0109 99.7402C43.9192 99.5569 43.8275 99.4347 43.6748 99.343C43.522 99.2514 43.3692 99.1902 43.1553 99.1597C42.9414 99.1291 42.7275 99.1291 42.4831 99.1291H41.9025C41.7498 99.1291 41.6887 99.1902 41.6887 99.343V101.574C41.6887 101.726 41.7498 101.787 41.9025 101.787H42.4831Z" fill="#AB62A4"/>
<path d="M49.4192 97.8458C49.4192 97.4486 49.5109 97.143 49.7248 96.9291C49.9387 96.7152 50.2137 96.593 50.5803 96.593H52.5053C52.8109 96.593 53.0859 96.6541 53.3303 96.8069C53.5748 96.9597 53.7887 97.2041 53.9109 97.5402L55.6526 102.399C55.6831 102.49 55.7137 102.521 55.7748 102.521C55.8359 102.521 55.8359 102.49 55.897 102.399L57.6692 97.5402C57.7915 97.2041 57.9748 96.9597 58.2192 96.8375C58.4637 96.6847 58.7387 96.6236 59.0137 96.6236H60.847C61.1831 96.6236 61.4581 96.7152 61.672 96.9291C61.8553 97.143 61.9776 97.418 61.9776 97.8152V107.074C61.9776 107.501 61.8553 107.807 61.6415 108.021C61.4276 108.204 61.0915 108.326 60.6637 108.326H60.297C59.8692 108.326 59.5637 108.235 59.3192 108.021C59.1053 107.837 58.9831 107.501 58.9831 107.074V101.024C58.9831 100.962 58.9526 100.901 58.922 100.901C58.8915 100.901 58.8609 100.932 58.8303 101.024L56.9359 105.974C56.8748 106.187 56.7526 106.34 56.6303 106.462C56.5081 106.585 56.3248 106.646 56.0803 106.646H55.3165C55.072 106.646 54.8887 106.585 54.7359 106.462C54.5831 106.34 54.4609 106.187 54.3998 105.974L52.5359 101.024C52.5053 100.962 52.4748 100.901 52.4442 100.901C52.4137 100.901 52.3831 100.932 52.3831 101.024V107.074C52.3831 107.501 52.2609 107.807 52.047 108.021C51.8331 108.204 51.497 108.326 51.0692 108.326H50.7026C50.2748 108.326 49.9692 108.235 49.7248 108.021C49.5109 107.837 49.3887 107.501 49.3887 107.074V97.8458H49.4192Z" fill="#AB62A4"/>
<path d="M63.292 107.44C63.292 107.288 63.3225 107.104 63.3837 106.89L66.317 97.632C66.4087 97.2959 66.592 97.0514 66.8364 96.8375C67.0809 96.6236 67.4476 96.532 67.9059 96.532H69.1587C69.617 96.532 69.9531 96.6236 70.1976 96.8375C70.442 97.0514 70.6253 97.3264 70.717 97.632L73.6503 106.829C73.7114 107.043 73.742 107.196 73.742 107.349C73.742 107.593 73.6809 107.807 73.5281 107.99C73.3753 108.174 73.1614 108.265 72.8253 108.265H71.7559C71.3892 108.265 71.1142 108.174 70.9309 107.96C70.7476 107.776 70.5948 107.501 70.5031 107.135L70.2587 106.31C70.2281 106.157 70.1364 106.096 69.9837 106.096H66.867C66.7142 106.096 66.6225 106.157 66.592 106.31L66.317 107.196C66.2253 107.532 66.1031 107.776 65.9198 107.96C65.7364 108.143 65.492 108.235 65.1559 108.235H64.1781C63.9031 108.235 63.6892 108.143 63.5364 107.99C63.3531 107.899 63.292 107.685 63.292 107.44ZM67.3559 103.499C67.3559 103.621 67.417 103.651 67.5392 103.651H69.2503C69.3726 103.651 69.4337 103.59 69.4337 103.499C69.4337 103.468 69.4337 103.407 69.4031 103.346C69.3726 103.285 69.3726 103.193 69.3114 103.071L68.4864 100.168C68.4559 100.076 68.4253 100.015 68.3948 100.015C68.3642 100.015 68.3337 100.076 68.3031 100.168L67.4476 103.071C67.417 103.193 67.3864 103.285 67.3559 103.346C67.3253 103.407 67.3559 103.468 67.3559 103.499Z" fill="#AB62A4"/>
<path d="M76.9194 99.4041C76.9194 99.2513 76.8583 99.1902 76.7055 99.1902H75.0555C74.3527 99.1902 74.0166 98.793 74.0166 98.0291V97.693C74.0166 96.9596 74.3527 96.6235 75.0555 96.6235H81.9611C82.6638 96.6235 82.9999 97.0208 82.9999 97.7846V98.1208C82.9999 98.8541 82.6638 99.1902 81.9611 99.1902H80.2499C80.0972 99.1902 80.036 99.2513 80.036 99.4041V106.982C80.036 107.44 79.9138 107.776 79.6694 107.99C79.4249 108.204 79.0888 108.296 78.661 108.296H78.2944C77.836 108.296 77.4999 108.204 77.286 107.99C77.0416 107.776 76.9194 107.44 76.9194 106.982V99.4041Z" fill="#AB62A4"/>
<path d="M84.2529 97.8764C84.2529 97.4181 84.3751 97.0819 84.6196 96.8681C84.864 96.6542 85.2002 96.5625 85.6279 96.5625H85.9946C86.4529 96.5625 86.789 96.6542 87.0029 96.8681C87.2474 97.0819 87.3696 97.4181 87.3696 97.8764V106.982C87.3696 107.44 87.2474 107.776 87.0029 107.99C86.7585 108.204 86.4224 108.296 85.9946 108.296H85.6279C85.1696 108.296 84.8335 108.204 84.6196 107.99C84.3751 107.776 84.2529 107.44 84.2529 106.982V97.8764Z" fill="#AB62A4"/>
<path d="M93.4192 108.418C92.8081 108.357 92.2276 108.204 91.7387 107.99C91.2192 107.746 90.7914 107.41 90.4248 106.921C90.0581 106.463 89.7831 105.851 89.5692 105.118C89.3553 104.385 89.2637 103.499 89.2637 102.429C89.2637 101.299 89.4164 100.351 89.6914 99.5876C89.9664 98.8237 90.3331 98.182 90.822 97.7237C91.2803 97.2348 91.8303 96.8987 92.4414 96.7153C93.0526 96.5015 93.6637 96.4098 94.3359 96.4098C95.0692 96.4098 95.7109 96.5015 96.322 96.6848C96.9331 96.8681 97.4526 97.2042 97.9109 97.6626C98.3692 98.1209 98.7053 98.732 98.9803 99.5265C99.2553 100.321 99.347 101.268 99.347 102.46C99.347 103.224 99.2859 103.896 99.1637 104.507C99.0415 105.118 98.8581 105.638 98.6137 106.096C98.3692 106.554 98.0942 106.921 97.7887 107.226C97.4526 107.532 97.0859 107.807 96.6887 107.99C96.6276 108.021 96.6276 108.051 96.6276 108.082C96.6276 108.113 96.6581 108.143 96.6887 108.204L98.3692 110.465C98.4915 110.618 98.522 110.801 98.522 110.924C98.522 111.107 98.4609 111.26 98.3081 111.382C98.1553 111.504 97.972 111.565 97.697 111.565H96.8109C96.4442 111.565 96.1387 111.504 95.9248 111.382C95.7109 111.26 95.5276 111.076 95.3442 110.863L93.8165 108.601C93.6637 108.51 93.572 108.449 93.4192 108.418ZM94.2442 105.913C94.5803 105.913 94.8553 105.882 95.0692 105.79C95.2831 105.729 95.497 105.546 95.6498 105.301C95.8026 105.057 95.8942 104.69 95.9859 104.232C96.047 103.774 96.0776 103.163 96.0776 102.368C96.0776 101.604 96.047 100.993 95.9859 100.535C95.9248 100.076 95.8026 99.7098 95.6498 99.4653C95.497 99.2209 95.3137 99.0681 95.0692 98.9765C94.8553 98.9153 94.5498 98.8542 94.2442 98.8542C93.9081 98.8542 93.6331 98.8848 93.4192 98.9765C93.2053 99.0376 92.9915 99.2209 92.8387 99.4653C92.6859 99.7098 92.5942 100.076 92.5026 100.535C92.4415 100.993 92.4109 101.604 92.4109 102.368C92.4109 103.163 92.4415 103.774 92.5026 104.232C92.5637 104.69 92.6859 105.026 92.8387 105.301C92.9915 105.546 93.1748 105.699 93.4192 105.79C93.6637 105.882 93.9387 105.913 94.2442 105.913Z" fill="#AB62A4"/>
<path d="M100.966 97.8764C100.966 97.4181 101.088 97.0819 101.333 96.8681C101.577 96.6542 101.913 96.5625 102.341 96.5625H102.708C103.166 96.5625 103.502 96.6542 103.716 96.8681C103.961 97.0819 104.083 97.4181 104.083 97.8764V103.713C104.083 104.171 104.113 104.538 104.174 104.843C104.236 105.118 104.327 105.363 104.449 105.515C104.572 105.668 104.755 105.79 104.969 105.821C105.183 105.882 105.427 105.913 105.702 105.913C105.977 105.913 106.252 105.882 106.436 105.821C106.649 105.76 106.802 105.668 106.924 105.515C107.047 105.363 107.138 105.149 107.199 104.843C107.261 104.568 107.291 104.171 107.291 103.713V97.8764C107.291 97.4181 107.413 97.0819 107.658 96.8681C107.902 96.6542 108.238 96.5625 108.666 96.5625H109.033C109.491 96.5625 109.827 96.6542 110.041 96.8681C110.286 97.0819 110.408 97.4181 110.408 97.8764V103.988C110.408 104.904 110.286 105.638 110.011 106.218C109.736 106.799 109.369 107.257 108.941 107.593C108.483 107.929 107.994 108.174 107.413 108.296C106.863 108.418 106.283 108.479 105.672 108.479C105.03 108.479 104.419 108.418 103.838 108.326C103.258 108.204 102.769 107.99 102.341 107.685C101.913 107.379 101.577 106.921 101.302 106.34C101.027 105.76 100.936 104.996 100.936 104.018V97.8764H100.966Z" fill="#AB62A4"/>
<path d="M112.608 97.7847C112.608 97.4486 112.731 97.143 112.945 96.9291C113.158 96.7152 113.433 96.593 113.8 96.593H119.545C120.247 96.593 120.583 96.9597 120.583 97.7236V98.0597C120.583 98.793 120.247 99.1291 119.545 99.1291H115.97C115.817 99.1291 115.756 99.1902 115.756 99.343V100.901C115.756 101.054 115.817 101.115 115.97 101.115H117.895C118.597 101.115 118.933 101.482 118.933 102.215V102.551C118.933 103.285 118.597 103.621 117.895 103.621H115.97C115.817 103.621 115.756 103.682 115.756 103.835V105.485C115.756 105.637 115.817 105.699 115.97 105.699H119.82C120.522 105.699 120.858 106.065 120.858 106.829V107.165C120.858 107.899 120.522 108.235 119.82 108.235H113.831C113.495 108.235 113.189 108.112 112.975 107.899C112.761 107.685 112.639 107.41 112.639 107.043V97.7847H112.608Z" fill="#AB62A4"/>
</svg>
