<svg width="128" height="90" viewBox="0 0 128 90" fill="none" xmlns="http://www.w3.org/2000/svg">
<path d="M70.6765 13.1056H57.4765V11.5778C57.4765 10.6917 58.5154 9.95833 59.7682 9.95833H68.4154C69.6376 9.95833 70.7071 10.7222 70.7071 11.5778V13.1056H70.6765ZM55.1848 4.27499H72.9682C76.6043 4.27499 79.5682 6.65832 79.5682 9.5611V13.1056H74.2821V11.5778C74.2821 8.67499 71.6238 6.32222 68.3849 6.32222H59.7376C56.4987 6.32222 53.8404 8.67499 53.8404 11.5778V13.1056H48.5543V9.5611C48.5543 6.62777 51.5182 4.27499 55.1848 4.27499ZM99.4293 62.1473C99.4293 64.9889 97.1071 67.3111 94.2654 67.3111H33.9182C31.0765 67.3111 28.7543 64.9889 28.7543 62.1473V21.875C28.7543 19.0333 31.0765 16.7111 33.9182 16.7111H94.2654C97.1071 16.7111 99.4293 19.0333 99.4293 21.875V62.1473ZM83.2043 13.1056V9.5611C83.2043 4.64166 78.621 0.669434 72.9682 0.669434H55.1848C49.5321 0.669434 44.9487 4.67221 44.9487 9.5611V13.1056H33.9182C29.0598 13.1056 25.1182 17.0472 25.1182 21.9056V62.1778C25.1182 67.0361 29.0598 70.9778 33.9182 70.9778H94.2654C99.1238 70.9778 103.065 67.0361 103.065 62.1778V21.875C103.065 17.0167 99.1238 13.075 94.2654 13.075H83.2043V13.1056Z" fill="#1B72B9"/>
<path d="M78.4985 35.7473H71.0735V28.3222C71.0735 27.4056 70.3402 26.6722 69.4235 26.6722H60.1957C59.279 26.6722 58.5457 27.4056 58.5457 28.3222V35.7473H51.1207C50.204 35.7473 49.4707 36.4806 49.4707 37.3973V46.625C49.4707 47.5417 50.204 48.275 51.1207 48.275H58.5457V55.7C58.5457 56.6167 59.279 57.35 60.1957 57.35H69.4235C70.3402 57.35 71.0735 56.6167 71.0735 55.7V48.275H78.4985C79.4152 48.275 80.1485 47.5417 80.1485 46.625V37.3973C80.1485 36.4806 79.4152 35.7473 78.4985 35.7473ZM60.1957 44.975H52.7707V39.0778H60.1957C61.1124 39.0778 61.8457 38.3445 61.8457 37.4278V30.0028H67.7429V37.4278C67.7429 38.3445 68.4763 39.0778 69.3929 39.0778H76.8179V44.975H69.3929C68.4763 44.975 67.7429 45.7084 67.7429 46.625V54.05H61.8457V46.625C61.8457 45.7084 61.1124 44.975 60.1957 44.975Z" fill="#1B72B9"/>
<path d="M0.948242 87.6917C0.948242 87.6 0.948242 87.5389 0.978797 87.4472C1.00935 87.3556 1.00935 87.2639 1.03991 87.1722L1.10102 86.8972C1.19269 86.6528 1.28435 86.4695 1.43713 86.3473C1.58991 86.225 1.77324 86.1639 2.01769 86.1639C2.0788 86.1639 2.17046 86.1639 2.26213 86.1945C2.3538 86.225 2.44546 86.2556 2.53713 86.2556C2.84269 86.3472 3.14824 86.4389 3.48435 86.5C3.82047 86.5611 4.15658 86.5917 4.49269 86.5917C4.88991 86.5917 5.22602 86.5306 5.43991 86.4084C5.6538 86.2861 5.77602 86.1028 5.77602 85.7972C5.77602 85.5222 5.71491 85.3084 5.56213 85.1861C5.40936 85.0334 5.19547 84.9111 4.88991 84.7889L3.57602 84.2695C2.78158 83.9639 2.13991 83.5361 1.65102 82.9556C1.19269 82.4056 0.948242 81.6417 0.948242 80.725C0.948242 80.1445 1.03991 79.625 1.2538 79.1667C1.46769 78.7084 1.74269 78.3111 2.10935 78.0056C2.47602 77.7 2.9038 77.4556 3.39269 77.3028C3.88158 77.15 4.40102 77.0583 4.95102 77.0583C5.40936 77.0583 5.86769 77.0889 6.32602 77.1195C6.78436 77.1806 7.18158 77.2722 7.5788 77.3945C8.09825 77.5778 8.37325 77.9139 8.37325 78.3722C8.37325 78.4639 8.37325 78.525 8.37325 78.5861C8.37325 78.6472 8.34269 78.7389 8.31214 78.8917L8.25103 79.1667C8.15936 79.4417 8.03714 79.625 7.88436 79.7472C7.73158 79.8695 7.54825 79.9306 7.3038 79.9306C7.24269 79.9306 7.15102 79.9306 7.08991 79.9C7.0288 79.9 6.93713 79.8695 6.84547 79.8389C6.57047 79.7778 6.29547 79.6861 6.02047 79.6556C5.74547 79.5945 5.47047 79.5639 5.22602 79.5639C4.88991 79.5639 4.61491 79.625 4.43158 79.7472C4.24824 79.8695 4.15658 80.0834 4.15658 80.3584C4.15658 80.6639 4.24824 80.8778 4.43158 81.0306C4.61491 81.1834 4.85936 81.3056 5.22602 81.4278L6.78436 82.0695C7.15102 82.2222 7.45658 82.375 7.76213 82.5889C8.03713 82.7722 8.31214 83.0167 8.49547 83.2611C8.70936 83.5056 8.86214 83.8111 8.9538 84.1472C9.07602 84.4834 9.10658 84.85 9.10658 85.2778C9.10658 85.9195 8.98436 86.4695 8.77047 86.9584C8.55658 87.4473 8.25102 87.8445 7.8538 88.15C7.45658 88.4556 6.96769 88.7 6.41769 88.8528C5.86769 89.0056 5.25658 89.0973 4.58436 89.0973C4.03435 89.0973 3.54547 89.0667 3.05658 88.975C2.56769 88.8834 2.17046 88.7917 1.77324 88.6389C1.49824 88.5473 1.31491 88.425 1.16213 88.2723C1.03991 88.1195 0.948242 87.9361 0.948242 87.6917Z" fill="#1B72B9"/>
<path d="M9.71777 88.0889C9.71777 87.9361 9.74833 87.7528 9.80944 87.5389L12.7428 78.2805C12.8344 77.9444 13.0178 77.7 13.2622 77.4861C13.5067 77.2722 13.8733 77.1805 14.3317 77.1805H15.5844C16.0428 77.1805 16.3789 77.2722 16.6233 77.4861C16.8678 77.7 17.0511 77.975 17.1428 78.2805L20.0761 87.4778C20.1372 87.6917 20.1678 87.8444 20.1678 87.9972C20.1678 88.2417 20.1067 88.4555 19.9539 88.6389C19.8011 88.8222 19.5872 88.9139 19.2511 88.9139H18.1817C17.815 88.9139 17.54 88.8222 17.3567 88.6083C17.1733 88.425 17.0206 88.15 16.9289 87.7833L16.6844 86.9583C16.6539 86.8055 16.5622 86.7444 16.4094 86.7444H13.2622C13.1094 86.7444 13.0178 86.8055 12.9872 86.9583L12.7122 87.8444C12.6206 88.1805 12.4983 88.425 12.315 88.6083C12.1317 88.7917 11.8872 88.8833 11.5511 88.8833H10.5733C10.2983 88.8833 10.0844 88.7917 9.93166 88.6389C9.77889 88.5472 9.71777 88.3333 9.71777 88.0889ZM13.7817 84.1472C13.7817 84.2694 13.8428 84.3 13.965 84.3H15.6761C15.7983 84.3 15.8594 84.2389 15.8594 84.1472C15.8594 84.1167 15.8594 84.0555 15.8289 83.9944C15.7983 83.9333 15.7983 83.8417 15.7372 83.7194L14.9122 80.8167C14.8817 80.725 14.8511 80.6639 14.8206 80.6639C14.79 80.6639 14.7594 80.725 14.7289 80.8167L13.8733 83.7194C13.8428 83.8417 13.8122 83.9333 13.7817 83.9944C13.7511 84.0555 13.7817 84.1167 13.7817 84.1472Z" fill="#1B72B9"/>
<path d="M21.5735 78.4332C21.5735 78.0666 21.6652 77.761 21.8791 77.5471C22.093 77.3332 22.368 77.2416 22.7346 77.2416H23.0402C23.8041 77.2416 24.4152 77.5777 24.8735 78.2194L28.0513 82.986C28.1124 83.0471 28.143 83.1083 28.1735 83.1388C28.2041 83.1694 28.2346 83.1999 28.2652 83.1999C28.2958 83.1999 28.3263 83.1388 28.3263 83.0471V78.4638C28.3263 78.036 28.4485 77.7305 28.6624 77.5471C28.8763 77.3638 29.1819 77.2721 29.6096 77.2721H29.9763C30.3735 77.2721 30.7096 77.3638 30.9235 77.5471C31.1374 77.7305 31.2596 78.036 31.2596 78.4638V87.7527C31.2596 88.1499 31.168 88.4249 30.9541 88.6388C30.7708 88.8527 30.4652 88.9444 30.068 88.9444H29.793C29.3041 88.9444 28.9374 88.8527 28.6624 88.6694C28.3874 88.486 28.1735 88.2721 27.9596 87.9666L24.7207 83.1388C24.6291 83.0166 24.568 82.9555 24.5374 82.9555C24.5069 82.9555 24.4763 83.0166 24.4763 83.1083V87.7527C24.4763 88.1805 24.3541 88.486 24.1402 88.6694C23.9263 88.8527 23.6207 88.9444 23.193 88.9444H22.8263C22.4291 88.9444 22.093 88.8527 21.8791 88.6694C21.6652 88.486 21.543 88.1805 21.543 87.7527V78.4332H21.5735Z" fill="#1B72B9"/>
<path d="M35.2924 80.0528C35.2924 79.9 35.2313 79.8389 35.0785 79.8389H33.4285C32.7258 79.8389 32.3896 79.4417 32.3896 78.6778V78.3417C32.3896 77.6083 32.7258 77.2722 33.4285 77.2722H40.3341C41.0369 77.2722 41.373 77.6694 41.373 78.4333V78.7694C41.373 79.5028 41.0369 79.8389 40.3341 79.8389H38.623C38.4702 79.8389 38.4091 79.9 38.4091 80.0528V87.6306C38.4091 88.0889 38.2869 88.425 38.0424 88.6389C37.798 88.8528 37.4619 88.9445 37.0341 88.9445H36.6674C36.2091 88.9445 35.873 88.8528 35.6591 88.6389C35.4146 88.425 35.2924 88.0889 35.2924 87.6306V80.0528Z" fill="#1B72B9"/>
<path d="M42.5957 78.4333C42.5957 78.0972 42.7179 77.7917 42.9318 77.5778C43.1457 77.3639 43.4207 77.2416 43.7874 77.2416H49.5318C50.2346 77.2416 50.5707 77.6083 50.5707 78.3722V78.7083C50.5707 79.4417 50.2346 79.7778 49.5318 79.7778H45.9568C45.804 79.7778 45.7429 79.8389 45.7429 79.9916V81.55C45.7429 81.7028 45.804 81.7639 45.9568 81.7639H47.8818C48.5846 81.7639 48.9207 82.1305 48.9207 82.8639V83.2C48.9207 83.9333 48.5846 84.2694 47.8818 84.2694H45.9568C45.804 84.2694 45.7429 84.3305 45.7429 84.4833V86.1333C45.7429 86.2861 45.804 86.3472 45.9568 86.3472H49.8068C50.5096 86.3472 50.8457 86.7139 50.8457 87.4778V87.8139C50.8457 88.5472 50.5096 88.8833 49.8068 88.8833H43.8179C43.4818 88.8833 43.1763 88.7611 42.9624 88.5472C42.7485 88.3333 42.6263 88.0583 42.6263 87.6917V78.4333H42.5957ZM44.8263 76.4167C44.4901 76.4167 44.3374 76.2028 44.3374 75.8055V75.5916C44.3374 75.3166 44.3985 75.1028 44.4901 74.95C44.5818 74.7972 44.7652 74.675 45.0096 74.5833L48.3707 73.1166C48.4929 73.0555 48.554 73.025 48.6457 72.9944C48.7068 72.9639 48.7985 72.9639 48.8596 72.9639C49.1957 72.9639 49.379 73.2083 49.379 73.6972V74.125C49.379 74.4611 49.3179 74.7055 49.2263 74.9194C49.104 75.1333 48.9207 75.2861 48.5846 75.3778L45.5902 76.2944C45.4679 76.3555 45.3457 76.3861 45.2235 76.4167C45.0707 76.3861 44.9485 76.4167 44.8263 76.4167Z" fill="#1B72B9"/>
<path d="M55.6738 85.675C55.6738 84.9722 55.8877 84.3611 56.2849 83.8417C56.7127 83.2917 57.2016 82.8944 57.8127 82.6194C57.8738 82.5889 57.9349 82.5278 57.9349 82.4667C57.9349 82.4361 57.9044 82.3444 57.8127 82.2222C57.5988 81.8861 57.4155 81.5805 57.2933 81.2444C57.1711 80.9083 57.1099 80.5416 57.1099 80.1444C57.1099 79.7472 57.2016 79.35 57.3544 78.9833C57.5072 78.6166 57.7516 78.2805 58.0572 78.0055C58.3627 77.7305 58.7294 77.4861 59.1572 77.3333C59.5849 77.1805 60.0738 77.0889 60.6238 77.0889C60.9599 77.0889 61.2961 77.1194 61.6016 77.15C61.9072 77.1805 62.1822 77.2417 62.4266 77.3333C62.6405 77.425 62.8238 77.5166 62.9461 77.6694C63.0683 77.8222 63.1294 78.0055 63.1294 78.25C63.1294 78.3722 63.1294 78.4639 63.0988 78.5861C63.0683 78.7083 63.0377 78.8305 62.9766 79.0139C62.9155 79.2583 62.7933 79.4416 62.6711 79.5639C62.5488 79.6861 62.3655 79.7472 62.1211 79.7472C62.0294 79.7472 61.9683 79.7472 61.9072 79.7166C61.8461 79.7166 61.7849 79.6861 61.6933 79.6861C61.6322 79.6555 61.5405 79.6555 61.4488 79.625C61.3572 79.5944 61.2349 79.5944 61.0822 79.5944C60.8072 79.5944 60.5933 79.6555 60.4405 79.7778C60.2877 79.9 60.2266 80.0833 60.2266 80.3278C60.2266 80.5416 60.3183 80.7861 60.5322 81.1222C60.7461 81.4583 60.9905 81.7944 61.2655 82.1305C61.5405 82.4666 61.8155 82.8028 62.1211 83.1389C62.4266 83.475 62.6711 83.7194 62.8849 83.9028C62.9766 83.9944 63.0683 84.0555 63.0988 84.0555C63.1294 84.0555 63.1599 84.0555 63.1599 84.025L63.2516 83.9028C63.3127 83.8111 63.4044 83.6889 63.4961 83.5361C63.5877 83.3833 63.6794 83.2 63.7405 83.0472C63.8322 82.8639 63.8933 82.7111 63.9849 82.5278C64.0461 82.3444 64.1072 82.1916 64.1683 82.1C64.2599 81.825 64.4127 81.6111 64.5961 81.4889C64.7794 81.3666 65.0238 81.3055 65.2988 81.3055H66.4294C66.6433 81.3055 66.7961 81.3667 66.9183 81.4583C67.0405 81.5805 67.1016 81.7028 67.1016 81.8861C67.1016 82.0083 67.0711 82.1 67.0405 82.2222C67.0099 82.3444 66.9488 82.4361 66.8877 82.5889C66.7961 82.8333 66.6738 83.1083 66.5211 83.4139C66.3683 83.7194 66.1849 84.025 66.0322 84.3305C65.8488 84.6361 65.6961 84.9111 65.5127 85.1861C65.3294 85.4611 65.1766 85.675 65.0849 85.8278C65.0238 85.8889 64.9933 85.95 64.9627 85.9805C64.9627 86.0111 64.9322 86.0416 64.9322 86.0722C64.9322 86.1028 64.9933 86.1944 65.0849 86.2861L66.6127 87.7833C66.7349 87.9055 66.7961 88.0889 66.7961 88.3028C66.7961 88.4861 66.7349 88.6694 66.5822 88.8222C66.4294 88.975 66.1849 89.0361 65.8794 89.0361H64.7488C64.4433 89.0361 64.1683 88.975 63.9238 88.8222C63.7099 88.6694 63.4655 88.4861 63.2211 88.2722C63.1294 88.2111 63.0683 88.15 63.0377 88.15C63.0072 88.1194 62.9766 88.1194 62.9155 88.1194C62.8544 88.1194 62.7627 88.15 62.6405 88.2417C62.1516 88.5472 61.6627 88.7916 61.1127 88.975C60.5933 89.1583 60.0127 89.25 59.3711 89.25C58.8516 89.25 58.3627 89.1889 57.9044 89.0361C57.4461 88.8833 57.0488 88.6694 56.7127 88.3639C56.3766 88.0583 56.1016 87.7222 55.9183 87.2944C55.7655 86.7139 55.6738 86.225 55.6738 85.675ZM58.6072 85.4611C58.6072 85.8278 58.7294 86.1028 58.9738 86.2861C59.2183 86.4694 59.4933 86.5917 59.8599 86.5917C60.0433 86.5917 60.2266 86.5611 60.4405 86.5305C60.6238 86.4694 60.8072 86.4083 60.9599 86.3472C61.0822 86.2861 61.1433 86.225 61.1433 86.1639C61.1433 86.1028 61.1127 86.0722 61.0822 86.0111C61.0516 85.95 60.9905 85.9194 60.9599 85.8583C60.8988 85.7667 60.7766 85.675 60.6849 85.5528C60.5627 85.4305 60.4405 85.3083 60.3183 85.1861C60.1961 85.0639 60.0738 84.9111 59.9516 84.7583C59.8294 84.6055 59.7072 84.4833 59.6155 84.3611C59.5544 84.3 59.5238 84.2389 59.4933 84.2389C59.4627 84.2083 59.4322 84.2083 59.3711 84.2083C59.3099 84.2083 59.2488 84.2389 59.1877 84.3C59.0044 84.4528 58.8822 84.6055 58.7905 84.7889C58.6377 84.9417 58.6072 85.1861 58.6072 85.4611Z" fill="#1B72B9"/>
<path d="M72.4785 87.6917C72.4785 87.6 72.4785 87.5389 72.5091 87.4472C72.5396 87.3556 72.5396 87.2639 72.5702 87.1722L72.6313 86.8972C72.723 86.6528 72.8146 86.4695 72.9674 86.3473C73.1202 86.225 73.3035 86.1639 73.548 86.1639C73.6091 86.1639 73.7007 86.1639 73.7924 86.1945C73.8841 86.225 73.9757 86.2556 74.0674 86.2556C74.373 86.3472 74.6785 86.4389 75.0146 86.5C75.3507 86.5611 75.6869 86.5917 76.023 86.5917C76.4202 86.5917 76.7563 86.5306 76.9702 86.4084C77.1841 86.2861 77.3063 86.1028 77.3063 85.7972C77.3063 85.5222 77.2452 85.3084 77.0924 85.1861C76.9396 85.0334 76.7257 84.9111 76.4202 84.7889L75.1063 84.2695C74.3119 83.9639 73.6702 83.5361 73.1813 82.9556C72.723 82.4056 72.4785 81.6417 72.4785 80.725C72.4785 80.1445 72.5702 79.625 72.7841 79.1667C72.998 78.7084 73.273 78.3111 73.6396 78.0056C74.0063 77.7 74.4341 77.4556 74.923 77.3028C75.4119 77.15 75.9313 77.0583 76.4813 77.0583C76.9396 77.0583 77.398 77.0889 77.8563 77.1195C78.3146 77.1806 78.7119 77.2722 79.1091 77.3945C79.6285 77.5778 79.9035 77.9139 79.9035 78.3722C79.9035 78.4639 79.9035 78.525 79.9035 78.5861C79.9035 78.6472 79.873 78.7389 79.8424 78.8917L79.7813 79.1667C79.6896 79.4417 79.5674 79.625 79.4146 79.7472C79.2619 79.8695 79.0785 79.9306 78.8341 79.9306C78.773 79.9306 78.6813 79.9306 78.6202 79.9C78.5591 79.9 78.4674 79.8695 78.3757 79.8389C78.1007 79.7778 77.8257 79.6861 77.5507 79.6556C77.2757 79.5945 77.0007 79.5639 76.7563 79.5639C76.4202 79.5639 76.1452 79.625 75.9618 79.7472C75.7785 79.8695 75.6869 80.0834 75.6869 80.3584C75.6869 80.6639 75.7785 80.8778 75.9618 81.0306C76.1452 81.1528 76.3896 81.3056 76.7563 81.4278L78.3146 82.0695C78.6813 82.2222 78.9868 82.375 79.2924 82.5889C79.5674 82.7722 79.8119 83.0167 80.0257 83.2611C80.2396 83.5056 80.3924 83.8111 80.4841 84.1472C80.6063 84.4834 80.6369 84.85 80.6369 85.2778C80.6369 85.9195 80.5146 86.4695 80.3007 86.9584C80.0869 87.4473 79.7813 87.8445 79.3841 88.15C78.9869 88.4556 78.498 88.7 77.948 88.8528C77.398 89.0056 76.7868 89.0973 76.1146 89.0973C75.5646 89.0973 75.0757 89.0667 74.5868 88.975C74.098 88.8834 73.7007 88.7917 73.3035 88.6389C73.0285 88.5473 72.8452 88.425 72.6924 88.2723C72.5396 88.1195 72.4785 87.9361 72.4785 87.6917Z" fill="#1B72B9"/>
<path d="M86.931 89.1278C86.1977 89.1278 85.556 89.0361 84.9449 88.8528C84.3338 88.6695 83.8144 88.3334 83.356 87.875C82.8977 87.4167 82.5616 86.8056 82.2866 86.0111C82.0116 85.2167 81.9199 84.2389 81.9199 83.0778C81.9199 81.9472 82.0727 81 82.3477 80.2361C82.6227 79.4722 82.9894 78.8306 83.4783 78.3722C83.9366 77.8834 84.4866 77.5472 85.0977 77.3639C85.7088 77.15 86.3199 77.0583 86.9921 77.0583C87.7255 77.0583 88.3672 77.15 88.9783 77.3334C89.5894 77.5167 90.1088 77.8528 90.5672 78.3111C91.0255 78.7695 91.3616 79.3806 91.6366 80.175C91.881 80.9389 92.0033 81.9167 92.0033 83.1084C92.0033 84.2389 91.8505 85.1861 91.5755 85.95C91.3005 86.7139 90.9338 87.3556 90.4449 87.8139C89.9866 88.3028 89.4366 88.6389 88.8255 88.8222C88.1838 89.0056 87.5727 89.1278 86.931 89.1278ZM86.931 86.5611C87.2671 86.5611 87.5421 86.5306 87.756 86.4389C87.9699 86.3778 88.1838 86.1945 88.3366 85.95C88.4894 85.7056 88.581 85.3389 88.6727 84.8806C88.7338 84.4222 88.7644 83.8111 88.7644 83.0167C88.7644 82.2528 88.7338 81.6417 88.6727 81.1834C88.6116 80.725 88.4894 80.3584 88.3366 80.1139C88.1838 79.8695 88.0005 79.7167 87.756 79.625C87.5421 79.5639 87.2366 79.5028 86.931 79.5028C86.5949 79.5028 86.3199 79.5334 86.106 79.625C85.8922 79.6861 85.6783 79.8695 85.5255 80.1139C85.3727 80.3584 85.281 80.725 85.1894 81.1834C85.1283 81.6417 85.0977 82.2528 85.0977 83.0167C85.0977 83.8111 85.1283 84.4222 85.1894 84.8806C85.2505 85.3389 85.3727 85.675 85.5255 85.95C85.6783 86.1945 85.8616 86.3472 86.106 86.4389C86.3199 86.5306 86.5949 86.5611 86.931 86.5611Z" fill="#1B72B9"/>
<path d="M93.2568 83.0777C93.2568 81.886 93.4096 80.9083 93.7152 80.1444C94.0207 79.3805 94.4179 78.7388 94.9068 78.2805C95.3957 77.8221 95.9763 77.486 96.5874 77.3027C97.2291 77.1194 97.8707 77.0277 98.5124 77.0277C99.3068 77.0277 100.01 77.1194 100.59 77.3027C101.14 77.486 101.415 77.7916 101.415 78.2194C101.415 78.3722 101.385 78.5555 101.324 78.7694L101.262 79.0138C101.171 79.2888 101.049 79.5027 100.896 79.6249C100.743 79.7777 100.56 79.8388 100.285 79.8388C100.224 79.8388 100.162 79.8388 100.071 79.8083C99.9791 79.7777 99.918 79.7777 99.8263 79.7472C99.4291 79.6555 99.0624 79.5944 98.6652 79.5944C98.268 79.5944 97.9624 79.6555 97.6874 79.7472C97.4124 79.8388 97.1679 80.0221 97.0152 80.2666C96.8624 80.511 96.7096 80.8777 96.6179 81.336C96.5263 81.7944 96.4957 82.3749 96.4957 83.0472C96.4957 83.7499 96.5263 84.3305 96.6179 84.7888C96.7096 85.2472 96.8318 85.5833 97.0152 85.8583C97.1985 86.1333 97.4124 86.286 97.6874 86.3777C97.9624 86.4694 98.2985 86.5305 98.6652 86.5305C98.9707 86.5305 99.2457 86.4999 99.4902 86.4694C99.7346 86.4388 99.9791 86.3777 100.193 86.286C100.407 86.1944 100.59 86.1638 100.743 86.1638C100.957 86.1638 101.14 86.2249 101.293 86.3472C101.415 86.4694 101.537 86.6527 101.599 86.8972L101.66 87.1416C101.69 87.2638 101.721 87.386 101.721 87.4472C101.721 87.5083 101.751 87.5999 101.751 87.6916C101.751 87.9055 101.66 88.0888 101.507 88.2416C101.354 88.3944 101.14 88.5166 100.865 88.6388C100.529 88.7611 100.132 88.8833 99.7346 88.9749C99.3374 89.0666 98.9402 89.0972 98.5124 89.0972C97.7485 89.0972 97.0457 89.0055 96.4041 88.8527C95.7624 88.6999 95.1818 88.3638 94.7235 87.936C94.2346 87.4777 93.868 86.8666 93.6235 86.1027C93.3791 85.3083 93.2568 84.2999 93.2568 83.0777Z" fill="#1B72B9"/>
<path d="M103.31 78.525C103.31 78.0666 103.432 77.7305 103.676 77.5166C103.921 77.3027 104.257 77.2111 104.685 77.2111H105.051C105.51 77.2111 105.846 77.3027 106.06 77.5166C106.304 77.7305 106.426 78.0666 106.426 78.525V87.6C106.426 88.0583 106.304 88.3944 106.06 88.6083C105.815 88.8222 105.479 88.9139 105.051 88.9139H104.685C104.226 88.9139 103.89 88.8222 103.676 88.6083C103.462 88.3944 103.31 88.0583 103.31 87.6V78.525Z" fill="#1B72B9"/>
<path d="M107.801 88.0889C107.801 87.9361 107.831 87.7528 107.892 87.5389L110.826 78.2805C110.917 77.9444 111.101 77.7 111.345 77.4861C111.59 77.2722 111.956 77.1805 112.415 77.1805H113.667C114.126 77.1805 114.462 77.2722 114.706 77.4861C114.951 77.7 115.134 77.975 115.226 78.2805L118.159 87.4778C118.22 87.6917 118.251 87.8444 118.251 87.9972C118.251 88.2417 118.19 88.4555 118.037 88.6389C117.884 88.8222 117.67 88.9139 117.334 88.9139H116.265C115.898 88.9139 115.623 88.8222 115.44 88.6083C115.256 88.425 115.104 88.15 115.012 87.7833L114.767 86.9583C114.737 86.8055 114.645 86.7444 114.492 86.7444H111.376C111.223 86.7444 111.131 86.8055 111.101 86.9583L110.826 87.8444C110.734 88.1805 110.612 88.425 110.429 88.6083C110.245 88.7917 110.001 88.8833 109.665 88.8833H108.687C108.412 88.8833 108.198 88.7917 108.045 88.6389C107.892 88.5472 107.801 88.3333 107.801 88.0889ZM111.895 84.1472C111.895 84.2694 111.956 84.3 112.079 84.3H113.79C113.912 84.3 113.973 84.2389 113.973 84.1472C113.973 84.1167 113.973 84.0555 113.942 83.9944C113.912 83.9333 113.912 83.8417 113.851 83.7194L113.026 80.8167C112.995 80.725 112.965 80.6639 112.934 80.6639C112.904 80.6639 112.873 80.725 112.842 80.8167L111.987 83.7194C111.956 83.8417 111.926 83.9333 111.895 83.9944C111.865 84.0555 111.895 84.1167 111.895 84.1472Z" fill="#1B72B9"/>
<path d="M119.688 78.525C119.688 78.0666 119.81 77.7305 120.054 77.5166C120.299 77.3027 120.635 77.2111 121.063 77.2111H121.429C121.888 77.2111 122.224 77.3027 122.438 77.5166C122.682 77.7305 122.804 78.0666 122.804 78.525V86.0416C122.804 86.1944 122.865 86.2555 123.018 86.2555H126.104C126.838 86.2555 127.174 86.6527 127.174 87.4166V87.7527C127.174 88.5166 126.807 88.8833 126.104 88.8833H120.849C120.482 88.8833 120.207 88.7611 119.993 88.5472C119.779 88.3333 119.688 88.0583 119.688 87.6916V78.525Z" fill="#1B72B9"/>
</svg>
