<svg width="96" height="100" viewBox="0 0 96 100" fill="none" xmlns="http://www.w3.org/2000/svg">
<path d="M49.8185 34.9252C49.8185 35.9641 49.0241 36.7586 48.0769 36.7586C47.038 36.7586 46.3352 35.9641 46.3352 34.9252C46.3352 33.8863 47.1296 33.0919 48.0769 33.0919C48.9935 33.1836 49.8185 33.978 49.8185 34.9252ZM81.1075 52.7697C81.1075 60.3169 75.0269 66.4586 67.5102 66.4586C60.8491 66.4586 55.2269 61.6919 54.1269 55.1225C53.9741 54.1752 53.913 53.0752 53.9741 51.9752C54.2796 48.4613 52.813 47.0863 52.1408 46.4752L52.0797 46.4141C51.3463 45.6808 50.7658 45.1002 50.338 44.7336C49.9713 44.3669 49.7574 44.153 49.6046 44.0002C47.1296 41.8002 45.5713 40.6391 45.5102 40.6391C37.2602 33.978 34.7546 31.503 34.0213 30.5558C33.8685 30.3419 33.7157 30.1891 33.5019 29.9752C20.6991 16.8974 22.013 2.53631 22.013 1.95575C22.0741 1.3752 22.4407 0.916865 22.9602 0.702976C23.4796 0.550199 24.0602 0.702975 24.488 1.06964L54.5546 33.4586L54.6158 33.5197C54.6158 33.5197 55.288 34.3141 57.1824 35.628C59.963 37.6141 63.1102 38.6224 66.2574 38.7141H66.4102C74.0797 38.7447 81.1075 45.4669 81.1075 52.7697ZM78.2658 52.7697C78.2658 47.0558 72.4908 41.6475 66.4102 41.6475H66.2574C62.5297 41.6475 58.8019 40.3947 55.5935 38.0725C53.5463 36.6058 52.7519 35.6586 52.5074 35.4447L25.0074 5.83631C25.4352 10.6641 27.4824 19.6474 35.6102 27.9891C35.8241 28.203 36.038 28.4169 36.2824 28.7224C36.7102 29.2419 38.7574 31.4419 47.313 38.378C47.313 38.378 48.9324 39.5391 51.5602 41.8919C51.713 42.0447 51.988 42.3197 52.4463 42.6863C52.813 43.053 53.3935 43.6336 54.1269 44.3669L54.188 44.428C54.9213 45.1613 57.2741 47.3613 56.9074 52.2502C56.8463 53.1363 56.9074 53.9308 56.9685 54.6641C57.8547 59.8586 62.3158 63.5864 67.5713 63.5864C73.438 63.6169 78.2658 58.6975 78.2658 52.7697ZM75.3936 52.7697C75.3936 57.1697 71.8797 60.6836 67.4797 60.6836C63.1713 60.6836 59.5658 57.1086 59.5658 52.7697C59.5658 48.3697 63.0797 44.8558 67.4797 44.8558C71.8186 44.8863 75.3936 48.4002 75.3936 52.7697ZM72.5519 52.7697C72.5519 49.9891 70.2908 47.728 67.5102 47.728C64.7297 47.728 62.4685 49.9891 62.4685 52.7697C62.4685 55.5502 64.7297 57.8114 67.5102 57.8114C70.2908 57.8114 72.5519 55.5502 72.5519 52.7697ZM43.4324 43.2669C43.1269 43.5725 42.7602 43.9391 42.3324 44.3669L42.2713 44.428C41.538 45.1613 39.1852 47.3613 39.5519 52.2502C39.613 53.1363 39.5519 53.9308 39.4908 54.6641C38.6046 59.8586 34.1435 63.5864 28.888 63.5864C22.9602 63.5864 18.1324 58.7586 18.1324 52.7697C18.1324 47.0558 23.9074 41.6475 29.988 41.6475H30.1407C32.7074 41.6475 35.2741 41.0669 37.688 39.9669C38.4213 39.6002 38.7269 38.8058 38.4213 38.0725C38.0546 37.3391 37.2602 37.0336 36.5269 37.3391C34.4796 38.2863 32.3713 38.7141 30.1713 38.8058H30.1102C22.3491 38.7447 15.3213 45.4669 15.3213 52.7697C15.3213 60.3169 21.4018 66.4586 28.9185 66.4586C35.5796 66.4586 41.2019 61.6919 42.3019 55.1225C42.4546 54.1752 42.5158 53.0752 42.4546 51.9752C42.1491 48.4613 43.6158 47.0863 44.288 46.4752L44.3491 46.4141C44.7769 45.9863 45.1435 45.6197 45.4491 45.3141C46.0296 44.7336 46.0296 43.8475 45.4491 43.2669C44.8991 42.7475 44.0435 42.6863 43.4324 43.2669ZM52.8741 25.728L71.3908 5.83631C70.963 10.6641 68.9158 19.6474 60.788 27.9891C60.5741 28.203 60.3602 28.5086 60.1158 28.7224C59.9019 28.9363 59.3213 29.6697 57.5491 31.1974C56.9685 31.7169 56.8769 32.6641 57.3963 33.2447C57.7019 33.5502 58.0685 33.7641 58.4963 33.7641C58.863 33.7641 59.1685 33.6113 59.4435 33.3974C60.8185 32.1447 61.7963 31.1974 62.2852 30.6169C62.438 30.403 62.5908 30.2502 62.8047 30.0363C75.6074 16.8669 74.3547 2.53631 74.2936 1.95575C74.2324 1.3752 73.8658 0.916865 73.3463 0.702976C72.8269 0.550199 72.2463 0.702975 71.8185 1.06964L50.7658 23.7419C50.2463 24.3224 50.2463 25.2085 50.8269 25.7891C51.4991 26.3697 52.3546 26.3085 52.8741 25.728ZM28.888 44.8863C33.1963 44.8863 36.8019 48.4613 36.8019 52.8002C36.8019 57.2002 33.288 60.7141 28.888 60.7141C24.488 60.7141 21.0046 57.078 21.0046 52.7697C21.0046 48.4002 24.5796 44.8863 28.888 44.8863ZM28.888 47.728C26.1074 47.728 23.8463 49.9891 23.8463 52.7697C23.8463 55.5502 26.1074 57.8114 28.888 57.8114C31.6685 57.8114 33.9296 55.5502 33.9296 52.7697C33.9296 49.9891 31.6685 47.728 28.888 47.728Z" fill="#EA6087"/>
<path d="M0.563758 72.9975C0.563758 72.6613 0.68598 72.3558 0.899869 72.1419C1.11376 71.928 1.38876 71.8058 1.75543 71.8058H7.49988C8.20265 71.8058 8.53876 72.1725 8.53876 72.9363V73.2725C8.53876 74.0058 8.20265 74.3419 7.49988 74.3419H3.89432C3.74154 74.3419 3.68043 74.403 3.68043 74.5558V76.1141C3.68043 76.2669 3.74154 76.328 3.89432 76.328H5.81932C6.5221 76.328 6.85821 76.6947 6.85821 77.428V77.7641C6.85821 78.4975 6.5221 78.8336 5.81932 78.8336H3.89432C3.74154 78.8336 3.68043 78.8947 3.68043 79.0475V80.6975C3.68043 80.8502 3.74154 80.9113 3.89432 80.9113H7.74432C8.4471 80.9113 8.78321 81.278 8.78321 82.0419V82.378C8.78321 83.1114 8.4471 83.4475 7.74432 83.4475H1.72487C1.38876 83.4475 1.0832 83.3252 0.869314 83.1113C0.655425 82.8975 0.533203 82.6225 0.533203 82.2558V72.9975H0.563758Z" fill="#EA6087"/>
<path d="M9.69922 82.2558C9.69922 82.1641 9.69922 82.103 9.72977 82.0113C9.76033 81.9197 9.76033 81.828 9.79089 81.7363L9.852 81.4613C9.94366 81.2169 10.0353 81.0336 10.1881 80.9113C10.3409 80.7891 10.5242 80.728 10.7687 80.728C10.8298 80.728 10.9214 80.728 11.0131 80.7586C11.1048 80.7891 11.1964 80.8197 11.2881 80.8197C11.5937 80.9113 11.8992 81.003 12.2353 81.0641C12.5714 81.1252 12.9076 81.1558 13.2437 81.1558C13.6409 81.1558 13.977 81.0947 14.1909 80.9724C14.4048 80.8502 14.527 80.6669 14.527 80.3613C14.527 80.0863 14.4659 79.8724 14.3131 79.7502C14.1603 79.5974 13.9464 79.4752 13.6409 79.353L12.327 78.8336C11.5326 78.528 10.8909 78.1002 10.402 77.5197C9.94366 76.9697 9.69922 76.2058 9.69922 75.2891C9.69922 74.7085 9.79089 74.1891 10.0048 73.7308C10.2187 73.2724 10.4937 72.8752 10.8603 72.5697C11.227 72.2641 11.6548 72.0197 12.1437 71.8669C12.6326 71.7141 13.152 71.6224 13.702 71.6224C14.1603 71.6224 14.6187 71.653 15.077 71.6836C15.5353 71.7447 15.9326 71.8363 16.3298 71.9585C16.8492 72.1419 17.1242 72.478 17.1242 72.9363C17.1242 73.028 17.1242 73.0891 17.1242 73.1502C17.1242 73.2113 17.0937 73.303 17.0631 73.4558L17.002 73.7308C16.9103 74.0058 16.7881 74.1891 16.6353 74.3113C16.4826 74.4336 16.2992 74.4947 16.0548 74.4947C15.9937 74.4947 15.902 74.4947 15.8409 74.4641C15.7798 74.4641 15.6881 74.4336 15.5964 74.403C15.3214 74.3419 15.0464 74.2502 14.7714 74.2197C14.4964 74.1585 14.2214 74.128 13.977 74.128C13.6409 74.128 13.3659 74.1891 13.1826 74.3113C12.9992 74.4336 12.9076 74.6474 12.9076 74.9224C12.9076 75.228 12.9992 75.4419 13.1826 75.5947C13.3659 75.7169 13.6103 75.8697 13.977 75.9919L15.5353 76.6335C15.902 76.7863 16.2076 76.9391 16.5131 77.153C16.7881 77.3363 17.0631 77.5808 17.2464 77.8252C17.4603 78.0697 17.6131 78.3752 17.7048 78.7113C17.827 79.0474 17.8576 79.4141 17.8576 79.8419C17.8576 80.4836 17.7353 81.0336 17.5214 81.5224C17.3076 82.0113 17.002 82.4086 16.6048 82.7141C16.2076 83.0197 15.7187 83.2641 15.1687 83.4169C14.6187 83.5697 14.0076 83.6613 13.3353 83.6613C12.7853 83.6613 12.2964 83.6308 11.8076 83.5391C11.3187 83.4474 10.9214 83.3558 10.5242 83.203C10.2492 83.1113 10.0659 82.9891 9.91311 82.8363C9.76033 82.6836 9.69922 82.5002 9.69922 82.2558Z" fill="#EA6087"/>
<path d="M21.2192 74.6169C21.2192 74.4641 21.1581 74.403 21.0053 74.403H19.3553C18.6525 74.403 18.3164 74.0058 18.3164 73.2419V72.9057C18.3164 72.1724 18.6525 71.8363 19.3553 71.8363H26.2609C26.9636 71.8363 27.2997 72.2335 27.2997 72.9974V73.3335C27.2997 74.0669 26.9636 74.403 26.2609 74.403H24.5497C24.397 74.403 24.3359 74.4641 24.3359 74.6169V82.1946C24.3359 82.653 24.2136 82.9891 23.9692 83.203C23.7247 83.4169 23.3886 83.5085 22.9609 83.5085H22.5942C22.1359 83.5085 21.7997 83.4169 21.5859 83.203C21.3414 82.9891 21.2192 82.653 21.2192 82.1946V74.6169Z" fill="#EA6087"/>
<path d="M28.5225 73.089C28.5225 72.6307 28.6447 72.2946 28.8891 72.0807C29.1336 71.8668 29.4697 71.7751 29.8975 71.7751H30.2641C30.7225 71.7751 31.0586 71.8668 31.2725 72.0807C31.5169 72.2946 31.6391 72.6307 31.6391 73.089V75.9613C31.6391 76.114 31.7002 76.1751 31.853 76.1751H34.603C34.7558 76.1751 34.8169 76.114 34.8169 75.9613V73.089C34.8169 72.6307 34.9391 72.2946 35.1836 72.0807C35.428 71.8668 35.7641 71.7751 36.1919 71.7751H36.5586C37.0169 71.7751 37.353 71.8668 37.5669 72.0807C37.8114 72.2946 37.9336 72.6307 37.9336 73.089V82.164C37.9336 82.6224 37.8114 82.9585 37.5669 83.1724C37.3225 83.3863 36.9864 83.4779 36.5586 83.4779H36.1919C35.7336 83.4779 35.3975 83.3863 35.1836 83.1724C34.9391 82.9585 34.8169 82.6224 34.8169 82.164V78.9863C34.8169 78.8335 34.7558 78.7724 34.603 78.7724H31.853C31.7002 78.7724 31.6391 78.8335 31.6391 78.9863V82.164C31.6391 82.6224 31.5169 82.9585 31.2725 83.1724C31.028 83.3863 30.6919 83.4779 30.2641 83.4779H29.8975C29.4391 83.4779 29.103 83.3863 28.8891 83.1724C28.6447 82.9585 28.5225 82.6224 28.5225 82.164V73.089Z" fill="#EA6087"/>
<path d="M40.2861 72.9974C40.2861 72.6613 40.4084 72.3557 40.6222 72.1418C40.8361 71.928 41.1111 71.8057 41.4778 71.8057H47.2222C47.925 71.8057 48.2611 72.1724 48.2611 72.9363V73.2724C48.2611 74.0057 47.925 74.3418 47.2222 74.3418H43.6167C43.4639 74.3418 43.4028 74.403 43.4028 74.5557V76.1141C43.4028 76.2669 43.4639 76.328 43.6167 76.328H45.5417C46.2445 76.328 46.5806 76.6946 46.5806 77.428V77.7641C46.5806 78.4974 46.2445 78.8335 45.5417 78.8335H43.6167C43.4639 78.8335 43.4028 78.8946 43.4028 79.0474V80.6974C43.4028 80.8502 43.4639 80.9113 43.6167 80.9113H47.4667C48.1695 80.9113 48.5056 81.278 48.5056 82.0419V82.378C48.5056 83.1113 48.1695 83.4474 47.4667 83.4474H41.4778C41.1417 83.4474 40.8361 83.3252 40.6222 83.1113C40.4084 82.8974 40.2861 82.6224 40.2861 82.2557V72.9974ZM42.5167 70.9807C42.1806 70.9807 42.0278 70.7668 42.0278 70.3696V70.1557C42.0278 69.8807 42.0889 69.6668 42.1806 69.5141C42.2722 69.3613 42.4556 69.2391 42.7 69.1474L46.0611 67.6807C46.1834 67.6196 46.2445 67.5891 46.3361 67.5585C46.3972 67.528 46.4889 67.528 46.55 67.528C46.8861 67.528 47.0695 67.7724 47.0695 68.2613V68.6891C47.0695 69.0252 47.0084 69.2696 46.9167 69.4835C46.7945 69.6974 46.6111 69.8502 46.275 69.9418L43.2806 70.8585C43.1584 70.9196 43.0361 70.9502 42.9139 70.9807C42.7611 70.9502 42.6389 70.9807 42.5167 70.9807Z" fill="#EA6087"/>
<path d="M51.8969 74.6169C51.8969 74.4641 51.8358 74.403 51.683 74.403H50.033C49.3303 74.403 48.9941 74.0058 48.9941 73.2419V72.9057C48.9941 72.1724 49.3303 71.8363 50.033 71.8363H56.9386C57.6414 71.8363 57.9775 72.2335 57.9775 72.9974V73.3335C57.9775 74.0669 57.6414 74.403 56.9386 74.403H55.2275C55.0747 74.403 55.0136 74.4641 55.0136 74.6169V82.1946C55.0136 82.653 54.8914 82.9891 54.6469 83.203C54.4025 83.4169 54.0664 83.5085 53.6386 83.5085H53.2719C52.8136 83.5085 52.4775 83.4169 52.2636 83.203C52.0191 82.9891 51.8969 82.653 51.8969 82.1946V74.6169Z" fill="#EA6087"/>
<path d="M59.2295 73.089C59.2295 72.6307 59.3517 72.2946 59.5962 72.0807C59.8406 71.8668 60.1767 71.7751 60.6045 71.7751H60.9712C61.4295 71.7751 61.7656 71.8668 61.9795 72.0807C62.2239 72.2946 62.3462 72.6307 62.3462 73.089V82.164C62.3462 82.6224 62.2239 82.9585 61.9795 83.1724C61.735 83.3863 61.3989 83.4779 60.9712 83.4779H60.6045C60.1462 83.4779 59.81 83.3863 59.5962 83.1724C59.3517 82.9585 59.2295 82.6224 59.2295 82.164V73.089Z" fill="#EA6087"/>
<path d="M68.3968 83.6308C67.7857 83.5697 67.2051 83.4169 66.7162 83.203C66.1968 82.9586 65.769 82.6224 65.4023 82.1336C65.0357 81.6752 64.7607 81.0641 64.5468 80.3308C64.3329 79.5974 64.2412 78.7113 64.2412 77.6419C64.2412 76.5113 64.394 75.5641 64.669 74.8002C64.944 74.0363 65.3107 73.3947 65.7995 72.9363C66.2579 72.4474 66.8079 72.1113 67.419 71.928C68.0301 71.7141 68.6412 71.6224 69.3134 71.6224C70.0468 71.6224 70.6884 71.7141 71.2996 71.8974C71.9107 72.0808 72.4301 72.4169 72.8884 72.8752C73.3468 73.3336 73.6829 73.9447 73.9579 74.7391C74.2329 75.5336 74.3246 76.4808 74.3246 77.6724C74.3246 78.4363 74.2634 79.1086 74.1412 79.7197C74.019 80.3308 73.8357 80.8502 73.5912 81.3086C73.3468 81.7669 73.0718 82.1336 72.7662 82.4391C72.4301 82.7447 72.0634 83.0197 71.6662 83.203C71.6051 83.2336 71.6051 83.2641 71.6051 83.2947C71.6051 83.3252 71.6357 83.3558 71.6662 83.4169L73.3468 85.678C73.469 85.8308 73.4995 86.0141 73.4995 86.1363C73.4995 86.3197 73.4384 86.4724 73.2857 86.5947C73.1329 86.7169 72.9496 86.778 72.6746 86.778H71.7273C71.3607 86.778 71.0551 86.7169 70.8412 86.5947C70.6273 86.4724 70.444 86.2891 70.2607 86.0752L68.7329 83.8141C68.6718 83.7224 68.5495 83.6613 68.3968 83.6308ZM69.2523 81.1558C69.5884 81.1558 69.8634 81.1252 70.0773 81.0336C70.2912 80.9724 70.5051 80.7891 70.6579 80.5447C70.8107 80.3002 70.9023 79.9336 70.994 79.4752C71.0551 79.0169 71.0857 78.4058 71.0857 77.6113C71.0857 76.8474 71.0551 76.2363 70.994 75.778C70.9329 75.3197 70.8107 74.953 70.6579 74.7086C70.5051 74.4641 70.3218 74.3113 70.0773 74.2197C69.8634 74.1585 69.5579 74.0974 69.2523 74.0974C68.9468 74.0974 68.6412 74.128 68.4273 74.2197C68.2134 74.2808 67.9995 74.4641 67.8468 74.7086C67.694 74.953 67.6023 75.3197 67.5107 75.778C67.4496 76.2363 67.419 76.8474 67.419 77.6113C67.419 78.4058 67.4496 79.0169 67.5107 79.4752C67.5718 79.9336 67.694 80.2697 67.8468 80.5447C67.9995 80.7891 68.1829 80.9419 68.4273 81.0336C68.6412 81.0947 68.9162 81.1558 69.2523 81.1558Z" fill="#EA6087"/>
<path d="M75.9436 73.089C75.9436 72.6307 76.0659 72.2946 76.3103 72.0807C76.5547 71.8668 76.8909 71.7751 77.3186 71.7751H77.6853C78.1436 71.7751 78.4797 71.8668 78.6936 72.0807C78.9381 72.2946 79.0603 72.6307 79.0603 73.089V78.9251C79.0603 79.3835 79.0909 79.7502 79.152 80.0557C79.2131 80.3307 79.3048 80.5752 79.427 80.7279C79.5492 80.8807 79.7325 81.0029 79.9464 81.0335C80.1603 81.0946 80.4047 81.1252 80.6797 81.1252C80.9547 81.1252 81.2298 81.0946 81.4131 81.0335C81.627 80.9724 81.7797 80.8807 81.902 80.7279C82.0242 80.5752 82.1159 80.3613 82.177 80.0557C82.2381 79.7807 82.2686 79.3835 82.2686 78.9251V73.089C82.2686 72.6307 82.3909 72.2946 82.6353 72.0807C82.8798 71.8668 83.2159 71.7751 83.6436 71.7751H84.0103C84.4686 71.7751 84.8048 71.8668 85.0186 72.0807C85.2631 72.2946 85.3853 72.6307 85.3853 73.089V79.2002C85.3853 80.1168 85.2631 80.8502 84.9881 81.4307C84.7131 82.0113 84.3464 82.4696 83.9186 82.8057C83.4603 83.1418 82.9714 83.3863 82.3909 83.5085C81.8409 83.6307 81.2603 83.6918 80.6492 83.6918C80.0075 83.6918 79.3964 83.6307 78.8159 83.539C78.2353 83.4168 77.7464 83.2029 77.3186 82.8974C76.8909 82.5918 76.5547 82.1335 76.2797 81.5529C76.0047 80.9724 75.9131 80.2085 75.9131 79.2307V73.089H75.9436Z" fill="#EA6087"/>
<path d="M87.6162 72.9975C87.6162 72.6613 87.7384 72.3558 87.9523 72.1419C88.1662 71.928 88.4412 71.8058 88.8079 71.8058H94.5523C95.2551 71.8058 95.5912 72.1725 95.5912 72.9363V73.2725C95.5912 74.0058 95.2551 74.3419 94.5523 74.3419H90.9773C90.8245 74.3419 90.7634 74.403 90.7634 74.5558V76.1141C90.7634 76.2669 90.8245 76.328 90.9773 76.328H92.9023C93.6051 76.328 93.9412 76.6947 93.9412 77.428V77.7641C93.9412 78.4975 93.6051 78.8336 92.9023 78.8336H90.9773C90.8245 78.8336 90.7634 78.8947 90.7634 79.0475V80.6975C90.7634 80.8502 90.8245 80.9113 90.9773 80.9113H94.8273C95.5301 80.9113 95.8662 81.278 95.8662 82.0419V82.378C95.8662 83.1114 95.5301 83.4475 94.8273 83.4475H88.8384C88.5023 83.4475 88.1968 83.3252 87.9829 83.1113C87.769 82.8975 87.6468 82.6225 87.6468 82.2558V72.9975H87.6162Z" fill="#EA6087"/>
<path d="M10.2803 93.2252C10.2803 92.0335 10.4331 91.0557 10.7386 90.2918C11.0442 89.528 11.4414 88.8863 11.9303 88.428C12.4192 87.9696 12.9997 87.6335 13.6108 87.4502C14.2525 87.2668 14.8942 87.1752 15.5358 87.1752C16.3303 87.1752 17.0331 87.2668 17.6136 87.4502C18.1636 87.6335 18.4386 87.9391 18.4386 88.3668C18.4386 88.5196 18.4081 88.703 18.3469 88.9168L18.2858 89.1613C18.1942 89.4363 18.0719 89.6502 17.9192 89.7724C17.7664 89.9252 17.5831 89.9863 17.3081 89.9863C17.2469 89.9863 17.1858 89.9863 17.0942 89.9557C17.0025 89.9252 16.9414 89.9252 16.8497 89.8946C16.4525 89.803 16.0858 89.7418 15.6886 89.7418C15.2914 89.7418 14.9858 89.803 14.7108 89.8946C14.4358 89.9863 14.1914 90.1696 14.0386 90.4141C13.8858 90.6585 13.7331 91.0252 13.6414 91.4835C13.5497 91.9418 13.5192 92.5224 13.5192 93.1946C13.5192 93.8974 13.5497 94.478 13.6414 94.9363C13.7331 95.3946 13.8553 95.7307 14.0386 96.0057C14.2219 96.2502 14.4358 96.4335 14.7108 96.5252C14.9858 96.6168 15.3219 96.678 15.6886 96.678C15.9942 96.678 16.2692 96.6474 16.5136 96.6169C16.7581 96.5863 17.0025 96.5252 17.2164 96.4335C17.4303 96.3724 17.6136 96.3113 17.7664 96.3113C17.9803 96.3113 18.1636 96.3724 18.3164 96.4946C18.4386 96.6168 18.5608 96.8002 18.6219 97.0446L18.6831 97.2891C18.7136 97.4113 18.7442 97.5335 18.7442 97.5946C18.7442 97.6557 18.7747 97.7474 18.7747 97.8391C18.7747 98.053 18.6831 98.2363 18.5303 98.3891C18.3775 98.5419 18.1636 98.6641 17.8886 98.7863C17.5525 98.9085 17.1553 99.0307 16.7581 99.1224C16.3608 99.2141 15.9636 99.2446 15.5358 99.2446C14.7719 99.2446 14.0692 99.153 13.4275 99.0002C12.7858 98.8474 12.2053 98.5113 11.7469 98.0835C11.2581 97.6252 10.8914 97.0141 10.6469 96.2502C10.4025 95.4557 10.2803 94.4474 10.2803 93.2252Z" fill="#EA6087"/>
<path d="M24.8246 99.2753C24.0913 99.2753 23.4496 99.1836 22.8385 99.0003C22.2274 98.8169 21.7079 98.4808 21.2496 98.0225C20.7913 97.5641 20.4551 96.953 20.1801 96.1586C19.9357 95.3642 19.8135 94.3864 19.8135 93.2253C19.8135 92.0947 19.9663 91.1475 20.2413 90.3836C20.5163 89.6197 20.8829 88.978 21.3718 88.5197C21.8301 88.0308 22.3801 87.6947 22.9913 87.5114C23.6024 87.2975 24.2135 87.2058 24.8857 87.2058C25.619 87.2058 26.2607 87.2975 26.8718 87.4808C27.4829 87.6641 28.0024 88.0003 28.4607 88.4586C28.919 88.9169 29.2551 89.528 29.5301 90.3225C29.8051 91.1169 29.8968 92.0642 29.8968 93.2558C29.8968 94.3864 29.744 95.3336 29.469 96.0975C29.194 96.8614 28.8274 97.503 28.3385 97.9614C27.8801 98.4503 27.3301 98.7864 26.719 98.9697C26.1079 99.153 25.4663 99.2753 24.8246 99.2753ZM24.8246 96.7392C25.1607 96.7392 25.4357 96.7086 25.6496 96.6169C25.8635 96.5558 26.0774 96.3725 26.2301 96.128C26.3829 95.8836 26.4746 95.5169 26.5663 95.0586C26.6274 94.6003 26.6579 93.9892 26.6579 93.1947C26.6579 92.4308 26.6274 91.8197 26.5663 91.3614C26.5051 90.903 26.3829 90.5364 26.2301 90.2919C26.0774 90.0475 25.894 89.8947 25.6496 89.803C25.4357 89.7419 25.1301 89.6808 24.8246 89.6808C24.519 89.6808 24.2135 89.7114 23.9996 89.803C23.7857 89.8641 23.5718 90.0475 23.419 90.2919C23.2663 90.5364 23.1746 90.903 23.0829 91.3614C23.0218 91.8197 22.9913 92.4308 22.9913 93.1947C22.9913 93.9892 23.0218 94.6003 23.0829 95.0586C23.144 95.5169 23.2663 95.853 23.419 96.128C23.5718 96.3725 23.7551 96.5253 23.9996 96.6169C24.2135 96.678 24.4885 96.7392 24.8246 96.7392Z" fill="#EA6087"/>
<path d="M31.7002 88.6724C31.7002 88.2141 31.8224 87.878 32.0669 87.6641C32.3113 87.4502 32.6474 87.3585 33.0752 87.3585H33.4419C33.9002 87.3585 34.2363 87.4502 34.4502 87.6641C34.6946 87.878 34.8169 88.2141 34.8169 88.6724V97.7474C34.8169 98.2058 34.6946 98.5419 34.4502 98.7558C34.2058 98.9696 33.8696 99.0613 33.4419 99.0613H33.0752C32.6169 99.0613 32.2808 98.9696 32.0669 98.7558C31.8224 98.5419 31.7002 98.2058 31.7002 97.7474V88.6724Z" fill="#EA6087"/>
<path d="M37.1992 88.5807C37.1992 88.2446 37.3214 87.939 37.5353 87.7252C37.7492 87.5113 38.0242 87.389 38.3909 87.389H43.8603C44.5631 87.389 44.8992 87.7557 44.8992 88.5196V88.8557C44.8992 89.589 44.5631 89.9251 43.8603 89.9251H40.5298C40.377 89.9251 40.3159 89.9863 40.3159 90.139V92.1863C40.3159 92.339 40.377 92.4002 40.5298 92.4002H42.3631C43.0659 92.4002 43.402 92.7668 43.402 93.5002V93.8363C43.402 94.5696 43.0659 94.9057 42.3631 94.9057H40.5298C40.377 94.9057 40.3159 94.9668 40.3159 95.1196V97.7474C40.3159 98.2057 40.1937 98.5418 39.9492 98.7557C39.7048 98.9696 39.3687 99.0613 38.9409 99.0613H38.5742C38.1159 99.0613 37.7798 98.9696 37.5659 98.7557C37.3214 98.5418 37.1992 98.2057 37.1992 97.7474V88.5807Z" fill="#EA6087"/>
<path d="M46.1221 88.5807C46.1221 88.2446 46.2443 87.939 46.4582 87.7252C46.6721 87.5113 46.9471 87.389 47.3137 87.389H52.7832C53.486 87.389 53.8221 87.7557 53.8221 88.5196V88.8557C53.8221 89.589 53.486 89.9251 52.7832 89.9251H49.4526C49.2999 89.9251 49.2387 89.9863 49.2387 90.139V92.1863C49.2387 92.339 49.2999 92.4002 49.4526 92.4002H51.286C51.9887 92.4002 52.3249 92.7668 52.3249 93.5002V93.8363C52.3249 94.5696 51.9887 94.9057 51.286 94.9057H49.4526C49.2999 94.9057 49.2387 94.9668 49.2387 95.1196V97.7474C49.2387 98.2057 49.1165 98.5418 48.8721 98.7557C48.6276 98.9696 48.2915 99.0613 47.8637 99.0613H47.4971C47.0387 99.0613 46.7026 98.9696 46.4887 98.7557C46.2443 98.5418 46.1221 98.2057 46.1221 97.7474V88.5807Z" fill="#EA6087"/>
<path d="M54.8909 88.6724C54.8909 88.2141 55.0131 87.878 55.2576 87.6641C55.502 87.4502 55.8381 87.3585 56.2659 87.3585H56.6326C57.0909 87.3585 57.427 87.4502 57.6409 87.6641C57.8854 87.878 58.0076 88.2141 58.0076 88.6724V94.5085C58.0076 94.9669 58.0381 95.3335 58.0992 95.6391C58.1604 95.9141 58.252 96.1585 58.3742 96.3113C58.4965 96.4641 58.6798 96.5863 58.8937 96.6169C59.1076 96.678 59.352 96.7085 59.627 96.7085C59.902 96.7085 60.177 96.678 60.3604 96.6169C60.5742 96.5558 60.727 96.4641 60.8492 96.3113C60.9715 96.1585 61.0631 95.9446 61.1242 95.6391C61.1854 95.3641 61.2159 94.9669 61.2159 94.5085V88.6724C61.2159 88.2141 61.3381 87.878 61.5826 87.6641C61.827 87.4502 62.1631 87.3585 62.5909 87.3585H62.9576C63.4159 87.3585 63.752 87.4502 63.9659 87.6641C64.2104 87.878 64.3326 88.2141 64.3326 88.6724V94.7835C64.3326 95.7002 64.2104 96.4335 63.9354 97.0141C63.6604 97.5946 63.2937 98.053 62.8659 98.3891C62.4076 98.7252 61.9187 98.9696 61.3381 99.0919C60.7881 99.2141 60.2076 99.2752 59.5965 99.2752C58.9548 99.2752 58.3437 99.2141 57.7631 99.1224C57.1826 99.0002 56.6937 98.7863 56.2659 98.4807C55.8381 98.1752 55.502 97.7169 55.227 97.1363C54.952 96.5557 54.8604 95.7919 54.8604 94.8141V88.6724H54.8909Z" fill="#EA6087"/>
<path d="M66.5635 88.5807C66.5635 88.2446 66.6857 87.939 66.8996 87.7252C67.1135 87.5113 67.3885 87.389 67.7551 87.389H71.2079C72.644 87.389 73.6829 87.7251 74.3246 88.3974C74.9663 89.0696 75.3024 90.0168 75.3024 91.239C75.3024 91.9724 75.1801 92.614 74.9357 93.164C74.6913 93.714 74.294 94.1418 73.744 94.4474C73.6829 94.4779 73.6524 94.539 73.6524 94.5696C73.6524 94.6002 73.6829 94.6307 73.7135 94.7224L75.5774 97.7779C75.6996 97.9613 75.7302 98.1446 75.7302 98.3279C75.7302 98.5418 75.669 98.6946 75.5163 98.8474C75.3635 99.0002 75.1496 99.0613 74.844 99.0613H73.6829C73.3163 99.0613 73.0413 98.9696 72.8274 98.7863C72.6135 98.6029 72.4301 98.3585 72.2774 98.0529L70.7496 95.2724C70.6885 95.1502 70.5968 95.089 70.4746 95.089H69.9246C69.7718 95.089 69.7107 95.1502 69.7107 95.3029V97.7474C69.7107 98.2057 69.5885 98.5418 69.344 98.7557C69.0996 98.9696 68.7635 99.0613 68.3357 99.0613H67.9996C67.5412 99.0613 67.2051 98.9696 66.9913 98.7557C66.7468 98.5418 66.6246 98.2057 66.6246 97.7474V88.5807H66.5635ZM70.444 92.5835C70.6885 92.5835 70.9329 92.5835 71.1163 92.5529C71.3301 92.5224 71.4829 92.4613 71.6357 92.4002C71.7885 92.3085 71.8801 92.1863 71.9718 92.0029C72.0635 91.8196 72.094 91.5752 72.094 91.2696C72.094 90.964 72.0635 90.7196 71.9718 90.5363C71.8801 90.3529 71.7885 90.2307 71.6357 90.139C71.4829 90.0474 71.3301 89.9863 71.1163 89.9557C70.9024 89.9251 70.6885 89.9251 70.444 89.9251H69.8635C69.7107 89.9251 69.6496 89.9863 69.6496 90.139V92.3696C69.6496 92.5224 69.7107 92.5835 69.8635 92.5835H70.444Z" fill="#EA6087"/>
<path d="M77.3799 88.5807C77.3799 88.2446 77.5021 87.939 77.716 87.7252C77.9299 87.5113 78.2049 87.389 78.5715 87.389H84.316C85.0188 87.389 85.3549 87.7557 85.3549 88.5196V88.8557C85.3549 89.589 85.0188 89.9251 84.316 89.9251H80.741C80.5882 89.9251 80.5271 89.9863 80.5271 90.139V91.6974C80.5271 91.8502 80.5882 91.9113 80.741 91.9113H82.666C83.3688 91.9113 83.7049 92.2779 83.7049 93.0113V93.3474C83.7049 94.0807 83.3688 94.4168 82.666 94.4168H80.741C80.5882 94.4168 80.5271 94.4779 80.5271 94.6307V96.2807C80.5271 96.4335 80.5882 96.4946 80.741 96.4946H84.5604C85.2632 96.4946 85.5993 96.8613 85.5993 97.6252V97.9613C85.5993 98.6946 85.2632 99.0307 84.5604 99.0307H78.5715C78.2354 99.0307 77.9299 98.9085 77.716 98.6946C77.5021 98.4807 77.3799 98.2057 77.3799 97.839V88.5807Z" fill="#EA6087"/>
</svg>
