<svg width="142" height="102" viewBox="0 0 142 102" fill="none" xmlns="http://www.w3.org/2000/svg">
<path d="M84.5473 37.8666H77.4889C76.6639 20.175 62.1806 6.11941 44.3973 5.72219V2.05552C44.3973 1.13885 43.6639 0.405518 42.7472 0.405518C41.8306 0.405518 41.0972 1.13885 41.0972 2.05552V5.72219C32.6639 6.08885 24.6889 9.57219 18.6695 15.5611C12.65 21.55 9.13612 29.4639 8.70834 37.8666H1.65C0.733334 37.8666 0 38.6 0 39.5167C0 40.4333 0.733334 41.1666 1.65 41.1666H16.5306C16.5306 41.1972 16.5 41.2278 16.5 41.2889L16.225 44.0694C16.0111 45.8111 15.5528 47.6139 14.8195 49.3555C13.475 52.4111 12.8639 55.8028 13.0778 59.1944L13.5667 67.3833L12.5278 67.0472C11.1833 66.6194 9.77778 66.7417 8.52501 67.3833C7.30278 68.025 6.38612 69.125 5.92778 70.4694L4.70556 74.2583C4.46111 75.1444 4.95 76.0611 5.775 76.3361C6.63056 76.5806 7.60834 76.0917 7.85278 75.2667L9.07501 71.4778C9.22778 70.9889 9.5639 70.6222 9.99167 70.3778C10.4195 70.1639 10.9695 70.1028 11.4278 70.2556L14.4833 71.2639C14.575 71.325 14.8195 71.4167 15.0945 71.4167L36.3 78.1389C36.8806 78.2917 37.2472 78.75 37.4306 79.1167C37.6445 79.5139 37.7056 80.0028 37.5528 80.5833L36.85 82.7833L12.8333 75.2056C11.9472 74.9611 11.0306 75.45 10.7556 76.3056C10.5111 77.1917 11 78.1083 11.825 78.3833L37.4 86.45C37.5834 86.5417 37.7667 86.5417 37.9195 86.5417C38.6222 86.5417 39.2639 86.0833 39.5084 85.3806L40.7306 81.5917C41.1889 80.2472 41.0361 78.8417 40.3639 77.6194C39.6917 76.3361 38.6222 75.45 37.3084 75.0833L34.8945 74.2889L45.0084 67.6278C47.3611 66.1 49.8361 64.2056 52.525 61.8222L71.3167 45.0167C71.9889 44.4055 72.3862 43.4889 72.3862 42.5722C72.3862 42.1444 72.2945 41.7472 72.1112 41.3805H84.5167C85.4334 41.3805 86.1667 40.6472 86.1667 39.7305C86.2278 38.6917 85.4334 37.8666 84.5473 37.8666ZM26.3083 55.6805C27.5 56.8722 29.0889 57.5444 30.7695 57.5444H34.5584C36.7278 57.6055 38.8667 57.025 40.7611 55.8639L63.7084 41.8694C65.3889 40.9222 67.5584 41.1055 69.1473 42.3278C69.1473 42.3583 69.1167 42.3889 69.1167 42.4194C69.1167 42.4194 69.1167 42.4194 69.0862 42.45L50.3556 59.1639C48.2167 61.0889 45.8028 62.9528 43.175 64.725L30.8306 72.8833L16.9278 68.4528L16.3778 59.0417C16.225 56.1694 16.7445 53.2972 17.875 50.7C18.7611 48.6222 19.3417 46.5139 19.525 44.4361L19.8917 41.5639V41.4111L19.9528 41.35C19.9528 41.35 20.0139 41.35 20.0445 41.35C22.6111 42.1139 24.5056 44.5889 24.5056 47.2778V51.25C24.4445 52.9 25.1167 54.4889 26.3083 55.6805ZM38.9278 53.175C37.675 53.9694 36.1778 54.3667 34.4667 54.3667H30.6167C29.8528 54.3667 29.1195 54.0611 28.4778 53.5111C27.9278 52.8694 27.6222 52.1361 27.6222 51.3722V47.3694C27.6222 45.1389 26.7972 42.9389 25.3306 41.2278H58.4528L38.9278 53.175ZM74.0973 37.8666H12.0389C12.8639 21.6722 26.2167 9.02219 42.5334 9.02219H43.6028C59.9195 9.02219 73.2723 21.6722 74.0973 37.8666Z" fill="#A2166B"/>
<path d="M31.5333 12.7805C28.1416 14.1861 24.9027 16.3555 22.2444 19.0444C21.5722 19.7166 21.5722 20.6944 22.2444 21.3666C22.55 21.6722 22.9777 21.8555 23.4055 21.8555C23.8333 21.8555 24.2611 21.6722 24.5666 21.3666C26.95 18.9833 29.7 17.1194 32.7861 15.8361C33.1833 15.6833 33.5194 15.3472 33.6722 14.95C33.8555 14.5527 33.8555 14.0944 33.7027 13.6972C33.3361 12.8722 32.4194 12.475 31.5333 12.7805Z" fill="#A2166B"/>
<path d="M47.2085 74.8999C47.2085 74.4416 47.3307 74.1055 47.5752 73.8916C47.8196 73.6777 48.1557 73.5861 48.5835 73.5861H48.9502C49.4085 73.5861 49.7446 73.6777 49.9585 73.8916C50.2029 74.1055 50.3252 74.4416 50.3252 74.8999V77.8027C50.3252 77.9555 50.3863 78.0166 50.5391 78.0166H53.3196C53.4724 78.0166 53.5335 77.9555 53.5335 77.8027V74.8999C53.5335 74.4416 53.6557 74.1055 53.9002 73.8916C54.1446 73.6777 54.4807 73.5861 54.9085 73.5861H55.2752C55.7335 73.5861 56.0696 73.6777 56.2835 73.8916C56.5279 74.1055 56.6502 74.4416 56.6502 74.8999V84.0055C56.6502 84.4638 56.5279 84.8 56.2835 85.0138C56.0391 85.2277 55.7029 85.3194 55.2752 85.3194H54.9085C54.4502 85.3194 54.1141 85.2277 53.9002 85.0138C53.6557 84.8 53.5335 84.4638 53.5335 84.0055V80.7972C53.5335 80.6444 53.4724 80.5833 53.3196 80.5833H50.5696C50.4168 80.5833 50.3557 80.6444 50.3557 80.7972V84.0055C50.3557 84.4638 50.2335 84.8 49.9891 85.0138C49.7446 85.2277 49.4085 85.3194 48.9807 85.3194H48.6141C48.1557 85.3194 47.8196 85.2277 47.6057 85.0138C47.3613 84.8 47.2391 84.4638 47.2391 84.0055V74.8999H47.2085Z" fill="#A2166B"/>
<path d="M63.5251 85.5027C62.7917 85.5027 62.1195 85.4111 61.5084 85.2277C60.8973 85.0444 60.3473 84.7083 59.9195 84.25C59.4612 83.7916 59.1251 83.1805 58.8501 82.3861C58.5751 81.5916 58.4834 80.6138 58.4834 79.4527C58.4834 78.3222 58.6362 77.3749 58.9112 76.6111C59.1862 75.8472 59.5528 75.2055 60.0417 74.7472C60.5001 74.2583 61.0501 73.9222 61.6612 73.7388C62.2723 73.5249 62.914 73.4333 63.5556 73.4333C64.289 73.4333 64.9612 73.5249 65.5723 73.7083C66.1834 73.8916 66.7334 74.2277 67.1612 74.6861C67.6195 75.1444 67.9556 75.7555 68.2306 76.5499C68.4751 77.3138 68.5973 78.2916 68.5973 79.4833C68.5973 80.6138 68.4445 81.5611 68.1695 82.325C67.8945 83.0888 67.5278 83.7305 67.039 84.1888C66.5806 84.6777 66.0306 85.0138 65.4195 85.1972C64.8084 85.3805 64.1973 85.5027 63.5251 85.5027ZM61.0195 72.6083C60.714 72.6083 60.5612 72.3944 60.5612 71.9666V71.5999C60.5612 71.2944 60.6223 71.0805 60.7445 70.9277C60.8667 70.7749 61.0501 70.6222 61.2945 70.4694L62.6084 69.6749C62.8223 69.5527 62.9751 69.4611 63.1278 69.4305C63.2806 69.3999 63.4028 69.3694 63.5251 69.3694H63.5862C63.7084 69.3694 63.8306 69.3999 63.9834 69.4305C64.1362 69.4611 64.289 69.5527 64.5029 69.6749L65.8167 70.4694C66.0612 70.6222 66.2445 70.7749 66.3667 70.9277C66.489 71.0805 66.5501 71.2944 66.5501 71.5999V71.9666C66.5501 72.3944 66.3973 72.6083 66.0917 72.6083C65.9695 72.6083 65.8473 72.5472 65.664 72.4555L63.9834 71.5083C63.8612 71.4472 63.7695 71.3861 63.7084 71.3555C63.6473 71.3249 63.6167 71.3249 63.5556 71.3249C63.4945 71.3249 63.464 71.3249 63.4028 71.3555C63.3417 71.3861 63.2501 71.4472 63.1278 71.5083L61.4473 72.4555C61.264 72.5472 61.1417 72.6083 61.0195 72.6083ZM63.5251 82.9361C63.8612 82.9361 64.1362 82.9055 64.3501 82.8138C64.564 82.7527 64.7778 82.5694 64.9306 82.325C65.0834 82.0805 65.1751 81.7138 65.2667 81.2555C65.3279 80.7972 65.3584 80.1861 65.3584 79.3916C65.3584 78.6277 65.3279 78.0166 65.2667 77.5277C65.2056 77.0694 65.0834 76.7027 64.9306 76.4583C64.7778 76.2138 64.5945 76.0611 64.3501 75.9694C64.1362 75.9083 63.8306 75.8472 63.5251 75.8472C63.2195 75.8472 62.914 75.8777 62.7001 75.9694C62.4862 76.0305 62.2723 76.2138 62.1195 76.4583C61.9667 76.7027 61.8751 77.0694 61.7834 77.5277C61.7223 77.9861 61.6917 78.5972 61.6917 79.3916C61.6917 80.1861 61.7223 80.7972 61.7834 81.2555C61.8445 81.7138 61.9667 82.0805 62.1195 82.325C62.2723 82.5694 62.4556 82.7222 62.7001 82.8138C62.9445 82.9055 63.2195 82.9361 63.5251 82.9361Z" fill="#A2166B"/>
<path d="M71.9892 76.3972C71.9892 76.2445 71.9281 76.1834 71.7753 76.1834H70.1253C69.4225 76.1834 69.0864 75.7861 69.0864 75.0222V74.6861C69.0864 73.9528 69.4225 73.6167 70.1253 73.6167H77.0614C77.7642 73.6167 78.1003 74.0139 78.1003 74.7778V75.1139C78.1003 75.8473 77.7642 76.2139 77.0614 76.2139H75.3198C75.167 76.2139 75.1059 76.275 75.1059 76.4278V84.0056C75.1059 84.4639 74.9837 84.8 74.7392 85.0139C74.4948 85.2278 74.1586 85.3195 73.7309 85.3195H73.3642C72.9059 85.3195 72.5698 85.2278 72.3559 85.0139C72.1114 84.8 71.9892 84.4639 71.9892 84.0056V76.3972Z" fill="#A2166B"/>
<path d="M79.3225 74.7777C79.3225 74.4416 79.4448 74.1361 79.6587 73.9222C79.8726 73.7083 80.1475 73.5861 80.5142 73.5861H86.2892C86.992 73.5861 87.3281 73.9527 87.3281 74.7166V75.0527C87.3281 75.7861 86.992 76.1222 86.2892 76.1222H82.6531C82.5003 76.1222 82.4392 76.1833 82.4392 76.3361V77.8944C82.4392 78.0472 82.5003 78.1083 82.6531 78.1083H84.5781C85.2809 78.1083 85.617 78.4749 85.617 79.2083V79.5444C85.617 80.2777 85.2809 80.6138 84.5781 80.6138H82.6531C82.5003 80.6138 82.4392 80.6749 82.4392 80.8277V82.4777C82.4392 82.6305 82.5003 82.6916 82.6531 82.6916H86.5031C87.2059 82.6916 87.542 83.0583 87.542 83.8222V84.1583C87.542 84.8916 87.2059 85.2277 86.5031 85.2277H80.4837C80.1475 85.2277 79.842 85.1055 79.6281 84.8916C79.4142 84.6777 79.292 84.4027 79.292 84.0361V74.7777H79.3225Z" fill="#A2166B"/>
<path d="M89.1919 74.8999C89.1919 74.4416 89.3141 74.1055 89.5586 73.8916C89.803 73.6777 90.1391 73.5861 90.5669 73.5861H90.9336C91.3919 73.5861 91.728 73.6777 91.9419 73.8916C92.1863 74.1055 92.3086 74.4416 92.3086 74.8999V82.4166C92.3086 82.5694 92.3697 82.6305 92.5225 82.6305H95.6391C96.3725 82.6305 96.7086 83.0277 96.7086 83.7916V84.1277C96.7086 84.8916 96.3419 85.2583 95.6391 85.2583H90.353C89.9863 85.2583 89.7113 85.1361 89.4975 84.9222C89.2836 84.7083 89.1919 84.4333 89.1919 84.0666V74.8999Z" fill="#A2166B"/>
<path d="M98.0835 74.8999C98.0835 74.4416 98.2057 74.1055 98.4502 73.8916C98.6946 73.6777 99.0307 73.5861 99.4585 73.5861H99.8252C100.284 73.5861 100.62 73.6777 100.833 73.8916C101.078 74.1055 101.2 74.4416 101.2 74.8999V82.4166C101.2 82.5694 101.261 82.6305 101.414 82.6305H104.531C105.264 82.6305 105.6 83.0277 105.6 83.7916V84.1277C105.6 84.8916 105.234 85.2583 104.531 85.2583H99.2446C98.8779 85.2583 98.6029 85.1361 98.3891 84.9222C98.1752 84.7083 98.0835 84.4333 98.0835 84.0666V74.8999Z" fill="#A2166B"/>
<path d="M106.975 74.7777C106.975 74.4416 107.097 74.1361 107.311 73.9222C107.525 73.7083 107.8 73.5861 108.167 73.5861H113.942C114.645 73.5861 114.981 73.9527 114.981 74.7166V75.0527C114.981 75.7861 114.645 76.1222 113.942 76.1222H110.336C110.183 76.1222 110.122 76.1833 110.122 76.3361V77.8944C110.122 78.0472 110.183 78.1083 110.336 78.1083H112.261C112.964 78.1083 113.3 78.4749 113.3 79.2083V79.5444C113.3 80.2777 112.964 80.6138 112.261 80.6138H110.336C110.183 80.6138 110.122 80.6749 110.122 80.8277V82.4777C110.122 82.6305 110.183 82.6916 110.336 82.6916H114.186C114.889 82.6916 115.225 83.0583 115.225 83.8222V84.1583C115.225 84.8916 114.889 85.2277 114.186 85.2277H108.167C107.831 85.2277 107.525 85.1055 107.311 84.8916C107.097 84.6777 106.975 84.4027 106.975 84.0361V74.7777Z" fill="#A2166B"/>
<path d="M116.845 74.7777C116.845 74.4416 116.967 74.1361 117.181 73.9222C117.395 73.7083 117.67 73.5861 118.036 73.5861H121.459C122.895 73.5861 123.934 73.9222 124.575 74.5944C125.217 75.2666 125.553 76.2138 125.553 77.4361C125.553 78.1694 125.431 78.8416 125.186 79.3611C124.942 79.9111 124.545 80.3388 123.995 80.6444C123.934 80.675 123.903 80.7361 123.903 80.7666C123.903 80.7972 123.934 80.8277 123.964 80.9194L125.828 83.975C125.95 84.1583 125.981 84.3416 125.981 84.525C125.981 84.7388 125.92 84.9222 125.767 85.0444C125.614 85.1972 125.4 85.2583 125.095 85.2583H123.903C123.536 85.2583 123.261 85.1666 123.048 84.9833C122.834 84.8 122.65 84.5555 122.498 84.2194L120.97 81.4388C120.909 81.3166 120.817 81.2555 120.695 81.2555H120.145C119.992 81.2555 119.931 81.3166 119.931 81.4694V83.9138C119.931 84.3722 119.809 84.7083 119.564 84.9222C119.32 85.1361 118.984 85.2277 118.556 85.2277H118.22C117.761 85.2277 117.425 85.1361 117.211 84.9222C116.967 84.7083 116.845 84.3722 116.845 83.9138V74.7777ZM120.725 78.7805C120.97 78.7805 121.214 78.7805 121.398 78.7499C121.611 78.7194 121.764 78.6583 121.917 78.5972C122.07 78.5055 122.161 78.3833 122.253 78.2C122.345 78.0166 122.375 77.7722 122.375 77.4666C122.375 77.1611 122.345 76.9166 122.253 76.7333C122.161 76.5499 122.07 76.4277 121.917 76.3361C121.764 76.2444 121.611 76.1833 121.398 76.1527C121.184 76.1222 120.97 76.1222 120.725 76.1222H120.145C119.992 76.1222 119.931 76.1833 119.931 76.3361V78.5666C119.931 78.7194 119.992 78.7805 120.145 78.7805H120.725Z" fill="#A2166B"/>
<path d="M127.722 74.8999C127.722 74.4416 127.844 74.1055 128.089 73.8916C128.333 73.6777 128.669 73.5861 129.097 73.5861H129.464C129.922 73.5861 130.258 73.6777 130.472 73.8916C130.717 74.1055 130.839 74.4416 130.839 74.8999V84.0055C130.839 84.4638 130.717 84.8 130.472 85.0138C130.228 85.2277 129.892 85.3194 129.464 85.3194H129.097C128.639 85.3194 128.303 85.2277 128.089 85.0138C127.844 84.8 127.722 84.4638 127.722 84.0055V74.8999Z" fill="#A2166B"/>
<path d="M133.222 74.7777C133.222 74.4416 133.344 74.1361 133.558 73.9222C133.772 73.7083 134.047 73.5861 134.414 73.5861H140.189C140.892 73.5861 141.228 73.9527 141.228 74.7166V75.0527C141.228 75.7861 140.892 76.1222 140.189 76.1222H136.583C136.431 76.1222 136.369 76.1833 136.369 76.3361V77.8944C136.369 78.0472 136.431 78.1083 136.583 78.1083H138.508C139.211 78.1083 139.547 78.4749 139.547 79.2083V79.5444C139.547 80.2777 139.211 80.6138 138.508 80.6138H136.583C136.431 80.6138 136.369 80.6749 136.369 80.8277V82.4777C136.369 82.6305 136.431 82.6916 136.583 82.6916H140.433C141.136 82.6916 141.472 83.0583 141.472 83.8222V84.1583C141.472 84.8916 141.136 85.2277 140.433 85.2277H134.414C134.078 85.2277 133.772 85.1055 133.558 84.8916C133.344 84.6777 133.222 84.4027 133.222 84.0361V74.7777Z" fill="#A2166B"/>
<path d="M24.5669 90.7584C24.5669 90.4223 24.6891 90.1168 24.903 89.9029C25.1169 89.689 25.3919 89.5668 25.7586 89.5668H29.1808C30.6169 89.5668 31.6558 89.9029 32.2975 90.5751C32.9391 91.2473 33.2752 92.1946 33.2752 93.4168C33.2752 94.1501 33.153 94.8223 32.9086 95.3418C32.6641 95.8918 32.2669 96.3196 31.7169 96.6251C31.6558 96.6557 31.6252 96.7168 31.6252 96.7473C31.6252 96.7779 31.6558 96.8084 31.6863 96.9001L33.5502 99.9557C33.6725 100.139 33.703 100.322 33.703 100.506C33.703 100.72 33.6419 100.903 33.4891 101.025C33.3363 101.178 33.1225 101.239 32.8169 101.239H31.6558C31.2891 101.239 31.0141 101.147 30.8002 100.964C30.5863 100.781 30.403 100.536 30.2502 100.2L28.7225 97.4196C28.6613 97.2973 28.5697 97.2362 28.4475 97.2362H27.8975C27.7447 97.2362 27.6836 97.2973 27.6836 97.4501V99.8946C27.6836 100.353 27.5613 100.689 27.3169 100.903C27.0725 101.117 26.7363 101.208 26.3086 101.208H25.9725C25.5141 101.208 25.178 101.117 24.9641 100.903C24.7197 100.689 24.5974 100.353 24.5974 99.8946V90.7584H24.5669ZM28.4475 94.7612C28.6919 94.7612 28.9363 94.7612 29.1197 94.7307C29.3336 94.7001 29.4863 94.639 29.6391 94.5779C29.7919 94.4862 29.8836 94.364 29.9752 94.1807C30.0669 93.9973 30.0975 93.7529 30.0975 93.4473C30.0975 93.1418 30.0669 92.8973 29.9752 92.714C29.8836 92.5307 29.7919 92.4084 29.6391 92.3168C29.4863 92.2251 29.3336 92.164 29.1197 92.1334C28.9058 92.1029 28.6919 92.1029 28.4475 92.1029H27.8669C27.7141 92.1029 27.653 92.164 27.653 92.3168V94.5473C27.653 94.7001 27.7141 94.7612 27.8669 94.7612H28.4475Z" fill="#A2166B"/>
<path d="M35.4141 90.7584C35.4141 90.4223 35.5363 90.1168 35.7502 89.9029C35.9641 89.689 36.2391 89.5668 36.6057 89.5668H42.3807C43.0835 89.5668 43.4196 89.9334 43.4196 90.6973V91.0334C43.4196 91.7668 43.0835 92.1029 42.3807 92.1029H38.7752C38.6224 92.1029 38.5613 92.164 38.5613 92.3168V93.8751C38.5613 94.0279 38.6224 94.089 38.7752 94.089H40.7002C41.403 94.089 41.7391 94.4557 41.7391 95.189V95.5251C41.7391 96.2584 41.403 96.5946 40.7002 96.5946H38.7752C38.6224 96.5946 38.5613 96.6557 38.5613 96.8084V98.4584C38.5613 98.6112 38.6224 98.6723 38.7752 98.6723H42.6252C43.328 98.6723 43.6641 99.039 43.6641 99.8029V100.139C43.6641 100.872 43.328 101.208 42.6252 101.208H36.6057C36.2696 101.208 35.9641 101.086 35.7502 100.872C35.5363 100.658 35.4141 100.383 35.4141 100.017V90.7584Z" fill="#A2166B"/>
<path d="M44.5806 100.047C44.5806 99.9557 44.5806 99.8945 44.6111 99.8029C44.6417 99.7112 44.6417 99.6195 44.6722 99.5279L44.7333 99.2529C44.825 99.0084 44.9167 98.8251 45.0695 98.7029C45.2222 98.5807 45.4056 98.5195 45.65 98.5195C45.7111 98.5195 45.8028 98.5195 45.8945 98.5501C45.9861 98.5807 46.0778 98.6112 46.1695 98.6112C46.475 98.7029 46.7806 98.7945 47.1167 98.8557C47.4528 98.9168 47.7889 98.9473 48.125 98.9473C48.5222 98.9473 48.8584 98.8862 49.0722 98.764C49.2861 98.6418 49.4083 98.4584 49.4083 98.1529C49.4083 97.8779 49.3472 97.664 49.1945 97.5418C49.0417 97.389 48.8278 97.2668 48.5222 97.1445L47.2083 96.6251C46.4139 96.3195 45.7722 95.8612 45.2833 95.3112C44.825 94.7612 44.5806 93.9973 44.5806 93.0501C44.5806 92.4695 44.6722 91.9501 44.8861 91.4918C45.1 91.0334 45.375 90.6362 45.7417 90.3306C46.1083 90.0251 46.5361 89.7807 47.025 89.6279C47.5139 89.4751 48.0333 89.3834 48.5833 89.3834C49.0417 89.3834 49.5 89.414 49.9583 89.4445C50.4167 89.5056 50.8139 89.5973 51.2111 89.7195C51.7306 89.9029 52.0056 90.239 52.0056 90.6973C52.0056 90.789 52.0056 90.8501 52.0056 90.9112C52.0056 90.9723 51.975 91.064 51.9445 91.2168L51.8834 91.4918C51.7917 91.7668 51.6695 91.9501 51.5167 92.1029C51.3639 92.2251 51.1806 92.3168 50.9056 92.3168C50.8445 92.3168 50.7528 92.3168 50.6917 92.2862C50.6306 92.2862 50.5389 92.2557 50.4472 92.2251C50.1722 92.164 49.8972 92.0723 49.5917 92.0112C49.3167 91.9501 49.0417 91.9195 48.7972 91.9195C48.4611 91.9195 48.1861 91.9807 48.0028 92.1029C47.8195 92.2251 47.7278 92.439 47.7278 92.714C47.7278 93.0195 47.8195 93.2334 48.0028 93.3862C48.1861 93.5084 48.4306 93.6612 48.7972 93.7834L50.3556 94.4251C50.7222 94.5779 51.0278 94.7307 51.3333 94.9445C51.6084 95.1279 51.8833 95.3723 52.0667 95.6168C52.2806 95.8612 52.4333 96.1668 52.525 96.5029C52.6167 96.839 52.6778 97.2057 52.6778 97.6334C52.6778 98.2751 52.5556 98.8251 52.3417 99.314C52.1278 99.8029 51.8222 100.2 51.425 100.506C51.0278 100.811 50.5389 101.056 49.9889 101.208C49.4389 101.361 48.8278 101.453 48.1556 101.453C47.6056 101.453 47.1167 101.422 46.6278 101.331C46.1389 101.239 45.7417 101.117 45.3445 100.995C45.0695 100.903 44.8861 100.781 44.7333 100.628C44.6417 100.475 44.5806 100.292 44.5806 100.047Z" fill="#A2166B"/>
<path d="M56.1308 92.3777C56.1308 92.2249 56.0697 92.1638 55.9169 92.1638H54.2669C53.5641 92.1638 53.228 91.7666 53.228 91.0027V90.6666C53.228 89.9333 53.5641 89.5972 54.2669 89.5972H61.203C61.9058 89.5972 62.2419 89.9944 62.2419 90.7583V91.0944C62.2419 91.8277 61.9058 92.1944 61.203 92.1944H59.4919C59.3391 92.1944 59.278 92.2555 59.278 92.4083V99.9861C59.278 100.444 59.1558 100.781 58.9114 100.994C58.6669 101.208 58.3308 101.3 57.903 101.3H57.5364C57.078 101.3 56.7419 101.208 56.528 100.994C56.2836 100.781 56.1614 100.444 56.1614 99.9861V92.3777H56.1308Z" fill="#A2166B"/>
<path d="M61.875 100.444C61.875 100.292 61.9056 100.108 61.9667 99.8945L64.9 90.6361C64.9917 90.3 65.175 90.0556 65.4194 89.8417C65.6639 89.6278 66.0306 89.5361 66.4889 89.5361H67.7417C68.2 89.5361 68.5361 89.6278 68.7806 89.8417C69.025 90.0556 69.2083 90.3306 69.3 90.6361L72.2333 99.8639C72.2944 100.078 72.325 100.231 72.325 100.383C72.325 100.628 72.2639 100.842 72.1111 101.025C71.9583 101.208 71.7139 101.3 71.4083 101.3H70.3389C69.9722 101.3 69.6972 101.208 69.5139 100.994C69.3306 100.781 69.1778 100.536 69.0861 100.169L68.8417 99.3445C68.8111 99.1917 68.7194 99.1306 68.5667 99.1306H65.45C65.2972 99.1306 65.2056 99.1917 65.175 99.3445L64.9 100.231C64.8083 100.567 64.6861 100.842 64.5028 100.994C64.3194 101.178 64.075 101.269 63.7389 101.269H62.7306C62.4556 101.269 62.2417 101.178 62.0889 101.025C61.9667 100.903 61.875 100.689 61.875 100.444ZM65.9694 96.5028C65.9694 96.625 66.0306 96.6556 66.1528 96.6556H67.8639C67.9861 96.6556 68.0472 96.5945 68.0472 96.5028C68.0472 96.4723 68.0472 96.4111 68.0167 96.35C67.9861 96.2889 67.9861 96.1973 67.925 96.075L67.1 93.1723C67.0694 93.0806 67.0389 93.0195 67.0083 93.0195C66.9778 93.0195 66.9472 93.0806 66.9167 93.1723L66.0611 96.075C66.0306 96.1973 66 96.2889 65.9694 96.35C65.9694 96.4111 65.9694 96.4723 65.9694 96.5028Z" fill="#A2166B"/>
<path d="M72.3553 90.8807C72.3553 90.4223 72.4775 90.0862 72.7219 89.8723C72.9664 89.6584 73.3025 89.5668 73.7303 89.5668H74.0969C74.5553 89.5668 74.8914 89.6584 75.1053 89.8723C75.3497 90.0862 75.4719 90.4223 75.4719 90.8807V96.7168C75.4719 97.1751 75.5025 97.5418 75.5636 97.8473C75.6247 98.1223 75.7164 98.3668 75.8386 98.5196C75.9608 98.6723 76.1442 98.7946 76.358 98.8251C76.5719 98.8862 76.8164 98.9168 77.0914 98.9168C77.3664 98.9168 77.6414 98.8862 77.8247 98.8251C78.0386 98.764 78.1914 98.6723 78.3136 98.5196C78.4358 98.3668 78.5275 98.1529 78.5886 97.8473C78.6497 97.5723 78.6803 97.1751 78.6803 96.7168V90.8807C78.6803 90.4223 78.8025 90.0862 79.0469 89.8723C79.2914 89.6584 79.6275 89.5668 80.0553 89.5668H80.4219C80.8803 89.5668 81.2164 89.6584 81.4303 89.8723C81.6747 90.0862 81.7969 90.4223 81.7969 90.8807V97.0223C81.7969 97.939 81.6747 98.6723 81.3997 99.2529C81.1247 99.8334 80.758 100.292 80.3303 100.628C79.8719 100.964 79.383 101.208 78.8025 101.331C78.2219 101.453 77.6719 101.514 77.0608 101.514C76.4192 101.514 75.808 101.453 75.2275 101.361C74.6469 101.239 74.158 101.025 73.7303 100.72C73.3025 100.414 72.9664 99.9557 72.6914 99.3751C72.4469 98.7946 72.3247 98.0307 72.3247 97.0529V90.8807H72.3553Z" fill="#A2166B"/>
<path d="M84.0586 90.7584C84.0586 90.4223 84.1808 90.1168 84.3947 89.9029C84.6086 89.689 84.8836 89.5668 85.2503 89.5668H88.703C90.1391 89.5668 91.178 89.9029 91.8197 90.5751C92.4614 91.2473 92.7975 92.1946 92.7975 93.4168C92.7975 94.1501 92.6753 94.8223 92.4308 95.3418C92.1864 95.8918 91.7892 96.3196 91.2392 96.6251C91.178 96.6557 91.1475 96.7168 91.1475 96.7473C91.1475 96.7779 91.178 96.8084 91.2086 96.9001L93.0725 99.9557C93.1947 100.139 93.2253 100.322 93.2253 100.506C93.2253 100.72 93.1642 100.903 93.0114 101.025C92.8586 101.178 92.6447 101.239 92.3392 101.239H91.178C90.8114 101.239 90.5364 101.147 90.3225 100.964C90.1086 100.781 89.9253 100.536 89.7725 100.2L88.2447 97.4196C88.1836 97.2973 88.0919 97.2362 87.9697 97.2362H87.4197C87.2669 97.2362 87.2058 97.2973 87.2058 97.4501V99.8946C87.2058 100.353 87.0836 100.689 86.8392 100.903C86.5947 101.117 86.2586 101.208 85.8308 101.208H85.4947C85.0364 101.208 84.7003 101.117 84.4864 100.903C84.2419 100.689 84.1197 100.353 84.1197 99.8946V90.7584H84.0586ZM87.9391 94.7612C88.1836 94.7612 88.428 94.7612 88.6114 94.7307C88.8253 94.7001 88.978 94.639 89.1308 94.5779C89.2836 94.4862 89.3753 94.364 89.4669 94.1807C89.5586 93.9973 89.5892 93.7529 89.5892 93.4473C89.5892 93.1418 89.5586 92.8973 89.4669 92.714C89.3753 92.5307 89.2836 92.4084 89.1308 92.3168C88.978 92.2251 88.8253 92.164 88.6114 92.1334C88.3975 92.1029 88.1836 92.1029 87.9391 92.1029H87.3586C87.2058 92.1029 87.1447 92.164 87.1447 92.3168V94.5473C87.1447 94.7001 87.2058 94.7612 87.3586 94.7612H87.9391Z" fill="#A2166B"/>
<path d="M93.8975 100.444C93.8975 100.292 93.928 100.108 93.9891 99.8945L96.9225 90.6361C97.0141 90.3 97.1975 90.0556 97.4419 89.8417C97.6864 89.6278 98.053 89.5361 98.5114 89.5361H99.7641C100.222 89.5361 100.559 89.6278 100.803 89.8417C101.047 90.0556 101.231 90.3306 101.322 90.6361L104.256 99.8639C104.317 100.078 104.347 100.231 104.347 100.383C104.347 100.628 104.286 100.842 104.134 101.025C103.981 101.208 103.736 101.3 103.431 101.3H102.361C101.995 101.3 101.72 101.208 101.536 100.994C101.353 100.781 101.2 100.536 101.109 100.169L100.864 99.3445C100.834 99.1917 100.742 99.1306 100.589 99.1306H97.4725C97.3197 99.1306 97.228 99.1917 97.1975 99.3445L96.9225 100.231C96.8308 100.567 96.7086 100.842 96.5252 100.994C96.3419 101.178 96.0975 101.269 95.7614 101.269H94.753C94.478 101.269 94.2641 101.178 94.1114 101.025C93.9586 100.903 93.8975 100.689 93.8975 100.444ZM97.9919 96.5028C97.9919 96.625 98.053 96.6556 98.1752 96.6556H99.8864C100.009 96.6556 100.07 96.5945 100.07 96.5028C100.07 96.4723 100.07 96.4111 100.039 96.35C100.009 96.2889 100.009 96.1973 99.9475 96.075L99.1225 93.1723C99.0919 93.0806 99.0614 93.0195 99.0308 93.0195C99.0002 93.0195 98.9697 93.0806 98.9391 93.1723L98.0836 96.075C98.053 96.1973 98.0225 96.2889 97.9919 96.35C97.9919 96.4111 97.9919 96.4723 97.9919 96.5028Z" fill="#A2166B"/>
<path d="M107.556 92.3777C107.556 92.2249 107.495 92.1638 107.342 92.1638H105.692C104.989 92.1638 104.653 91.7666 104.653 91.0027V90.6666C104.653 89.9333 104.989 89.5972 105.692 89.5972H112.628C113.331 89.5972 113.667 89.9944 113.667 90.7583V91.0944C113.667 91.8277 113.331 92.1944 112.628 92.1944H110.917C110.764 92.1944 110.703 92.2555 110.703 92.4083V99.9861C110.703 100.444 110.581 100.781 110.337 100.994C110.092 101.208 109.756 101.3 109.328 101.3H108.931C108.473 101.3 108.137 101.208 107.923 100.994C107.678 100.781 107.556 100.444 107.556 99.9861V92.3777Z" fill="#A2166B"/>
<path d="M114.919 90.8807C114.919 90.4223 115.042 90.0862 115.286 89.8723C115.531 89.6584 115.867 89.5668 116.294 89.5668H116.661C117.119 89.5668 117.456 89.6584 117.669 89.8723C117.914 90.0862 118.036 90.4223 118.036 90.8807V99.9862C118.036 100.445 117.914 100.781 117.669 100.995C117.425 101.208 117.089 101.3 116.661 101.3H116.294C115.836 101.3 115.5 101.208 115.286 100.995C115.042 100.781 114.919 100.445 114.919 99.9862V90.8807Z" fill="#A2166B"/>
<path d="M124.942 101.483C124.209 101.483 123.537 101.392 122.925 101.208C122.314 101.025 121.764 100.689 121.337 100.23C120.878 99.7722 120.542 99.1611 120.267 98.3666C120.023 97.5722 119.9 96.5944 119.9 95.4333C119.9 94.3027 120.053 93.3555 120.328 92.5916C120.603 91.8277 120.97 91.186 121.459 90.7277C121.917 90.2388 122.467 89.9027 123.078 89.7194C123.689 89.5055 124.331 89.4138 124.973 89.4138C125.706 89.4138 126.378 89.5055 126.989 89.6888C127.6 89.8722 128.15 90.2083 128.578 90.6666C129.006 91.1249 129.373 91.736 129.648 92.5305C129.892 93.2944 130.014 94.2722 130.014 95.4638C130.014 96.5944 129.862 97.5416 129.587 98.3055C129.312 99.0694 128.945 99.7111 128.456 100.169C127.998 100.658 127.448 100.994 126.837 101.178C126.225 101.361 125.584 101.483 124.942 101.483ZM124.942 98.9166C125.278 98.9166 125.553 98.8861 125.767 98.7944C125.981 98.7333 126.195 98.5499 126.348 98.3055C126.5 98.061 126.592 97.6944 126.684 97.236C126.745 96.7777 126.775 96.1666 126.775 95.3722C126.775 94.6083 126.745 93.9972 126.684 93.5083C126.623 93.0499 126.5 92.6833 126.348 92.4388C126.195 92.1944 126.012 92.0416 125.767 91.9499C125.553 91.8888 125.248 91.8277 124.942 91.8277C124.606 91.8277 124.331 91.8583 124.117 91.9499C123.903 92.011 123.689 92.1944 123.537 92.4388C123.384 92.6833 123.292 93.0499 123.2 93.5083C123.139 93.9666 123.109 94.5777 123.109 95.3722C123.109 96.1666 123.139 96.7777 123.2 97.236C123.262 97.6944 123.384 98.061 123.537 98.3055C123.689 98.5499 123.873 98.7027 124.117 98.7944C124.331 98.8861 124.637 98.9166 124.942 98.9166Z" fill="#A2166B"/>
<path d="M131.817 90.7888C131.817 90.4222 131.908 90.1166 132.122 89.9027C132.336 89.6888 132.611 89.5972 132.978 89.5972H133.283C134.047 89.5972 134.658 89.9333 135.117 90.575L138.325 95.3416C138.386 95.4027 138.417 95.4638 138.447 95.4944C138.478 95.5249 138.508 95.5555 138.539 95.5555C138.569 95.5555 138.6 95.4944 138.6 95.4027V90.7888C138.6 90.3611 138.722 90.0555 138.936 89.8722C139.15 89.6888 139.456 89.5972 139.883 89.5972H140.25C140.647 89.5972 140.983 89.6888 141.197 89.8722C141.411 90.0555 141.533 90.3611 141.533 90.7888V100.108C141.533 100.506 141.442 100.781 141.228 100.994C141.014 101.208 140.739 101.3 140.342 101.3H140.067C139.578 101.3 139.211 101.208 138.936 101.025C138.661 100.842 138.447 100.628 138.233 100.322L134.994 95.4944C134.903 95.3722 134.842 95.2805 134.781 95.2805C134.719 95.2805 134.719 95.3416 134.719 95.4333V100.108C134.719 100.536 134.597 100.842 134.383 101.025C134.169 101.208 133.864 101.3 133.436 101.3H133.069C132.672 101.3 132.336 101.208 132.122 101.025C131.908 100.842 131.786 100.536 131.786 100.108V90.7888H131.817Z" fill="#A2166B"/>
<path d="M64.0444 59.0722C64.0444 58.9194 63.9833 58.8583 63.8305 58.8583H62.1805C61.4777 58.8583 61.1416 58.4611 61.1416 57.6972V57.3611C61.1416 56.6277 61.4777 56.2916 62.1805 56.2916H69.1166C69.8194 56.2916 70.1555 56.6888 70.1555 57.4527V57.7888C70.1555 58.5222 69.8194 58.8889 69.1166 58.8889H67.3749C67.2222 58.8889 67.161 58.95 67.161 59.1027V66.6805C67.161 67.1389 67.0388 67.475 66.7944 67.6889C66.5499 67.9027 66.2138 67.9944 65.786 67.9944H65.4194C64.961 67.9944 64.6249 67.9027 64.411 67.6889C64.1666 67.475 64.0444 67.1389 64.0444 66.6805V59.0722Z" fill="#A2166B"/>
<path d="M74.4333 68.1777C73.6999 68.1777 73.0277 68.0861 72.4166 67.9027C71.8055 67.7194 71.2555 67.3833 70.8277 66.9249C70.3694 66.4666 70.0333 65.8555 69.7583 65.0611C69.5138 64.2666 69.3916 63.2888 69.3916 62.1277C69.3916 60.9972 69.5444 60.0499 69.8194 59.2861C70.0944 58.5222 70.461 57.8805 70.9499 57.4222C71.4083 56.9333 71.9583 56.5972 72.5694 56.4138C73.1805 56.1999 73.8222 56.1083 74.4638 56.1083C75.1972 56.1083 75.8694 56.1999 76.4805 56.3833C77.0916 56.5666 77.6416 56.9027 78.0694 57.3611C78.5277 57.8194 78.8638 58.4305 79.1388 59.2249C79.3833 59.9888 79.5055 60.9666 79.5055 62.1583C79.5055 63.2888 79.3527 64.2361 79.0777 65C78.8027 65.7638 78.4361 66.4055 77.9472 66.8638C77.4888 67.3527 76.9388 67.6888 76.3277 67.8722C75.7166 68.0555 75.0749 68.1777 74.4333 68.1777ZM74.4333 65.6111C74.7694 65.6111 75.0444 65.5805 75.2583 65.4888C75.4722 65.4277 75.6861 65.2444 75.8388 65C75.9916 64.7555 76.0833 64.3888 76.1749 63.9305C76.236 63.4722 76.2666 62.8611 76.2666 62.0666C76.2666 61.3027 76.236 60.6916 76.1749 60.2027C76.1138 59.7444 75.9916 59.3777 75.8388 59.1333C75.6861 58.8888 75.5027 58.7361 75.2583 58.6444C75.0444 58.5833 74.7388 58.5222 74.4333 58.5222C74.0972 58.5222 73.8222 58.5527 73.6083 58.6444C73.3944 58.7055 73.1805 58.8888 73.0277 59.1333C72.8749 59.3777 72.7833 59.7444 72.6916 60.2027C72.6305 60.6611 72.5999 61.2722 72.5999 62.0666C72.5999 62.8611 72.6305 63.4722 72.6916 63.9305C72.7527 64.3888 72.8749 64.7555 73.0277 65C73.1805 65.2444 73.3638 65.3972 73.6083 65.4888C73.8222 65.5805 74.0972 65.6111 74.4333 65.6111Z" fill="#A2166B"/>
<path d="M81.156 57.575C81.156 57.1167 81.2783 56.7806 81.5227 56.5667C81.7672 56.3528 82.1033 56.2611 82.531 56.2611H82.8977C83.356 56.2611 83.6922 56.3528 83.906 56.5667C84.1505 56.7806 84.2727 57.1167 84.2727 57.575V63.4111C84.2727 63.8694 84.3033 64.2361 84.3644 64.5417C84.4255 64.8167 84.5172 65.0611 84.6394 65.2139C84.7616 65.3667 84.9449 65.4889 85.1588 65.5195C85.3727 65.5806 85.6172 65.6111 85.8922 65.6111C86.1672 65.6111 86.4422 65.5806 86.6255 65.5195C86.8394 65.4583 86.9922 65.3667 87.1144 65.2139C87.2366 65.0611 87.3283 64.8472 87.3894 64.5417C87.4505 64.2667 87.481 63.8694 87.481 63.4111V57.575C87.481 57.1167 87.6033 56.7806 87.8477 56.5667C88.0922 56.3528 88.4283 56.2611 88.856 56.2611H89.2227C89.681 56.2611 90.0172 56.3528 90.231 56.5667C90.4755 56.7806 90.5977 57.1167 90.5977 57.575V63.7167C90.5977 64.6333 90.4755 65.3667 90.2005 65.9472C89.9255 66.5278 89.5588 66.9861 89.1311 67.3222C88.6727 67.6583 88.1838 67.9028 87.6033 68.025C87.0227 68.1472 86.4727 68.2083 85.8616 68.2083C85.2199 68.2083 84.6088 68.1472 84.0283 68.0556C83.4477 67.9333 82.9588 67.7194 82.531 67.4139C82.1033 67.1083 81.7672 66.65 81.4922 66.0695C81.2477 65.4889 81.1255 64.725 81.1255 63.7472V57.575H81.156Z" fill="#A2166B"/>
<path d="M92.8589 57.4528C92.8589 57.1167 92.9811 56.8111 93.195 56.5972C93.4089 56.3833 93.6839 56.2611 94.0506 56.2611H97.5033C98.9395 56.2611 99.9783 56.5972 100.62 57.2694C101.262 57.9417 101.598 58.8889 101.598 60.1111C101.598 60.8444 101.476 61.5167 101.231 62.0361C100.987 62.5861 100.589 63.0139 100.039 63.3194C99.9783 63.35 99.9478 63.4111 99.9478 63.4417C99.9478 63.4722 99.9783 63.5028 100.009 63.5944L101.873 66.65C101.995 66.8333 102.026 67.0167 102.026 67.2C102.026 67.4139 101.964 67.5972 101.812 67.7194C101.659 67.8722 101.445 67.9333 101.139 67.9333H99.9783C99.6117 67.9333 99.3367 67.8417 99.1228 67.6583C98.9089 67.475 98.7256 67.2306 98.5728 66.8945L97.045 64.1139C96.9839 63.9917 96.8922 63.9306 96.77 63.9306H96.22C96.0672 63.9306 96.0061 63.9917 96.0061 64.1445V66.5889C96.0061 67.0472 95.8839 67.3833 95.6394 67.5972C95.395 67.8111 95.0589 67.9028 94.6311 67.9028H94.295C93.8367 67.9028 93.5006 67.8111 93.2867 67.5972C93.0422 67.3833 92.92 67.0472 92.92 66.5889V57.4528H92.8589ZM96.7394 61.4556C96.9839 61.4556 97.2283 61.4556 97.4117 61.425C97.6256 61.3944 97.7783 61.3333 97.9311 61.2722C98.0839 61.1806 98.1756 61.0583 98.2672 60.875C98.3589 60.6917 98.3894 60.4472 98.3894 60.1417C98.3894 59.8361 98.3589 59.5917 98.2672 59.4083C98.1756 59.225 98.0839 59.1028 97.9311 59.0111C97.7783 58.9194 97.6256 58.8583 97.4117 58.8278C97.1978 58.7972 96.9839 58.7972 96.7394 58.7972H96.1589C96.0061 58.7972 95.945 58.8583 95.945 59.0111V61.2417C95.945 61.3945 96.0061 61.4556 96.1589 61.4556H96.7394Z" fill="#A2166B"/>
<path d="M103.736 57.575C103.736 57.1167 103.858 56.7806 104.103 56.5667C104.347 56.3528 104.683 56.2611 105.111 56.2611H105.478C105.936 56.2611 106.272 56.3528 106.486 56.5667C106.73 56.7806 106.853 57.1167 106.853 57.575V66.6806C106.853 67.1389 106.73 67.475 106.486 67.6889C106.241 67.9028 105.905 67.9944 105.478 67.9944H105.111C104.653 67.9944 104.316 67.9028 104.103 67.6889C103.858 67.475 103.736 67.1389 103.736 66.6806V57.575Z" fill="#A2166B"/>
<path d="M108.533 66.7417C108.533 66.65 108.533 66.5889 108.564 66.4972C108.594 66.4055 108.594 66.3139 108.625 66.2222L108.686 65.9472C108.778 65.7028 108.869 65.5194 109.022 65.3972C109.175 65.275 109.358 65.2139 109.603 65.2139C109.664 65.2139 109.755 65.2139 109.847 65.2444C109.939 65.275 110.03 65.3055 110.122 65.3055C110.428 65.3972 110.733 65.4889 111.069 65.55C111.405 65.6111 111.742 65.6417 112.078 65.6417C112.475 65.6417 112.811 65.5805 113.025 65.4583C113.239 65.3361 113.361 65.1528 113.361 64.8472C113.361 64.5722 113.3 64.3583 113.147 64.2361C112.994 64.0833 112.78 63.9611 112.475 63.8389L111.161 63.3194C110.367 63.0139 109.725 62.5555 109.236 62.0055C108.778 61.4555 108.533 60.6917 108.533 59.7444C108.533 59.1639 108.625 58.6444 108.839 58.1861C109.053 57.7278 109.328 57.3305 109.694 57.025C110.061 56.7194 110.489 56.475 110.978 56.3222C111.467 56.1694 111.986 56.0778 112.536 56.0778C112.994 56.0778 113.453 56.1083 113.911 56.1389C114.369 56.2 114.767 56.2916 115.164 56.4139C115.683 56.5972 115.958 56.9333 115.958 57.3917C115.958 57.4833 115.958 57.5444 115.958 57.6055C115.958 57.6666 115.928 57.7583 115.897 57.9111L115.836 58.1861C115.744 58.4611 115.622 58.6444 115.469 58.7972C115.317 58.9194 115.133 59.0111 114.858 59.0111C114.797 59.0111 114.705 59.0111 114.644 58.9805C114.583 58.9805 114.492 58.95 114.4 58.9194C114.125 58.8583 113.85 58.7667 113.544 58.7055C113.269 58.6444 112.994 58.6139 112.75 58.6139C112.414 58.6139 112.139 58.675 111.955 58.7972C111.772 58.9194 111.68 59.1333 111.68 59.4083C111.68 59.7139 111.772 59.9278 111.955 60.0805C112.139 60.2028 112.383 60.3555 112.75 60.4778L114.308 61.1194C114.675 61.2722 114.98 61.425 115.286 61.6389C115.561 61.8222 115.836 62.0667 116.019 62.3111C116.233 62.5555 116.386 62.8611 116.478 63.1972C116.6 63.5333 116.63 63.9 116.63 64.3278C116.63 64.9694 116.508 65.5194 116.294 66.0083C116.08 66.4972 115.775 66.8944 115.378 67.2C114.98 67.5056 114.492 67.75 113.942 67.9028C113.392 68.0555 112.78 68.1472 112.108 68.1472C111.558 68.1472 111.069 68.1167 110.58 68.025C110.092 67.9333 109.694 67.8111 109.297 67.6889C109.022 67.5972 108.839 67.475 108.686 67.3222C108.594 67.1694 108.533 66.9861 108.533 66.7417Z" fill="#A2166B"/>
<path d="M118.312 57.5139C118.312 57.1167 118.403 56.8111 118.617 56.5972C118.831 56.3833 119.106 56.2611 119.473 56.2611H121.398C121.703 56.2611 121.978 56.3222 122.223 56.475C122.467 56.6278 122.681 56.8722 122.803 57.2389L124.545 62.0972C124.575 62.1889 124.606 62.2194 124.667 62.2194C124.698 62.2194 124.728 62.1889 124.789 62.0972L126.562 57.2083C126.684 56.8722 126.867 56.6278 127.112 56.5056C127.356 56.3528 127.631 56.2917 127.906 56.2917H129.739C130.075 56.2917 130.35 56.3833 130.564 56.5972C130.778 56.8111 130.87 57.0861 130.87 57.4833V66.7417C130.87 67.1695 130.748 67.5056 130.534 67.6889C130.32 67.9028 129.984 67.9944 129.556 67.9944H129.189C128.762 67.9944 128.456 67.9028 128.212 67.6889C127.998 67.475 127.875 67.1695 127.875 66.7417V60.6917C127.875 60.6306 127.845 60.5694 127.814 60.5694C127.784 60.5694 127.753 60.6 127.723 60.6917L125.828 65.6722C125.767 65.8861 125.645 66.0389 125.523 66.1611C125.4 66.2833 125.217 66.3444 124.973 66.3444H124.209C123.964 66.3444 123.781 66.2833 123.598 66.1611C123.445 66.0389 123.323 65.8861 123.262 65.6722L121.367 60.6917C121.337 60.6306 121.306 60.5694 121.275 60.5694C121.245 60.5694 121.214 60.6 121.214 60.6917V66.7417C121.214 67.1695 121.092 67.5056 120.878 67.6889C120.664 67.9028 120.328 67.9944 119.9 67.9944H119.625C119.198 67.9944 118.892 67.9028 118.648 67.6889C118.434 67.475 118.312 67.1695 118.312 66.7417V57.5139Z" fill="#A2166B"/>
<path d="M133.222 57.4528C133.222 57.1167 133.344 56.8111 133.558 56.5972C133.772 56.3833 134.047 56.2611 134.414 56.2611H140.189C140.892 56.2611 141.228 56.6278 141.228 57.3917V57.7278C141.228 58.4611 140.892 58.7972 140.189 58.7972H136.583C136.431 58.7972 136.369 58.8583 136.369 59.0111V60.5694C136.369 60.7222 136.431 60.7833 136.583 60.7833H138.508C139.211 60.7833 139.547 61.15 139.547 61.8833V62.2194C139.547 62.9528 139.211 63.2889 138.508 63.2889H136.583C136.431 63.2889 136.369 63.35 136.369 63.5028V65.1528C136.369 65.3056 136.431 65.3667 136.583 65.3667H140.433C141.136 65.3667 141.472 65.7333 141.472 66.4972V66.8333C141.472 67.5667 141.136 67.9028 140.433 67.9028H134.414C134.078 67.9028 133.772 67.7806 133.558 67.5667C133.344 67.3528 133.222 67.0778 133.222 66.7111V57.4528Z" fill="#A2166B"/>
</svg>
