<svg width="121" height="108" viewBox="0 0 121 108" fill="none" xmlns="http://www.w3.org/2000/svg">
<path d="M27.489 60.1779V4.29171H54.1029L60.9779 14.9862C61.3446 15.5667 62.0168 15.9334 62.689 15.9334H81.939C80.7168 18.0417 80.014 20.4862 80.014 23.0834C80.014 30.9973 86.4613 37.4445 94.3751 37.4445C94.6196 37.4445 94.8335 37.414 95.0779 37.414V60.1473H27.489V60.1779ZM105.467 23.0834C105.467 29.1945 100.486 34.1751 94.3751 34.1751C88.264 34.1751 83.2835 29.1945 83.2835 23.0834C83.2835 16.9723 88.264 11.9917 94.3751 11.9917C100.486 12.0223 105.467 16.9723 105.467 23.0834ZM63.8196 11.8389L56.9446 1.14449C56.5779 0.563932 55.9057 0.197266 55.2334 0.197266H25.4418C24.3112 0.197266 23.3945 1.11393 23.3945 2.24449V62.2251C23.3945 63.3556 24.3112 64.2723 25.4418 64.2723H97.1252C98.2557 64.2723 99.1724 63.3556 99.1724 62.2251V36.6195C104.733 34.6334 108.736 29.3473 108.736 23.0834C108.736 15.1695 102.289 8.72227 94.3751 8.72227C91.014 8.72227 87.9279 9.88338 85.4835 11.8389H63.8196Z" fill="#7E7EBC"/>
<path d="M102.564 18.1639C101.861 17.3695 100.608 17.3083 99.814 18.0111L91.6251 25.2834L90.3418 23.7861C89.639 22.9917 88.4168 22.8695 87.6223 23.5722C87.2251 23.9084 86.9807 24.3667 86.9501 24.8861C86.9196 25.4056 87.0723 25.8945 87.4084 26.2917L89.9751 29.2861C90.3112 29.6834 90.8001 29.9278 91.3196 29.9584H91.3807C91.4112 29.9584 91.4418 29.9584 91.4418 29.9584C91.9307 29.9584 92.389 29.775 92.7251 29.4695L102.381 20.8834C103.206 20.2111 103.267 18.9889 102.564 18.1639Z" fill="#7E7EBC"/>
<path d="M35.8618 80.1001C35.1895 80.1001 34.5784 80.0085 34.0284 79.8251C33.509 79.6418 33.0507 79.3362 32.684 78.9085C32.3173 78.4807 32.0423 77.9307 31.859 77.2585C31.6757 76.5862 31.584 75.7307 31.584 74.7223C31.584 73.6835 31.7062 72.8279 31.9812 72.1251C32.2562 71.4223 32.6229 70.9029 33.0507 70.4751C33.509 70.0779 33.9979 69.7723 34.5479 69.6196C35.0979 69.4668 35.6784 69.3751 36.259 69.3751C36.6868 69.3751 37.084 69.4057 37.4201 69.4362C37.7562 69.4668 38.0923 69.5585 38.3979 69.6501C38.8868 69.8029 39.1312 70.0779 39.1312 70.5057C39.1312 70.6279 39.1007 70.7501 39.0701 70.9335L38.9784 71.239C38.8257 71.6668 38.5507 71.8807 38.1229 71.8807C37.9701 71.8807 37.8479 71.8501 37.6951 71.8196C37.4812 71.7585 37.2673 71.7279 37.0534 71.6973C36.8395 71.6668 36.5951 71.6362 36.3507 71.6362C36.0451 71.6362 35.7395 71.6668 35.4951 71.7279C35.2507 71.789 35.0368 71.9418 34.884 72.1557C34.7007 72.3696 34.5784 72.6751 34.4868 73.0723C34.3951 73.4696 34.3645 74.0196 34.3645 74.6612C34.3645 75.3335 34.3951 75.8529 34.4868 76.2807C34.5784 76.6779 34.6701 77.014 34.8229 77.2279C34.9757 77.4418 35.159 77.5946 35.4034 77.6862C35.6173 77.7474 35.8618 77.8085 36.1673 77.8085C36.5034 77.8085 36.809 77.7779 37.1145 77.6862C37.2368 77.6557 37.2979 77.5946 37.2979 77.4724V76.3418C37.2979 76.2196 37.2368 76.1585 37.1145 76.1585H37.0534C36.809 76.1585 36.5951 76.0668 36.4118 75.914C36.2284 75.7612 36.1368 75.5473 36.1368 75.2723V75.0585C36.1368 74.7835 36.2284 74.5696 36.4118 74.4168C36.5951 74.264 36.809 74.1724 37.0534 74.1724H38.9173C39.1923 74.1724 39.4368 74.264 39.6507 74.4779C39.8645 74.6918 39.9562 74.9362 39.9562 75.2112V79.0001C39.9562 79.2751 39.8645 79.5196 39.6812 79.7029C39.4979 79.8862 39.2534 80.0085 39.009 80.0085H38.6118C38.459 80.0085 38.3062 79.9779 38.1534 79.9474C38.0007 79.9168 37.909 79.764 37.8173 79.5501L37.7868 79.489C37.7868 79.4585 37.7562 79.4279 37.6951 79.4279C37.6645 79.4279 37.634 79.4585 37.6034 79.489C37.3895 79.6724 37.1451 79.7946 36.8395 79.9168C36.534 80.039 36.2284 80.1001 35.8618 80.1001Z" fill="#7E7EBC"/>
<path d="M41.7278 70.628C41.7278 70.3224 41.8195 70.078 42.0028 69.8641C42.1862 69.6808 42.4306 69.5891 42.7667 69.5891H47.8695C48.4806 69.5891 48.7862 69.9252 48.7862 70.5974V70.8724C48.7862 71.5141 48.4806 71.8197 47.8695 71.8197H44.6612C44.5389 71.8197 44.4778 71.8808 44.4778 72.003V73.378C44.4778 73.5002 44.5389 73.5613 44.6612 73.5613H46.3723C46.9834 73.5613 47.2889 73.8974 47.2889 74.5391V74.8141C47.2889 75.4558 46.9834 75.7613 46.3723 75.7613H44.6612C44.5389 75.7613 44.4778 75.8224 44.4778 75.9447V77.4113C44.4778 77.5336 44.5389 77.5947 44.6612 77.5947H48.0528C48.6639 77.5947 48.9695 77.9308 48.9695 78.603V78.878C48.9695 79.5197 48.6639 79.8252 48.0528 79.8252H42.7362C42.4306 79.8252 42.1862 79.7336 41.9723 79.5502C41.7889 79.3669 41.6973 79.1224 41.6973 78.7863V70.628H41.7278Z" fill="#7E7EBC"/>
<path d="M49.8262 78.8474C49.8262 78.7863 49.8262 78.6946 49.8567 78.6335C49.8873 78.5724 49.8873 78.4807 49.9178 78.389L49.9789 78.1446C50.0401 77.9307 50.1623 77.7779 50.2845 77.6557C50.4067 77.5335 50.5595 77.5029 50.7734 77.5029C50.8345 77.5029 50.8956 77.5029 50.9873 77.5335C51.0484 77.564 51.1401 77.564 51.2317 77.5946C51.5067 77.6862 51.7817 77.7474 52.0567 77.8085C52.3317 77.8696 52.6373 77.9001 52.9428 77.9001C53.3095 77.9001 53.5845 77.839 53.7984 77.7474C54.0123 77.6557 54.104 77.4724 54.104 77.1974C54.104 76.9529 54.0428 76.7696 53.8901 76.6474C53.7678 76.5251 53.554 76.4029 53.3095 76.3113L52.1484 75.8529C51.4456 75.5779 50.8651 75.1807 50.4678 74.6918C50.0401 74.2029 49.8567 73.5307 49.8567 72.7057C49.8567 72.1862 49.9484 71.7279 50.1317 71.3307C50.3151 70.9335 50.5595 70.5974 50.8956 70.3224C51.2317 70.0474 51.5984 69.8335 52.0262 69.6807C52.454 69.5279 52.9123 69.4668 53.4012 69.4668C53.7984 69.4668 54.1956 69.4974 54.5928 69.5279C54.9901 69.5585 55.3567 69.6501 55.6928 69.7724C56.1512 69.9251 56.3956 70.2307 56.3956 70.6279C56.3956 70.689 56.3956 70.7807 56.3956 70.8418C56.3956 70.9029 56.3651 70.9946 56.3345 71.1168L56.2734 71.3612C56.1817 71.6057 56.0901 71.7585 55.9678 71.8807C55.8456 72.0029 55.6623 72.064 55.4484 72.064C55.3873 72.064 55.3262 72.064 55.2651 72.0335C55.204 72.0335 55.1123 72.0029 55.0512 71.9724C54.8067 71.9112 54.5623 71.8501 54.3178 71.789C54.0734 71.7279 53.829 71.6974 53.6151 71.6974C53.3095 71.6974 53.0651 71.7585 52.9123 71.8501C52.7595 71.9418 52.6678 72.1557 52.6678 72.4001C52.6678 72.6751 52.7595 72.8585 52.9123 72.9807C53.0651 73.1029 53.3095 73.2251 53.6151 73.3474L54.9901 73.9279C55.2956 74.0501 55.6012 74.2029 55.8456 74.3862C56.0901 74.5696 56.304 74.7529 56.4873 74.9974C56.6706 75.2112 56.7928 75.4862 56.9151 75.7918C57.0067 76.0974 57.0678 76.4029 57.0678 76.8001C57.0678 77.3501 56.9762 77.8696 56.7623 78.2974C56.579 78.7251 56.304 79.0918 55.9373 79.3668C55.6012 79.6418 55.1734 79.8557 54.6845 80.0085C54.1956 80.1612 53.6456 80.2224 53.0651 80.2224C52.5762 80.2224 52.1484 80.1918 51.7206 80.1001C51.2928 80.039 50.9262 79.9168 50.5901 79.7946C50.3456 79.7029 50.1623 79.6113 50.0401 79.4585C49.8873 79.214 49.8262 79.0613 49.8262 78.8474Z" fill="#7E7EBC"/>
<path d="M60.0315 72.0641C60.0315 71.9419 59.9704 71.8807 59.8482 71.8807H58.3815C57.7704 71.8807 57.4648 71.5446 57.4648 70.8419V70.5669C57.4648 69.9252 57.7704 69.6196 58.3815 69.6196H64.4926C65.1037 69.6196 65.4093 69.9557 65.4093 70.6585V70.9335C65.4093 71.5752 65.1037 71.8807 64.4926 71.8807H62.9648C62.8426 71.8807 62.7815 71.9419 62.7815 72.0641V78.7558C62.7815 79.153 62.6898 79.4585 62.476 79.6419C62.2621 79.8252 61.9565 79.9169 61.5593 79.9169H61.2232C60.826 79.9169 60.5204 79.8252 60.3065 79.6419C60.0926 79.4585 60.001 79.153 60.001 78.7558V72.0641H60.0315Z" fill="#7E7EBC"/>
<path d="M66.5088 70.7196C66.5088 70.3224 66.6005 70.0168 66.8143 69.8335C67.0282 69.6501 67.3338 69.5585 67.731 69.5585H68.0671C68.4643 69.5585 68.7699 69.6501 68.9838 69.8335C69.1977 70.0168 69.2893 70.3224 69.2893 70.7196V78.7557C69.2893 79.1529 69.1977 79.4585 68.9838 79.6418C68.7699 79.8251 68.4643 79.9168 68.0671 79.9168H67.731C67.3338 79.9168 67.0282 79.8251 66.8143 79.6418C66.6005 79.4585 66.5088 79.1529 66.5088 78.7557V70.7196Z" fill="#7E7EBC"/>
<path d="M75.3703 80.1001C74.7286 80.1001 74.1481 80.0085 73.5981 79.8557C73.0481 79.7029 72.5897 79.3974 72.1925 79.0001C71.7953 78.6029 71.4897 78.0529 71.2453 77.3501C71.0314 76.6474 70.9092 75.7918 70.9092 74.7529C70.9092 73.7446 71.0314 72.9196 71.2759 72.2168C71.5203 71.5446 71.8564 70.9946 72.2536 70.5668C72.6814 70.139 73.1397 69.8335 73.6897 69.6501C74.2397 69.4668 74.7897 69.3751 75.3703 69.3751C76.012 69.3751 76.5925 69.4668 77.1425 69.6196C77.6925 69.7723 78.1509 70.0779 78.5481 70.4751C78.9453 70.8723 79.2509 71.4223 79.4953 72.1251C79.7092 72.7973 79.8314 73.6835 79.8314 74.7223C79.8314 75.7307 79.7092 76.5557 79.4647 77.2585C79.2203 77.9307 78.8842 78.4807 78.487 78.9085C78.0592 79.3362 77.6009 79.6418 77.0509 79.8251C76.5009 80.0085 75.9509 80.1001 75.3703 80.1001ZM75.3703 77.839C75.6453 77.839 75.8897 77.8085 76.1036 77.7473C76.3175 77.6862 76.4703 77.5335 76.5925 77.3196C76.7147 77.1057 76.8064 76.8001 76.8675 76.3723C76.9286 75.9751 76.9592 75.4251 76.9592 74.7223C76.9592 74.0501 76.9286 73.5001 76.8675 73.0723C76.8064 72.6751 76.7147 72.339 76.5925 72.1251C76.4703 71.9112 76.287 71.7585 76.1036 71.6973C75.8897 71.6362 75.6453 71.6057 75.3703 71.6057C75.0953 71.6057 74.8509 71.6362 74.637 71.6973C74.4231 71.7585 74.2703 71.9112 74.1481 72.1251C74.0259 72.339 73.9342 72.6446 73.8731 73.0723C73.812 73.4696 73.7814 74.0196 73.7814 74.7223C73.7814 75.4251 73.812 75.9751 73.8731 76.3723C73.9342 76.7696 74.0259 77.0751 74.1481 77.3196C74.2703 77.5335 74.4536 77.6862 74.637 77.7473C74.8509 77.8085 75.0953 77.839 75.3703 77.839Z" fill="#7E7EBC"/>
<path d="M81.4512 70.6586C81.4512 70.3224 81.5428 70.078 81.7262 69.8947C81.9095 69.7113 82.1539 69.6197 82.4901 69.6197H82.7651C83.4373 69.6197 83.9873 69.8947 84.3845 70.4752L87.1956 74.6919C87.2262 74.753 87.2567 74.7836 87.2873 74.8141C87.3178 74.8447 87.3484 74.8752 87.379 74.8752C87.4095 74.8752 87.4401 74.8141 87.4401 74.7224V70.6586C87.4401 70.2919 87.5317 70.0169 87.7151 69.8336C87.8984 69.6502 88.1734 69.5891 88.5401 69.5891H88.8456C89.2123 69.5891 89.4873 69.6808 89.6706 69.8336C89.854 70.0169 89.9456 70.2613 89.9456 70.6586V78.878C89.9456 79.2141 89.854 79.4891 89.6706 79.6725C89.4873 79.8558 89.2428 79.9474 88.9067 79.9474H88.6623C88.2345 79.9474 87.8984 79.8558 87.6845 79.703C87.4401 79.5502 87.2567 79.3363 87.0734 79.0613L84.2012 74.8141C84.1095 74.6919 84.0484 74.6308 84.0178 74.6308C83.9873 74.6308 83.9567 74.6919 83.9567 74.7836V78.9086C83.9567 79.2752 83.8651 79.5502 83.6817 79.7336C83.4984 79.9169 83.2234 79.978 82.8567 79.978H82.5512C82.1845 79.978 81.9095 79.8863 81.7262 79.7336C81.5428 79.5502 81.4512 79.3058 81.4512 78.9086V70.6586Z" fill="#7E7EBC"/>
<path d="M0.172852 92.9945C0.172852 92.8723 0.203407 92.7196 0.264518 92.5057L2.86174 84.3168C2.95341 84.0418 3.10619 83.7973 3.32008 83.614C3.53396 83.4307 3.83952 83.339 4.2673 83.339H5.39785C5.79508 83.339 6.10063 83.4307 6.31452 83.614C6.52841 83.7973 6.68119 84.0418 6.77286 84.3168L9.37008 92.4751C9.43119 92.6584 9.46175 92.8112 9.46175 92.9334C9.46175 93.1473 9.40063 93.3307 9.24786 93.514C9.12563 93.6668 8.91175 93.7584 8.63675 93.7584H7.68952C7.38397 93.7584 7.13952 93.6668 6.95619 93.4834C6.80341 93.3001 6.68119 93.0557 6.58952 92.7501L6.37563 92.0168C6.34508 91.8945 6.25341 91.8334 6.13119 91.8334H3.38119C3.22841 91.8334 3.1673 91.8945 3.13674 92.0168L2.8923 92.8112C2.80063 93.1168 2.67841 93.3307 2.55619 93.4834C2.40341 93.6362 2.18952 93.7279 1.88396 93.7279H0.997851C0.753407 93.7279 0.570073 93.6668 0.447851 93.514C0.233962 93.3918 0.172852 93.2084 0.172852 92.9945ZM3.77841 89.5112C3.77841 89.6029 3.83952 89.664 3.93119 89.664H5.45896C5.55063 89.664 5.61174 89.6029 5.61174 89.5112C5.61174 89.4807 5.61174 89.4501 5.58119 89.389C5.55063 89.3279 5.55063 89.2362 5.52008 89.1445L4.78674 86.5779C4.75619 86.4862 4.72563 86.4557 4.69508 86.4557C4.66452 86.4557 4.63397 86.4862 4.60341 86.5779L3.83952 89.1445C3.80897 89.2668 3.77841 89.3584 3.77841 89.389C3.77841 89.4195 3.77841 89.4807 3.77841 89.5112Z" fill="#7E7EBC"/>
<path d="M10.6836 84.4392C10.6836 84.1336 10.7753 83.8892 10.9586 83.6753C11.1419 83.4919 11.3864 83.4003 11.7225 83.4003H14.3503C14.9614 83.4003 15.5114 83.4614 16.0919 83.6142C16.6419 83.7669 17.1614 84.0114 17.5892 84.4086C18.0169 84.8058 18.3836 85.3253 18.628 85.9975C18.903 86.6697 19.0253 87.5253 19.0253 88.5642C19.0253 89.603 18.903 90.4586 18.628 91.1308C18.353 91.8031 18.0169 92.3225 17.5892 92.6892C17.1614 93.0864 16.6419 93.3308 16.0919 93.4836C15.5419 93.6364 14.9614 93.6975 14.3503 93.6975H11.7225C11.4169 93.6975 11.1725 93.6058 10.9586 93.4225C10.7753 93.2392 10.6836 92.9947 10.6836 92.6586V84.4392ZM13.4336 91.2531C13.4336 91.3753 13.4947 91.4364 13.6169 91.4364H13.8308C14.1975 91.4364 14.5336 91.4058 14.8086 91.3753C15.1142 91.3142 15.3586 91.1919 15.5419 91.0086C15.7253 90.8253 15.878 90.5197 16.0003 90.1225C16.0919 89.7253 16.153 89.2058 16.153 88.5336C16.153 87.8614 16.0919 87.3114 16.0003 86.9447C15.9086 86.5475 15.7558 86.2725 15.5419 86.0892C15.3586 85.9058 15.1142 85.7836 14.8086 85.7225C14.503 85.6614 14.1975 85.6614 13.8308 85.6614H13.6169C13.4947 85.6614 13.4336 85.7225 13.4336 85.8447V91.2531Z" fill="#7E7EBC"/>
<path d="M20.6145 84.4695C20.6145 84.1334 20.7062 83.8584 20.8895 83.6445C21.0729 83.4307 21.3173 83.339 21.6534 83.339H23.3645C23.6395 83.339 23.884 83.4001 24.0979 83.5529C24.3118 83.6751 24.4951 83.9195 24.6173 84.2251L26.1757 88.5334C26.2062 88.5945 26.2368 88.6557 26.2673 88.6557C26.2979 88.6557 26.3284 88.6251 26.359 88.5334L27.9173 84.2251C28.009 83.9195 28.1923 83.7057 28.4062 83.5834C28.6201 83.4612 28.8645 83.4001 29.109 83.4001H30.7284C31.034 83.4001 31.2784 83.4918 31.4618 83.6751C31.6451 83.8584 31.7368 84.1334 31.7368 84.439V92.6279C31.7368 93.0251 31.6451 93.3001 31.4312 93.4529C31.2479 93.6362 30.9423 93.7279 30.5757 93.7279H30.2701C29.9034 93.7279 29.5979 93.6362 29.4145 93.4529C29.2312 93.2695 29.109 92.9945 29.109 92.6279V87.2807C29.109 87.2195 29.0784 87.189 29.0479 87.189C29.0173 87.189 28.9868 87.2195 28.9562 87.2807L27.2757 91.6807C27.2145 91.864 27.1229 92.0168 27.0007 92.1084C26.8784 92.2001 26.7257 92.2612 26.5118 92.2612H25.8395C25.6257 92.2612 25.4423 92.2001 25.3201 92.1084C25.1673 92.0168 25.0757 91.864 25.0145 91.6807L23.3645 87.2807C23.334 87.2195 23.3034 87.189 23.2729 87.189C23.2423 87.189 23.2118 87.2195 23.2118 87.2807V92.6279C23.2118 93.0251 23.1201 93.3001 22.9062 93.4529C22.7229 93.6362 22.4173 93.7279 22.0507 93.7279H21.7451C21.3784 93.7279 21.0729 93.6362 20.8895 93.4529C20.7062 93.2695 20.584 92.9945 20.584 92.6279V84.4695H20.6145Z" fill="#7E7EBC"/>
<path d="M33.8145 84.5307C33.8145 84.1335 33.9061 83.828 34.12 83.6446C34.3339 83.4613 34.6395 83.3696 35.0367 83.3696H35.3728C35.77 83.3696 36.0756 83.4613 36.2895 83.6446C36.5033 83.828 36.595 84.1335 36.595 84.5307V92.5669C36.595 92.9641 36.5033 93.2696 36.2895 93.453C36.0756 93.6363 35.77 93.728 35.3728 93.728H35.0367C34.6395 93.728 34.3339 93.6363 34.12 93.453C33.9061 93.2696 33.8145 92.9641 33.8145 92.5669V84.5307Z" fill="#7E7EBC"/>
<path d="M38.7031 84.4391C38.7031 84.103 38.7948 83.8585 38.9781 83.6752C39.1615 83.4919 39.4059 83.4002 39.742 83.4002H40.017C40.6892 83.4002 41.2392 83.6752 41.6365 84.2557L44.4476 88.4724C44.4781 88.5335 44.5087 88.5641 44.5392 88.5946C44.5698 88.6252 44.6003 88.6557 44.6309 88.6557C44.6615 88.6557 44.692 88.5946 44.692 88.503V84.4391C44.692 84.0724 44.7837 83.7974 44.967 83.6141C45.1504 83.4307 45.4254 83.3696 45.792 83.3696H46.0976C46.4642 83.3696 46.7392 83.4613 46.9226 83.6141C47.1059 83.7974 47.1976 84.0419 47.1976 84.4391V92.6585C47.1976 92.9946 47.1059 93.2696 46.9226 93.453C46.7392 93.6363 46.4948 93.728 46.1587 93.728H45.9142C45.4865 93.728 45.1504 93.6363 44.9365 93.4835C44.692 93.3307 44.5087 93.1169 44.3253 92.8419L41.4531 88.5946C41.3615 88.4724 41.3003 88.4113 41.2698 88.4113C41.2392 88.4113 41.2087 88.4724 41.2087 88.5641V92.6891C41.2087 93.0557 41.117 93.3308 40.9337 93.5141C40.7503 93.6974 40.4754 93.7585 40.1087 93.7585H39.8031C39.4365 93.7585 39.1615 93.6669 38.9781 93.5141C38.7948 93.3613 38.7031 93.0863 38.7031 92.6891V84.4391Z" fill="#7E7EBC"/>
<path d="M49.3066 84.5307C49.3066 84.1335 49.3983 83.828 49.6122 83.6446C49.8261 83.4613 50.1316 83.3696 50.5289 83.3696H50.865C51.2622 83.3696 51.5678 83.4613 51.7816 83.6446C51.9955 83.828 52.0872 84.1335 52.0872 84.5307V92.5669C52.0872 92.9641 51.9955 93.2696 51.7816 93.453C51.5678 93.6363 51.2622 93.728 50.865 93.728H50.5289C50.1316 93.728 49.8261 93.6363 49.6122 93.453C49.3983 93.2696 49.3066 92.9641 49.3066 92.5669V84.5307Z" fill="#7E7EBC"/>
<path d="M53.5537 92.628C53.5537 92.5669 53.5537 92.4752 53.5843 92.4141C53.6148 92.353 53.6148 92.2613 53.6454 92.1697L53.7065 91.9252C53.7676 91.7113 53.8898 91.5586 54.012 91.4363C54.1343 91.3141 54.287 91.2836 54.5009 91.2836C54.562 91.2836 54.6232 91.2836 54.7148 91.3141C54.7759 91.3447 54.8676 91.3447 54.9593 91.3752C55.2343 91.4669 55.5093 91.528 55.7843 91.5891C56.0593 91.6502 56.3648 91.6808 56.6704 91.6808C57.037 91.6808 57.312 91.6197 57.5259 91.528C57.7398 91.4363 57.8315 91.253 57.8315 90.978C57.8315 90.7336 57.7704 90.5502 57.6176 90.428C57.4954 90.3058 57.2815 90.1836 57.037 90.0919L55.8759 89.6336C55.1732 89.3586 54.5926 88.9613 54.1954 88.4724C53.7676 87.9836 53.5843 87.3113 53.5843 86.4863C53.5843 85.9669 53.6759 85.5086 53.8593 85.1113C54.0426 84.7141 54.287 84.378 54.6232 84.103C54.9593 83.828 55.3259 83.6141 55.7537 83.4613C56.1815 83.3086 56.6398 83.2474 57.1287 83.2474C57.5259 83.2474 57.9232 83.278 58.3204 83.3086C58.7176 83.3391 59.0843 83.4308 59.4204 83.553C59.8787 83.7058 60.1232 84.0113 60.1232 84.4086C60.1232 84.4697 60.1232 84.5613 60.1232 84.6224C60.1232 84.6835 60.0926 84.7752 60.062 84.8974L60.0009 85.1419C59.9093 85.3863 59.8176 85.5391 59.6954 85.6613C59.5732 85.7835 59.3898 85.8447 59.1759 85.8447C59.1148 85.8447 59.0537 85.8447 58.9926 85.8141C58.9315 85.8141 58.8398 85.7836 58.7787 85.753C58.5343 85.6919 58.2898 85.6308 58.0454 85.5697C57.8009 85.5086 57.5565 85.478 57.3426 85.478C57.037 85.478 56.7926 85.5391 56.6398 85.6308C56.487 85.7224 56.3954 85.9363 56.3954 86.1808C56.3954 86.4558 56.487 86.6391 56.6398 86.7613C56.7926 86.8836 57.037 87.0058 57.3426 87.128L58.7176 87.7086C59.0232 87.8308 59.3287 87.9836 59.5732 88.1669C59.8176 88.3502 60.0315 88.5336 60.2148 88.778C60.3982 88.9919 60.5204 89.2669 60.6426 89.5724C60.7343 89.878 60.7954 90.1836 60.7954 90.5808C60.7954 91.1308 60.7037 91.6502 60.4898 92.078C60.3065 92.5058 60.0315 92.8724 59.6648 93.1474C59.3287 93.4224 58.9009 93.6363 58.412 93.7891C57.9232 93.9419 57.3732 94.003 56.7926 94.003C56.3037 94.003 55.8759 93.9724 55.4482 93.8808C55.0204 93.8197 54.6537 93.6974 54.3176 93.5752C54.0732 93.4836 53.8898 93.3919 53.7676 93.2391C53.6454 93.0252 53.5537 92.8419 53.5537 92.628Z" fill="#7E7EBC"/>
<path d="M63.759 85.8752C63.759 85.753 63.6979 85.6919 63.5757 85.6919H62.1091C61.4979 85.6919 61.1924 85.3558 61.1924 84.653V84.378C61.1924 83.7363 61.4979 83.4308 62.1091 83.4308H68.2202C68.8313 83.4308 69.1368 83.7669 69.1368 84.4697V84.7447C69.1368 85.3863 68.8313 85.6919 68.2202 85.6919H66.6924C66.5702 85.6919 66.5091 85.753 66.5091 85.8752V92.5669C66.5091 92.9641 66.4174 93.2697 66.2035 93.453C65.9896 93.6363 65.6841 93.728 65.2868 93.728H64.9507C64.5535 93.728 64.2479 93.6363 64.034 93.453C63.8202 93.2697 63.7285 92.9641 63.7285 92.5669V85.8752H63.759Z" fill="#7E7EBC"/>
<path d="M70.2363 84.4392C70.2363 84.1336 70.328 83.8892 70.5113 83.6753C70.6947 83.4919 70.9391 83.4003 71.2752 83.4003H74.3308C75.5836 83.4003 76.5002 83.7058 77.0808 84.3169C77.6613 84.928 77.9363 85.7531 77.9363 86.8225C77.9363 87.4947 77.8141 88.0447 77.6002 88.5336C77.3863 89.0225 77.0197 89.3892 76.5613 89.6642C76.5002 89.6947 76.4697 89.7253 76.4697 89.7864C76.4697 89.8169 76.5002 89.8475 76.5308 89.9086L78.1808 92.5975C78.2724 92.7503 78.3336 92.9031 78.3336 93.0864C78.3336 93.2697 78.2724 93.4225 78.1197 93.5447C77.9974 93.6669 77.7836 93.7586 77.5391 93.7586H76.5002C76.1947 93.7586 75.9197 93.6669 75.7363 93.5142C75.553 93.3614 75.4002 93.1169 75.2474 92.8419L73.903 90.3975C73.8419 90.3058 73.7502 90.2447 73.6585 90.2447H73.1697C73.0474 90.2447 72.9863 90.3058 72.9863 90.4281V92.5975C72.9863 92.9947 72.8947 93.3003 72.6808 93.4836C72.4669 93.6669 72.1613 93.7586 71.7641 93.7586H71.4586C71.0613 93.7586 70.7558 93.6669 70.5419 93.4836C70.328 93.3003 70.2363 92.9947 70.2363 92.5975V84.4392ZM73.6585 87.9836C73.8724 87.9836 74.0863 87.9836 74.2697 87.953C74.453 87.9225 74.6058 87.8919 74.728 87.8003C74.8502 87.7392 74.9419 87.6169 75.003 87.4642C75.0641 87.3114 75.0947 87.0975 75.0947 86.8225C75.0947 86.5475 75.0641 86.3336 75.003 86.1808C74.9419 86.028 74.8502 85.9058 74.728 85.8142C74.6058 85.7225 74.453 85.6919 74.2697 85.6614C74.0863 85.6308 73.8724 85.6308 73.6585 85.6308H73.1391C73.0169 85.6308 72.9558 85.6919 72.9558 85.8142V87.7697C72.9558 87.8919 73.0169 87.953 73.1391 87.953H73.6585V87.9836Z" fill="#7E7EBC"/>
<path d="M78.9141 92.9945C78.9141 92.8723 78.9446 92.7196 79.0057 92.5057L81.6029 84.3168C81.6946 84.0418 81.8474 83.7973 82.0613 83.614C82.2752 83.4307 82.5807 83.339 83.0085 83.339H84.1391C84.5363 83.339 84.8418 83.4307 85.0557 83.614C85.2696 83.7973 85.4224 84.0418 85.5141 84.3168L88.1113 92.4751C88.1724 92.6584 88.203 92.8112 88.203 92.9334C88.203 93.1473 88.1418 93.3307 87.9891 93.514C87.8668 93.6668 87.653 93.7584 87.378 93.7584H86.4307C86.1252 93.7584 85.8807 93.6668 85.6974 93.4834C85.5446 93.3001 85.4224 93.0557 85.3307 92.7501L85.1168 92.0168C85.0863 91.8945 84.9946 91.8334 84.8724 91.8334H82.1224C81.9696 91.8334 81.9085 91.8945 81.8779 92.0168L81.6335 92.8112C81.5418 93.1168 81.4196 93.3307 81.2974 93.4834C81.1446 93.6362 80.9307 93.7279 80.6252 93.7279H79.7391C79.4946 93.7279 79.3113 93.6668 79.1891 93.514C78.9752 93.3918 78.9141 93.2084 78.9141 92.9945ZM82.5196 89.5112C82.5196 89.6029 82.5807 89.664 82.6724 89.664H84.2002C84.2918 89.664 84.353 89.6029 84.353 89.5112C84.353 89.4807 84.3529 89.4501 84.3224 89.389C84.2918 89.3279 84.2918 89.2362 84.2613 89.1445L83.528 86.5779C83.4974 86.4862 83.4668 86.4557 83.4363 86.4557C83.4057 86.4557 83.3752 86.4862 83.3446 86.5779L82.5807 89.1445C82.5502 89.2668 82.5196 89.3584 82.5196 89.389C82.5196 89.4195 82.5196 89.4807 82.5196 89.5112Z" fill="#7E7EBC"/>
<path d="M90.9837 85.8752C90.9837 85.753 90.9225 85.6919 90.8003 85.6919H89.3337C88.7225 85.6919 88.417 85.3558 88.417 84.653V84.378C88.417 83.7363 88.7225 83.4308 89.3337 83.4308H95.4448C96.0559 83.4308 96.3614 83.7669 96.3614 84.4697V84.7447C96.3614 85.3863 96.0559 85.6919 95.4448 85.6919H93.917C93.7948 85.6919 93.7337 85.753 93.7337 85.8752V92.5669C93.7337 92.9641 93.642 93.2697 93.4281 93.453C93.2142 93.6363 92.9087 93.728 92.5114 93.728H92.1753C91.7781 93.728 91.4725 93.6363 91.2587 93.453C91.0448 93.2697 90.9531 92.9641 90.9531 92.5669V85.8752H90.9837Z" fill="#7E7EBC"/>
<path d="M97.4912 84.5307C97.4912 84.1335 97.5829 83.828 97.7968 83.6446C98.0107 83.4613 98.3162 83.3696 98.7134 83.3696H99.0495C99.4468 83.3696 99.7523 83.4613 99.9662 83.6446C100.18 83.828 100.272 84.1335 100.272 84.5307V92.5669C100.272 92.9641 100.18 93.2696 99.9662 93.453C99.7523 93.6363 99.4468 93.728 99.0495 93.728H98.7134C98.3162 93.728 98.0107 93.6363 97.7968 93.453C97.5829 93.2696 97.4912 92.9641 97.4912 92.5669V84.5307Z" fill="#7E7EBC"/>
<path d="M106.354 93.8808C105.712 93.8808 105.131 93.7891 104.581 93.6363C104.031 93.4835 103.573 93.178 103.176 92.7808C102.779 92.3835 102.473 91.8335 102.229 91.1308C102.015 90.428 101.893 89.5724 101.893 88.5335C101.893 87.5252 102.015 86.7002 102.259 85.9974C102.504 85.3252 102.84 84.7752 103.237 84.3474C103.665 83.9196 104.123 83.6141 104.673 83.4308C105.223 83.2474 105.773 83.1558 106.354 83.1558C106.995 83.1558 107.576 83.2474 108.126 83.4002C108.676 83.553 109.134 83.8585 109.531 84.2558C109.929 84.653 110.234 85.203 110.479 85.9058C110.723 86.6085 110.815 87.4641 110.815 88.503C110.815 89.5113 110.693 90.3363 110.448 91.0391C110.204 91.7113 109.868 92.2613 109.47 92.6891C109.043 93.1169 108.584 93.4224 108.034 93.6058C107.484 93.7891 106.904 93.8808 106.354 93.8808ZM106.354 91.6502C106.629 91.6502 106.873 91.6197 107.087 91.5585C107.301 91.4974 107.454 91.3447 107.576 91.1308C107.698 90.9169 107.79 90.6113 107.851 90.1835C107.912 89.7863 107.943 89.2363 107.943 88.5335C107.943 87.8613 107.912 87.3113 107.851 86.8835C107.79 86.4863 107.698 86.1502 107.576 85.9363C107.454 85.7224 107.27 85.5696 107.087 85.5085C106.873 85.4474 106.629 85.4169 106.354 85.4169C106.079 85.4169 105.834 85.4474 105.62 85.5085C105.406 85.5696 105.254 85.7224 105.131 85.9363C105.009 86.1502 104.918 86.4558 104.856 86.8835C104.795 87.2808 104.765 87.8308 104.765 88.5335C104.765 89.2363 104.795 89.7863 104.856 90.1835C104.918 90.5808 105.009 90.8863 105.131 91.1308C105.254 91.3447 105.437 91.4974 105.62 91.5585C105.804 91.6197 106.048 91.6502 106.354 91.6502Z" fill="#7E7EBC"/>
<path d="M112.403 84.4391C112.403 84.103 112.495 83.8585 112.678 83.6752C112.862 83.4919 113.106 83.4002 113.442 83.4002H113.717C114.389 83.4002 114.939 83.6752 115.337 84.2557L118.148 88.4724C118.178 88.5335 118.209 88.5641 118.239 88.5946C118.27 88.6252 118.301 88.6557 118.331 88.6557C118.362 88.6557 118.392 88.5946 118.392 88.503V84.4391C118.392 84.0724 118.484 83.7974 118.667 83.6141C118.851 83.4307 119.126 83.3696 119.492 83.3696H119.798C120.164 83.3696 120.439 83.4613 120.623 83.6141C120.806 83.7974 120.898 84.0419 120.898 84.4391V92.6585C120.898 92.9946 120.806 93.2696 120.623 93.453C120.439 93.6363 120.195 93.728 119.859 93.728H119.614C119.187 93.728 118.851 93.6363 118.637 93.4835C118.392 93.3307 118.209 93.1169 118.026 92.8419L115.153 88.5946C115.062 88.4724 115.001 88.4113 114.97 88.4113C114.939 88.4113 114.909 88.4724 114.909 88.5641V92.6891C114.909 93.0557 114.817 93.3308 114.634 93.5141C114.451 93.6974 114.176 93.7585 113.809 93.7585H113.503C113.137 93.7585 112.862 93.6669 112.678 93.5141C112.495 93.3613 112.403 93.0863 112.403 92.6891V84.4391Z" fill="#7E7EBC"/>
<path d="M10.8057 102.345C10.8057 101.306 10.9279 100.45 11.2029 99.7474C11.4779 99.0752 11.814 98.5252 12.2723 98.0974C12.7001 97.7002 13.2196 97.3947 13.7696 97.2419C14.3196 97.0891 14.9001 96.9974 15.4807 96.9974C16.1834 96.9974 16.7946 97.0891 17.314 97.2419C17.8029 97.3947 18.0473 97.6697 18.0473 98.0669C18.0473 98.1891 18.0168 98.3419 17.9557 98.5558L17.8946 98.7697C17.8029 99.0141 17.7112 99.1974 17.589 99.3197C17.4668 99.4419 17.2834 99.503 17.039 99.503C16.9779 99.503 16.9168 99.503 16.8557 99.4724C16.7946 99.4419 16.7029 99.4419 16.6418 99.4113C16.3057 99.3197 15.9696 99.2891 15.6029 99.2891C15.2668 99.2891 14.9612 99.3197 14.7168 99.4113C14.4723 99.503 14.2584 99.6558 14.1057 99.8697C13.9529 100.084 13.8307 100.42 13.7696 100.817C13.7084 101.214 13.6473 101.734 13.6473 102.345C13.6473 102.986 13.6779 103.475 13.7696 103.872C13.8307 104.27 13.9529 104.575 14.1057 104.82C14.2584 105.034 14.4723 105.217 14.7168 105.278C14.9612 105.37 15.2668 105.4 15.6029 105.4C15.8779 105.4 16.1223 105.37 16.3362 105.339C16.5501 105.309 16.764 105.247 16.9473 105.186C17.1307 105.125 17.314 105.095 17.4362 105.095C17.6501 105.095 17.8029 105.156 17.9251 105.278C18.0473 105.4 18.139 105.553 18.2001 105.767L18.2612 105.981C18.2918 106.103 18.3223 106.195 18.3223 106.256C18.3223 106.317 18.3529 106.378 18.3529 106.47C18.3529 106.653 18.2918 106.836 18.139 106.959C17.9862 107.081 17.8029 107.203 17.589 107.295C17.2834 107.417 16.9473 107.509 16.5807 107.6C16.214 107.692 15.8779 107.722 15.5112 107.722C14.839 107.722 14.2279 107.661 13.6473 107.509C13.0668 107.356 12.5779 107.081 12.1501 106.684C11.7223 106.286 11.4168 105.736 11.1723 105.034C10.9279 104.331 10.8057 103.445 10.8057 102.345Z" fill="#7E7EBC"/>
<path d="M23.7004 107.692C23.0587 107.692 22.4781 107.6 21.9281 107.447C21.3781 107.295 20.9198 106.989 20.5226 106.592C20.1254 106.195 19.8198 105.645 19.5754 104.942C19.3615 104.239 19.2393 103.384 19.2393 102.345C19.2393 101.336 19.3615 100.511 19.6059 99.8086C19.8504 99.1364 20.1865 98.5864 20.5837 98.1586C21.0115 97.7308 21.4698 97.4253 22.0198 97.2419C22.5698 97.0586 23.1198 96.9669 23.7004 96.9669C24.342 96.9669 24.9226 97.0586 25.4726 97.2114C26.0226 97.3641 26.4809 97.6697 26.8782 98.0669C27.2754 98.4641 27.5809 99.0141 27.8254 99.7169C28.0393 100.389 28.1615 101.275 28.1615 102.314C28.1615 103.322 28.0393 104.147 27.7948 104.85C27.5504 105.522 27.2143 106.072 26.817 106.5C26.3893 106.928 25.9309 107.234 25.3809 107.417C24.8309 107.6 24.2809 107.692 23.7004 107.692ZM23.7004 105.431C23.9754 105.431 24.2198 105.4 24.4337 105.339C24.6476 105.278 24.8004 105.125 24.9226 104.911C25.0448 104.697 25.1365 104.392 25.1976 103.964C25.2587 103.567 25.2893 103.017 25.2893 102.314C25.2893 101.642 25.2587 101.092 25.1976 100.664C25.1365 100.267 25.0448 99.9308 24.9226 99.7169C24.8004 99.503 24.617 99.3503 24.4337 99.2891C24.2198 99.228 23.9754 99.1975 23.7004 99.1975C23.4254 99.1975 23.1809 99.228 22.967 99.2891C22.7531 99.3503 22.6004 99.503 22.4781 99.7169C22.3559 99.9308 22.2643 100.236 22.2031 100.664C22.142 101.061 22.1115 101.611 22.1115 102.314C22.1115 103.017 22.142 103.567 22.2031 103.964C22.2643 104.361 22.3559 104.667 22.4781 104.911C22.6004 105.125 22.7837 105.278 22.967 105.339C23.1504 105.4 23.3948 105.431 23.7004 105.431Z" fill="#7E7EBC"/>
<path d="M29.7513 98.2808C29.7513 97.9447 29.8429 97.6697 30.0263 97.4558C30.2096 97.2419 30.454 97.1503 30.7901 97.1503H32.5013C32.7763 97.1503 33.0207 97.2114 33.2346 97.3642C33.4485 97.4864 33.6318 97.7308 33.754 98.0364L35.3124 102.345C35.3429 102.406 35.3735 102.467 35.404 102.467C35.4346 102.467 35.4651 102.436 35.4957 102.345L37.054 98.0364C37.1457 97.7308 37.329 97.5169 37.5429 97.3947C37.7568 97.2725 38.0013 97.2114 38.2457 97.2114H39.8652C40.1707 97.2114 40.4152 97.303 40.5985 97.4864C40.7818 97.6697 40.8735 97.9447 40.8735 98.2503V106.439C40.8735 106.836 40.7818 107.111 40.5679 107.264C40.3846 107.447 40.079 107.539 39.7124 107.539H39.4068C39.0402 107.539 38.7346 107.447 38.5513 107.264C38.3679 107.081 38.2457 106.806 38.2457 106.439V101.092C38.2457 101.031 38.2152 101 38.1846 101C38.154 101 38.1235 101.031 38.0929 101.092L36.4124 105.492C36.3513 105.675 36.2596 105.828 36.1374 105.92C36.0152 106.011 35.8624 106.073 35.6485 106.073H34.9763C34.7624 106.073 34.579 106.011 34.4568 105.92C34.304 105.828 34.2124 105.675 34.1513 105.492L32.5013 101.092C32.4707 101.031 32.4401 101 32.4096 101C32.379 101 32.3485 101.031 32.3485 101.092V106.439C32.3485 106.836 32.2568 107.111 32.0429 107.264C31.8596 107.447 31.554 107.539 31.1874 107.539H30.8818C30.5151 107.539 30.2096 107.447 30.0263 107.264C29.8429 107.081 29.7207 106.806 29.7207 106.439V98.2808H29.7513Z" fill="#7E7EBC"/>
<path d="M42.9199 98.2197C42.9199 97.9141 43.0116 97.6697 43.1949 97.4558C43.3783 97.2725 43.6227 97.1808 43.9588 97.1808H47.0144C48.2671 97.1808 49.2144 97.4863 49.7644 98.0975C50.3144 98.7086 50.6199 99.5336 50.6199 100.634C50.6199 101.734 50.3449 102.559 49.7644 103.17C49.1838 103.781 48.2671 104.086 47.0144 104.086H45.8533C45.731 104.086 45.6699 104.147 45.6699 104.27V106.378C45.6699 106.775 45.5783 107.081 45.3644 107.264C45.1505 107.447 44.8449 107.539 44.4477 107.539H44.1421C43.7449 107.539 43.4394 107.447 43.2255 107.264C43.0116 107.081 42.9199 106.775 42.9199 106.378V98.2197ZM46.3727 101.825C46.5866 101.825 46.8005 101.825 46.9838 101.795C47.1671 101.764 47.3199 101.734 47.4421 101.642C47.5644 101.55 47.656 101.428 47.7171 101.275C47.7783 101.122 47.8088 100.909 47.8088 100.634C47.8088 100.359 47.7783 100.145 47.7171 99.9919C47.656 99.8391 47.5644 99.7169 47.4421 99.6252C47.3199 99.5336 47.1671 99.503 46.9838 99.4725C46.8005 99.4419 46.5866 99.4419 46.3727 99.4419H45.8838C45.7616 99.4419 45.7005 99.503 45.7005 99.6252V101.611C45.7005 101.734 45.7616 101.795 45.8838 101.795H46.3727V101.825Z" fill="#7E7EBC"/>
<path d="M53.4915 99.6557C53.4915 99.5335 53.4304 99.4724 53.3081 99.4724H51.8415C51.2304 99.4724 50.9248 99.1363 50.9248 98.4335V98.1585C50.9248 97.5169 51.2304 97.2113 51.8415 97.2113H57.9526C58.5637 97.2113 58.8693 97.5474 58.8693 98.2502V98.5252C58.8693 99.1669 58.5637 99.4724 57.9526 99.4724H56.4248C56.3026 99.4724 56.2415 99.5335 56.2415 99.6557V106.347C56.2415 106.745 56.1498 107.05 55.9359 107.234C55.722 107.417 55.4165 107.509 55.0193 107.509H54.6831C54.2859 107.509 53.9804 107.417 53.7665 107.234C53.5526 107.05 53.4609 106.745 53.4609 106.347V99.6557H53.4915Z" fill="#7E7EBC"/>
<path d="M58.5947 106.775C58.5947 106.653 58.6253 106.5 58.6864 106.286L61.2836 98.0974C61.3753 97.8224 61.5281 97.578 61.7419 97.3946C61.9558 97.2113 62.2614 97.1196 62.6892 97.1196H63.8197C64.217 97.1196 64.5225 97.2113 64.7364 97.3946C64.9503 97.578 65.1031 97.8224 65.1947 98.0974L67.792 106.256C67.8531 106.439 67.8836 106.592 67.8836 106.714C67.8836 106.928 67.8225 107.111 67.6697 107.295C67.5475 107.447 67.3336 107.539 67.0586 107.539H66.0503C65.7447 107.539 65.5003 107.447 65.317 107.264C65.1642 107.081 65.0419 106.836 64.9503 106.531L64.7364 105.797C64.7058 105.675 64.6142 105.614 64.4919 105.614H61.7419C61.5892 105.614 61.5281 105.675 61.4975 105.797L61.2531 106.592C61.1614 106.897 61.0392 107.111 60.9169 107.264C60.7642 107.417 60.5503 107.509 60.2447 107.509H59.3281C59.0836 107.509 58.9003 107.447 58.7781 107.295C58.6558 107.203 58.5947 107.02 58.5947 106.775ZM62.2003 103.292C62.2003 103.384 62.2614 103.445 62.3531 103.445H63.8808C63.9725 103.445 64.0336 103.384 64.0336 103.292C64.0336 103.261 64.0336 103.231 64.0031 103.17C63.9725 103.109 63.9725 103.017 63.942 102.925L63.2086 100.359C63.1781 100.267 63.1475 100.236 63.1169 100.236C63.0864 100.236 63.0558 100.267 63.0253 100.359L62.2614 102.925C62.2308 103.047 62.2003 103.139 62.2003 103.17C62.2003 103.231 62.2003 103.261 62.2003 103.292Z" fill="#7E7EBC"/>
<path d="M69.1058 98.2197C69.1058 97.9141 69.1974 97.6697 69.3808 97.4558C69.5641 97.2725 69.8085 97.1808 70.1446 97.1808H73.2919C74.3613 97.1808 75.1558 97.4252 75.6752 97.8836C76.1946 98.3419 76.4696 99.0141 76.4696 99.8697C76.4696 100.389 76.3474 100.817 76.103 101.184C75.8585 101.52 75.5835 101.764 75.3085 101.917C75.2474 101.947 75.2169 101.978 75.2169 102.009C75.2169 102.039 75.2474 102.07 75.3085 102.1C75.5224 102.161 75.7363 102.253 75.9196 102.375C76.103 102.497 76.2863 102.65 76.4391 102.834C76.5919 103.017 76.7141 103.261 76.8058 103.536C76.8974 103.811 76.928 104.117 76.928 104.484C76.928 105.492 76.653 106.225 76.0724 106.745C75.4919 107.264 74.6363 107.509 73.5058 107.509H70.1141C69.8085 107.509 69.5641 107.417 69.3502 107.234C69.1363 107.05 69.0752 106.806 69.0752 106.47V98.2197H69.1058ZM72.6808 101.245C72.9863 101.245 73.2613 101.184 73.4141 101.031C73.5974 100.909 73.6891 100.664 73.6891 100.297C73.6891 99.9613 73.5974 99.7169 73.4141 99.5947C73.2308 99.4725 72.9863 99.4113 72.6808 99.4113H72.0085C71.8863 99.4113 71.8252 99.4725 71.8252 99.5947V101.031C71.8252 101.153 71.8863 101.214 72.0085 101.214H72.6808V101.245ZM71.8252 105.064C71.8252 105.186 71.8863 105.247 72.0085 105.247H72.8946C73.2919 105.247 73.5974 105.186 73.7808 105.095C73.9641 104.972 74.0863 104.728 74.0863 104.3C74.0863 103.903 73.9946 103.628 73.7808 103.506C73.5974 103.384 73.2919 103.322 72.8946 103.322H72.0085C71.8863 103.322 71.8252 103.384 71.8252 103.506V105.064Z" fill="#7E7EBC"/>
<path d="M78.4258 98.3114C78.4258 97.9142 78.5174 97.6086 78.7313 97.4253C78.9452 97.2419 79.2508 97.1503 79.648 97.1503H79.9841C80.3813 97.1503 80.6869 97.2419 80.9008 97.4253C81.1147 97.6086 81.2063 97.9142 81.2063 98.3114V106.347C81.2063 106.745 81.1147 107.05 80.9008 107.234C80.6869 107.417 80.3813 107.509 79.9841 107.509H79.648C79.2508 107.509 78.9452 107.417 78.7313 107.234C78.5174 107.05 78.4258 106.745 78.4258 106.347V98.3114Z" fill="#7E7EBC"/>
<path d="M83.2842 98.3114C83.2842 97.9142 83.3758 97.6086 83.5897 97.4253C83.8036 97.2419 84.1092 97.1503 84.5064 97.1503H84.8425C85.2397 97.1503 85.5453 97.2419 85.7592 97.4253C85.9731 97.6086 86.0647 97.9142 86.0647 98.3114V104.972C86.0647 105.095 86.1259 105.156 86.2481 105.156H88.9981C89.6397 105.156 89.9453 105.492 89.9453 106.164V106.47C89.9453 107.142 89.6397 107.478 88.9981 107.478H84.3231C84.0175 107.478 83.7425 107.386 83.5592 107.203C83.3758 107.02 83.2842 106.775 83.2842 106.439V98.3114Z" fill="#7E7EBC"/>
<path d="M91.1973 98.3114C91.1973 97.9142 91.2889 97.6086 91.5028 97.4253C91.7167 97.2419 92.0223 97.1503 92.4195 97.1503H92.7556C93.1528 97.1503 93.4584 97.2419 93.6723 97.4253C93.8862 97.6086 93.9778 97.9142 93.9778 98.3114V106.347C93.9778 106.745 93.8862 107.05 93.6723 107.234C93.4584 107.417 93.1528 107.509 92.7556 107.509H92.4195C92.0223 107.509 91.7167 107.417 91.5028 107.234C91.2889 107.05 91.1973 106.745 91.1973 106.347V98.3114Z" fill="#7E7EBC"/>
<path d="M97.6145 99.6557C97.6145 99.5335 97.5534 99.4724 97.4312 99.4724H95.9645C95.3534 99.4724 95.0479 99.1363 95.0479 98.4335V98.1585C95.0479 97.5169 95.3534 97.2113 95.9645 97.2113H102.076C102.687 97.2113 102.992 97.5474 102.992 98.2502V98.5252C102.992 99.1669 102.687 99.4724 102.076 99.4724H100.548C100.426 99.4724 100.365 99.5335 100.365 99.6557V106.347C100.365 106.745 100.273 107.05 100.059 107.234C99.8451 107.417 99.5395 107.509 99.1423 107.509H98.8062C98.409 107.509 98.1034 107.417 97.8895 107.234C97.6756 107.05 97.584 106.745 97.584 106.347V99.6557H97.6145Z" fill="#7E7EBC"/>
<path d="M104.093 98.2196C104.093 97.9141 104.184 97.6696 104.368 97.4557C104.551 97.2724 104.796 97.1807 105.132 97.1807H110.234C110.846 97.1807 111.151 97.5168 111.151 98.1891V98.4641C111.151 99.1057 110.846 99.4113 110.234 99.4113H107.057C106.934 99.4113 106.873 99.4724 106.873 99.5946V100.97C106.873 101.092 106.934 101.153 107.057 101.153H108.768C109.379 101.153 109.684 101.489 109.684 102.131V102.406C109.684 103.047 109.379 103.353 108.768 103.353H107.057C106.934 103.353 106.873 103.414 106.873 103.536V105.003C106.873 105.125 106.934 105.186 107.057 105.186H110.448C111.059 105.186 111.365 105.522 111.365 106.195V106.47C111.365 107.111 111.059 107.417 110.448 107.417H105.132C104.826 107.417 104.582 107.325 104.368 107.142C104.184 106.959 104.093 106.714 104.093 106.378V98.2196ZM106.048 96.4474C105.773 96.4474 105.621 96.2641 105.621 95.8974V95.7141C105.621 95.4696 105.651 95.2863 105.743 95.1641C105.834 95.0418 105.987 94.9196 106.201 94.828L109.196 93.5141C109.287 93.4835 109.379 93.4224 109.44 93.4224C109.501 93.3918 109.562 93.3918 109.623 93.3918C109.929 93.3918 110.082 93.6057 110.082 94.0335V94.4002C110.082 94.6752 110.021 94.9196 109.929 95.103C109.837 95.2863 109.654 95.4391 109.379 95.5002L106.721 96.2946C106.598 96.3252 106.507 96.3863 106.384 96.3863C106.262 96.4168 106.14 96.4474 106.048 96.4474Z" fill="#7E7EBC"/>
</svg>
