<svg width="140" height="102" viewBox="0 0 140 102" fill="none" xmlns="http://www.w3.org/2000/svg">
<path d="M104.626 30.691L97.2011 21.5243C96.865 21.1271 96.3761 20.8826 95.8261 20.8826H84.49C84.4594 20.8826 84.4594 20.8826 84.4289 20.8826H83.8483L30.865 0.165949C30.5288 0.0437267 30.1622 0.0437276 29.8566 0.104839C29.4288 0.0742832 28.9705 0.135394 28.6038 0.410394L5.41216 18.7437H2.60104C1.62326 18.7437 0.859375 19.5382 0.859375 20.4854V34.7854C0.859375 35.7632 1.65382 36.5271 2.60104 36.5271H18.7649C19.7427 36.5271 20.5066 35.7326 20.5066 34.7854V33.5632H27.9316V89.7855H24.3261C23.3483 89.7855 22.5844 90.5799 22.5844 91.5271V98.3716H15.2816C14.3038 98.3716 13.5399 99.166 13.5399 100.113C13.5399 101.06 14.3344 101.855 15.2816 101.855H24.3261H47.8233H82.565C83.5428 101.855 84.3067 101.06 84.3067 100.113C84.3067 99.166 83.5122 98.3716 82.565 98.3716H49.5955V91.5271C49.5955 90.5493 48.8011 89.7855 47.8539 89.7855H44.9511V36.0688V33.5632H56.9289H63.4066L65.79 50.8271C65.3622 50.8882 64.9344 51.0715 64.6594 51.4076C64.3233 51.8049 64.1705 52.3243 64.2622 52.8132L65.5455 60.941C65.6678 61.7966 66.4316 62.4077 67.2872 62.4077H68.9983V64.2716C68.9983 65.2493 69.7928 66.0132 70.74 66.0132C72.0233 66.0132 73.0928 67.0521 73.0928 68.366C73.0928 69.6493 72.0539 70.7188 70.74 70.7188C69.4566 70.7188 68.3872 69.6799 68.3872 68.366C68.3872 67.3882 67.5928 66.6243 66.6455 66.6243C65.6983 66.6243 64.9039 67.4188 64.9039 68.366C64.9039 71.6049 67.5316 74.2021 70.7705 74.2021C73.9789 74.2021 76.6066 71.5743 76.6066 68.366C76.6066 65.7688 74.865 63.6299 72.5122 62.866V62.3771H73.8566C74.6816 62.3771 75.415 61.7966 75.5678 60.9716L77.2178 52.8438C77.3094 52.3243 77.1872 51.8049 76.8511 51.3771C76.6067 51.1021 76.3011 50.9188 75.9344 50.8271L78.0733 33.5021H84.5511C84.5511 33.5021 84.5511 33.5021 84.5816 33.5021H103.343C104.015 33.5021 104.626 33.1049 104.932 32.4937C105.146 31.9437 105.054 31.2104 104.626 30.691ZM31.4455 19.7215V8.47707L39.8788 20.8826H31.4455V19.7215ZM31.4455 24.366H41.3761V30.0187H31.4455V24.366ZM31.4455 33.5938V33.5632H40.4288L31.4455 42.516V33.5938ZM31.4455 47.4965L41.4372 37.5049V47.9549L31.4455 57.9465V47.4965ZM31.4455 62.8965L41.4372 52.9049V63.3549L31.4455 73.3466V62.8965ZM31.4455 78.3271L41.4372 68.3354V78.7549L31.4455 88.7771V78.3271ZM41.4372 83.7049V89.7855H35.3872L41.4372 83.7049ZM16.9927 22.5326C16.9927 22.5632 16.9622 22.5937 16.9622 22.6243V31.791C16.9622 31.8215 16.9927 31.8521 16.9927 31.8826V33.0132H4.34271V22.2576H16.9927V22.5326ZM18.7344 18.7437H11.0649L27.9316 5.42151V19.691V20.8521H20.5066V20.4854C20.5066 19.5382 19.7122 18.7437 18.7344 18.7437ZM20.5066 30.0493V24.3965H27.9316V30.0493H20.5066ZM46.0816 93.2688V98.3716H26.0677V93.2688H29.6733H43.1788H46.0816ZM55.1566 30.0493H44.9511V24.3965H55.1566V30.0493ZM44.1261 20.8521L33.2483 4.84095L74.2539 20.8521H70.7094H56.9289H44.1261ZM58.6705 30.0493V24.3965H68.9372V30.0493H58.6705ZM72.3594 58.8938H68.7233L67.99 54.2493H73.3066L72.3594 58.8938ZM72.3594 50.766H69.3039L66.9511 33.5632H70.7094H74.4983L72.3594 50.766ZM82.7178 30.0493H72.4511V24.3965H82.7178V30.0493ZM86.2317 30.0493V24.3965H95.0011L99.5844 30.0493H86.2317Z" fill="#53797F"/>
<path d="M53.4463 83.6439C53.4463 83.2772 53.5685 82.9717 53.7824 82.7272C54.0268 82.4828 54.3324 82.3911 54.6991 82.3911H58.5185C59.8324 82.3911 60.7796 82.6661 61.4213 83.2467C62.063 83.7967 62.3685 84.6217 62.3685 85.6606C62.3685 86.3022 62.2157 86.8217 61.9102 87.2495C61.6046 87.6772 61.2685 87.9828 60.9324 88.1356C60.8713 88.1661 60.8407 88.2272 60.8407 88.2578C60.8407 88.3189 60.8713 88.3495 60.9324 88.3495C61.1768 88.4411 61.4518 88.5328 61.6657 88.6856C61.9102 88.8383 62.1241 89.0217 62.3074 89.2661C62.4907 89.5106 62.6435 89.7856 62.7657 90.1217C62.888 90.4578 62.9185 90.8245 62.9185 91.2828C62.9185 92.505 62.5824 93.4217 61.8796 94.0328C61.1769 94.6439 60.138 94.9495 58.7935 94.9495H54.6991C54.3324 94.9495 54.0268 94.8272 53.7824 94.6133C53.538 94.3689 53.4463 94.0939 53.4463 93.6967V83.6439ZM57.7852 87.3106C58.1824 87.3106 58.4574 87.2189 58.6713 87.0661C58.8852 86.9133 58.9768 86.6078 58.9768 86.18C58.9768 85.7522 58.8852 85.4772 58.6713 85.3245C58.4574 85.1717 58.1518 85.1106 57.7852 85.1106H56.9602C56.8074 85.1106 56.7157 85.2022 56.7157 85.355V87.0967C56.7157 87.2495 56.8074 87.3411 56.9602 87.3411H57.7852V87.3106ZM56.7463 91.955C56.7463 92.1078 56.838 92.1995 56.9907 92.1995H58.0602C58.5491 92.1995 58.8852 92.1383 59.1296 91.9856C59.3741 91.8633 59.4963 91.5272 59.4963 91.0383C59.4963 90.5495 59.3741 90.2439 59.1296 90.0911C58.8852 89.9383 58.5185 89.8772 58.0602 89.8772H56.9907C56.838 89.8772 56.7463 89.9689 56.7463 90.1217V91.955Z" fill="#53797F"/>
<path d="M63.8047 94.0328C63.8047 93.88 63.8352 93.6967 63.8964 93.4522L67.0436 83.5216C67.1352 83.1855 67.3186 82.88 67.5936 82.6661C67.8686 82.4522 68.2352 82.33 68.7241 82.33H70.0686C70.5575 82.33 70.9241 82.4522 71.1991 82.6661C71.4436 82.88 71.6575 83.1855 71.7491 83.5216L74.8964 93.3911C74.9575 93.605 74.988 93.7883 74.988 93.9411C74.988 94.2161 74.8964 94.43 74.7436 94.6133C74.5908 94.7967 74.3464 94.8883 74.0102 94.8883H72.8491C72.4519 94.8883 72.1769 94.7967 71.963 94.5828C71.7491 94.3689 71.6269 94.0633 71.5047 93.6967L71.2602 92.8411C71.2297 92.6883 71.1075 92.5967 70.9547 92.5967H67.5936C67.4408 92.5967 67.3186 92.6883 67.288 92.8411L67.013 93.7883C66.9214 94.155 66.7686 94.43 66.5852 94.6133C66.4019 94.7967 66.1269 94.9189 65.7602 94.9189H64.6908C64.3852 94.9189 64.1714 94.8272 64.0186 94.6744C63.8658 94.5217 63.8047 94.3078 63.8047 94.0328ZM66.5852 80.7411C66.2491 80.7105 66.1269 80.4661 66.1575 80.0078L66.188 79.6105C66.2186 79.305 66.3102 79.0605 66.4325 78.9078C66.5547 78.755 66.7686 78.6328 67.0741 78.48L68.5408 77.7466C68.7852 77.6244 68.9686 77.5633 69.1214 77.5328C69.2741 77.5022 69.4269 77.5022 69.5491 77.5022H69.6408C69.763 77.5022 69.9158 77.5328 70.0686 77.5939C70.2214 77.655 70.4047 77.7466 70.588 77.8994L71.9019 78.8772C72.1464 79.0605 72.3297 79.2439 72.4519 79.4272C72.5741 79.58 72.6047 79.8244 72.5741 80.1605L72.5436 80.5578C72.513 81.0161 72.3297 81.23 71.9936 81.1994C71.8714 81.1994 71.7186 81.1078 71.5658 81.0161L69.8547 79.855C69.7325 79.7633 69.6408 79.7022 69.5797 79.6716C69.5186 79.6411 69.488 79.6105 69.4269 79.6105C69.3658 79.6105 69.3352 79.6105 69.2741 79.6411C69.213 79.6716 69.1214 79.7022 68.9686 79.7633L67.0741 80.5883C66.8908 80.7105 66.738 80.7411 66.5852 80.7411ZM68.1741 89.8161C68.1741 89.9383 68.2352 89.9994 68.3575 89.9994H70.1908C70.313 89.9994 70.3741 89.9383 70.3741 89.8161C70.3741 89.7855 70.3741 89.7244 70.3436 89.6633C70.313 89.6022 70.2825 89.5105 70.2519 89.3578L69.3658 86.2411C69.3353 86.1494 69.3047 86.0883 69.2741 86.0883C69.2436 86.0883 69.213 86.1494 69.1825 86.2411L68.2658 89.3578C68.2352 89.5105 68.2047 89.6022 68.1741 89.6633C68.1741 89.7244 68.1741 89.755 68.1741 89.8161Z" fill="#53797F"/>
<path d="M78.4109 85.3856C78.4109 85.2328 78.3192 85.1411 78.1665 85.1411H76.3942C75.6609 85.1411 75.2637 84.7133 75.2637 83.8883V83.5522C75.2637 82.7883 75.6303 82.3911 76.3942 82.3911H83.7887C84.522 82.3911 84.9192 82.8189 84.9192 83.6439V83.98C84.9192 84.7439 84.5526 85.1411 83.7887 85.1411H81.9553C81.8026 85.1411 81.7109 85.2328 81.7109 85.3856V93.5134C81.7109 94.0022 81.5887 94.3689 81.3442 94.5828C81.0998 94.7967 80.7331 94.9189 80.2442 94.9189H79.847C79.3581 94.9189 78.9915 94.7967 78.747 94.5828C78.5026 94.3689 78.3803 94.0022 78.3803 93.5134V85.3856H78.4109Z" fill="#53797F"/>
<path d="M86.293 83.766C86.293 83.2771 86.4152 82.9105 86.6596 82.6966C86.9041 82.4827 87.2707 82.3605 87.7596 82.3605H88.1569C88.6458 82.3605 89.0124 82.4827 89.2569 82.6966C89.5013 82.9105 89.6235 83.2771 89.6235 83.766V93.5133C89.6235 94.0021 89.5013 94.3688 89.2569 94.5827C89.0124 94.7966 88.6458 94.9188 88.1569 94.9188H87.7596C87.2707 94.9188 86.9041 94.7966 86.6596 94.5827C86.4152 94.3688 86.293 94.0021 86.293 93.5133V83.766Z" fill="#53797F"/>
<path d="M92.191 83.7049C92.191 83.2771 92.3132 82.9716 92.5271 82.7271C92.741 82.4827 93.0465 82.3605 93.4438 82.3605H95.5216C95.8577 82.3605 96.1327 82.4521 96.4077 82.6049C96.6827 82.7577 96.8966 83.0327 97.0188 83.3994L98.8827 88.5938C98.9132 88.6855 98.9743 88.716 99.0049 88.716C99.0354 88.716 99.0966 88.6855 99.1271 88.5938L101.022 83.3688C101.144 83.0021 101.358 82.7577 101.602 82.6049C101.877 82.4521 102.152 82.391 102.458 82.391H104.413C104.78 82.391 105.085 82.5132 105.299 82.7271C105.513 82.941 105.605 83.2771 105.605 83.6744V93.6049C105.605 94.0633 105.483 94.3994 105.238 94.6133C104.994 94.8271 104.658 94.9188 104.199 94.9188H103.863C103.405 94.9188 103.069 94.8271 102.824 94.6133C102.58 94.3994 102.458 94.0633 102.458 93.6049V87.1271C102.458 87.0355 102.427 87.0049 102.397 87.0049C102.366 87.0049 102.335 87.0355 102.305 87.1271L100.288 92.4438C100.197 92.6577 100.105 92.841 99.9521 92.9633C99.7993 93.0855 99.616 93.1466 99.341 93.1466H98.516C98.2716 93.1466 98.0577 93.0855 97.8743 92.9633C97.7215 92.841 97.5993 92.6577 97.5077 92.4438L95.491 87.1271C95.4604 87.0355 95.4299 87.0049 95.3993 87.0049C95.3688 87.0049 95.3382 87.0355 95.3382 87.1271V93.6049C95.3382 94.0633 95.216 94.3994 94.9715 94.6133C94.7271 94.8271 94.391 94.9188 93.9327 94.9188H93.5354C93.0771 94.9188 92.741 94.8271 92.4965 94.6133C92.2521 94.3994 92.1299 94.0633 92.1299 93.6049V83.7049H92.191Z" fill="#53797F"/>
<path d="M108.141 83.6439C108.141 83.2772 108.263 82.9717 108.477 82.7272C108.721 82.4828 109.027 82.3911 109.393 82.3911H115.566C116.299 82.3911 116.696 82.7883 116.696 83.6133V83.9494C116.696 84.7133 116.33 85.1106 115.566 85.1106H111.716C111.563 85.1106 111.471 85.2022 111.471 85.355V87.005C111.471 87.1578 111.563 87.2495 111.716 87.2495H113.793C114.527 87.2495 114.924 87.6467 114.924 88.4411V88.7772C114.924 89.5411 114.557 89.9383 113.793 89.9383H111.716C111.563 89.9383 111.471 90.03 111.471 90.1828V91.955C111.471 92.1078 111.563 92.1995 111.716 92.1995H115.841C116.574 92.1995 116.971 92.5967 116.971 93.4217V93.7578C116.971 94.5217 116.605 94.9189 115.841 94.9189H109.393C109.027 94.9189 108.721 94.7967 108.477 94.5828C108.232 94.3384 108.141 94.0634 108.141 93.6661V83.6439Z" fill="#53797F"/>
<path d="M118.713 83.6744C118.713 83.2771 118.835 82.9716 119.049 82.7271C119.263 82.5132 119.568 82.391 119.966 82.391H120.302C121.127 82.391 121.768 82.7271 122.257 83.4299L125.68 88.5327C125.741 88.5938 125.771 88.6549 125.802 88.6855C125.832 88.716 125.863 88.7466 125.893 88.7466C125.924 88.7466 125.955 88.6855 125.955 88.5633V83.6438C125.955 83.1855 126.077 82.8494 126.291 82.666C126.535 82.4521 126.871 82.3605 127.299 82.3605H127.696C128.124 82.3605 128.46 82.4521 128.705 82.666C128.949 82.8799 129.041 83.216 129.041 83.6438V93.6049C129.041 94.0327 128.949 94.3383 128.735 94.5521C128.521 94.766 128.216 94.8883 127.788 94.8883H127.482C126.963 94.8883 126.566 94.7966 126.291 94.6133C126.016 94.4299 125.741 94.1855 125.527 93.8494L122.074 88.6855C121.982 88.5327 121.891 88.4716 121.86 88.4716C121.83 88.4716 121.799 88.5327 121.799 88.6549V93.6355C121.799 94.0938 121.677 94.4299 121.463 94.6133C121.218 94.8271 120.882 94.9188 120.455 94.9188H120.057C119.63 94.9188 119.293 94.8271 119.049 94.6133C118.805 94.3994 118.713 94.0938 118.713 93.6355V83.6744Z" fill="#53797F"/>
<path d="M133.441 85.3856C133.441 85.2328 133.35 85.1411 133.197 85.1411H131.425C130.691 85.1411 130.294 84.7133 130.294 83.8883V83.5522C130.294 82.7883 130.661 82.3911 131.425 82.3911H138.819C139.552 82.3911 139.95 82.8189 139.95 83.6439V83.98C139.95 84.7439 139.583 85.1411 138.819 85.1411H136.986C136.833 85.1411 136.741 85.2328 136.741 85.3856V93.5134C136.741 94.0022 136.619 94.3689 136.375 94.5828C136.13 94.7967 135.763 94.9189 135.275 94.9189H134.877C134.388 94.9189 134.022 94.7967 133.777 94.5828C133.533 94.3689 133.411 94.0022 133.411 93.5134V85.3856H133.441Z" fill="#53797F"/>
</svg>
