<svg width="13" height="15" viewBox="0 0 13 15" fill="none" xmlns="http://www.w3.org/2000/svg">
<path fill-rule="evenodd" clip-rule="evenodd" d="M0.8204 1.3204C-8.34465e-08 2.1401 0 3.4603 0 6.1V8.9C0 11.5397 -8.34465e-08 12.8599 0.8204 13.6796C1.6401 14.5 2.9603 14.5 5.6 14.5H7C9.6397 14.5 10.9599 14.5 11.7796 13.6796C12.6 12.8599 12.6 11.5397 12.6 8.9V6.1C12.6 3.4603 12.6 2.1401 11.7796 1.3204C10.9599 0.5 9.6397 0.5 7 0.5H5.6C2.9603 0.5 1.6401 0.5 0.8204 1.3204ZM3.5 5.575C3.36076 5.575 3.22723 5.63031 3.12877 5.72877C3.03031 5.82723 2.975 5.96076 2.975 6.1C2.975 6.23924 3.03031 6.37277 3.12877 6.47123C3.22723 6.56969 3.36076 6.625 3.5 6.625H9.1C9.23924 6.625 9.37278 6.56969 9.47123 6.47123C9.56969 6.37277 9.625 6.23924 9.625 6.1C9.625 5.96076 9.56969 5.82723 9.47123 5.72877C9.37278 5.63031 9.23924 5.575 9.1 5.575H3.5ZM3.5 8.375C3.36076 8.375 3.22723 8.43031 3.12877 8.52877C3.03031 8.62723 2.975 8.76076 2.975 8.9C2.975 9.03924 3.03031 9.17277 3.12877 9.27123C3.22723 9.36969 3.36076 9.425 3.5 9.425H7C7.13924 9.425 7.27277 9.36969 7.37123 9.27123C7.46969 9.17277 7.525 9.03924 7.525 8.9C7.525 8.76076 7.46969 8.62723 7.37123 8.52877C7.27277 8.43031 7.13924 8.375 7 8.375H3.5Z" fill="#242C58"/>
</svg>
