<svg width="4" height="16" viewBox="0 0 4 16" fill="none" xmlns="http://www.w3.org/2000/svg">
<path d="M0.666667 13.8332C0.666667 14.7536 1.41286 15.4998 2.33333 15.4998C3.25381 15.4998 4 14.7536 4 13.8332C4 12.9127 3.25381 12.1665 2.33333 12.1665C1.41286 12.1665 0.666667 12.9127 0.666667 13.8332Z" fill="white"/>
<path d="M0.666667 8.00016C0.666667 8.92064 1.41286 9.66683 2.33333 9.66683C3.25381 9.66683 4 8.92064 4 8.00016C4 7.07969 3.25381 6.3335 2.33333 6.3335C1.41286 6.3335 0.666667 7.07969 0.666667 8.00016Z" fill="white"/>
<path d="M0.666667 2.16667C0.666667 3.08714 1.41286 3.83333 2.33333 3.83333C3.25381 3.83333 4 3.08714 4 2.16667C4 1.24619 3.25381 0.5 2.33333 0.5C1.41286 0.5 0.666667 1.24619 0.666667 2.16667Z" fill="white"/>
</svg>
