<svg width="15" height="16" viewBox="0 0 15 16" fill="none" xmlns="http://www.w3.org/2000/svg">
<path d="M12.2344 3.46875H9.96875V3.01562C9.96875 2.6551 9.82553 2.30933 9.5706 2.0544C9.31567 1.79947 8.9699 1.65625 8.60938 1.65625H5.89062C5.5301 1.65625 5.18433 1.79947 4.9294 2.0544C4.67447 2.30933 4.53125 2.6551 4.53125 3.01562V3.46875H2.26562C2.14545 3.46875 2.03019 3.51649 1.94522 3.60147C1.86024 3.68644 1.8125 3.8017 1.8125 3.92188C1.8125 4.04205 1.86024 4.15731 1.94522 4.24228C2.03019 4.32726 2.14545 4.375 2.26562 4.375H2.71875V12.5312C2.71875 12.7716 2.81423 13.0021 2.98418 13.1721C3.15414 13.342 3.38465 13.4375 3.625 13.4375H10.875C11.1154 13.4375 11.3459 13.342 11.5158 13.1721C11.6858 13.0021 11.7812 12.7716 11.7812 12.5312V4.375H12.2344C12.3546 4.375 12.4698 4.32726 12.5548 4.24228C12.6398 4.15731 12.6875 4.04205 12.6875 3.92188C12.6875 3.8017 12.6398 3.68644 12.5548 3.60147C12.4698 3.51649 12.3546 3.46875 12.2344 3.46875ZM6.34375 10.2656C6.34375 10.3858 6.29601 10.5011 6.21103 10.586C6.12606 10.671 6.0108 10.7188 5.89062 10.7188C5.77045 10.7188 5.65519 10.671 5.57022 10.586C5.48524 10.5011 5.4375 10.3858 5.4375 10.2656V6.64062C5.4375 6.52045 5.48524 6.40519 5.57022 6.32022C5.65519 6.23524 5.77045 6.1875 5.89062 6.1875C6.0108 6.1875 6.12606 6.23524 6.21103 6.32022C6.29601 6.40519 6.34375 6.52045 6.34375 6.64062V10.2656ZM9.0625 10.2656C9.0625 10.3858 9.01476 10.5011 8.92978 10.586C8.84481 10.671 8.72955 10.7188 8.60938 10.7188C8.4892 10.7188 8.37394 10.671 8.28897 10.586C8.20399 10.5011 8.15625 10.3858 8.15625 10.2656V6.64062C8.15625 6.52045 8.20399 6.40519 8.28897 6.32022C8.37394 6.23524 8.4892 6.1875 8.60938 6.1875C8.72955 6.1875 8.84481 6.23524 8.92978 6.32022C9.01476 6.40519 9.0625 6.52045 9.0625 6.64062V10.2656ZM9.0625 3.46875H5.4375V3.01562C5.4375 2.89545 5.48524 2.78019 5.57022 2.69522C5.65519 2.61024 5.77045 2.5625 5.89062 2.5625H8.60938C8.72955 2.5625 8.84481 2.61024 8.92978 2.69522C9.01476 2.78019 9.0625 2.89545 9.0625 3.01562V3.46875Z" fill="#FF4842"/>
</svg>
