<svg width="20" height="21" viewBox="0 0 20 21" fill="none" xmlns="http://www.w3.org/2000/svg">
<rect y="0.5" width="20" height="20" rx="10" fill="#4EC267"/>
<path d="M14.4532 8.47518L8.99862 13.9297C8.95112 13.9774 8.89466 14.0152 8.83251 14.041C8.77035 14.0668 8.70371 14.0801 8.63641 14.0801C8.5691 14.0801 8.50246 14.0668 8.44031 14.041C8.37815 14.0152 8.3217 13.9774 8.27419 13.9297L5.88783 11.5434C5.84026 11.4958 5.80253 11.4393 5.77679 11.3772C5.75104 11.315 5.73779 11.2484 5.73779 11.1811C5.73779 11.1139 5.75104 11.0473 5.77679 10.9851C5.80253 10.923 5.84026 10.8665 5.88783 10.8189C5.93539 10.7714 5.99186 10.7336 6.05401 10.7079C6.11616 10.6821 6.18277 10.6689 6.25004 10.6689C6.31731 10.6689 6.38392 10.6821 6.44607 10.7079C6.50822 10.7336 6.56469 10.7714 6.61226 10.8189L8.63683 12.8435L13.7296 7.7516C13.8257 7.65553 13.9559 7.60156 14.0918 7.60156C14.2277 7.60156 14.358 7.65553 14.454 7.7516C14.5501 7.84766 14.6041 7.97796 14.6041 8.11381C14.6041 8.24967 14.5501 8.37996 14.454 8.47603L14.4532 8.47518Z" fill="white"/>
</svg>
