<svg width="20" height="20" viewBox="0 0 20 20" fill="none" xmlns="http://www.w3.org/2000/svg">
<rect width="20" height="20" rx="10" fill="#3385FF"/>
<path fill-rule="evenodd" clip-rule="evenodd" d="M11.2097 5.63724C11.6293 5.22603 12.1942 4.99704 12.7817 5.00003C13.3691 5.00302 13.9317 5.23776 14.3471 5.65322C14.7625 6.06869 14.9971 6.6313 15 7.2188C15.0029 7.80629 14.7738 8.37119 14.3625 8.79071L10.0164 13.1369C9.77148 13.3819 9.62154 13.5318 9.45557 13.6617C9.25904 13.8148 9.04642 13.9461 8.82146 14.0532C8.63031 14.1442 8.42943 14.2111 8.10093 14.3205L6.57174 14.8304L6.20432 14.9529C6.04313 15.0067 5.87013 15.0146 5.70472 14.9756C5.53931 14.9366 5.38803 14.8523 5.26786 14.7321C5.14769 14.612 5.06339 14.4607 5.0244 14.2953C4.9854 14.1298 4.99328 13.9568 5.04712 13.7956L5.67952 11.899C5.78883 11.5705 5.85579 11.3696 5.94678 11.1784C6.05406 10.9536 6.18551 10.7412 6.33881 10.5449C6.46872 10.3783 6.6181 10.2284 6.86304 9.984L11.2097 5.63724ZM6.55114 13.9319L6.06811 13.4482L6.48475 12.1977C6.60608 11.8337 6.65644 11.6855 6.72168 11.5481C6.8018 11.3793 6.90081 11.2202 7.01527 11.0731C7.10913 10.9529 7.21901 10.8419 7.49028 10.5701L9.176 8.88457L10.8617 7.1991C11.0369 7.63677 11.2996 8.03407 11.6338 8.36663C11.9664 8.70057 12.3636 8.96309 12.8013 9.13811L9.42982 12.5091C9.15798 12.7809 9.04752 12.8908 8.92734 12.9841C8.78 13.0989 8.62075 13.1975 8.45233 13.2783C8.31497 13.3435 8.16617 13.3939 7.80219 13.5152L6.55114 13.9319ZM13.4852 8.45362C13.397 8.43413 13.31 8.40948 13.2248 8.37979C12.8539 8.25014 12.5174 8.03801 12.2404 7.7594C11.9619 7.48236 11.7498 7.1458 11.62 6.77501C11.5901 6.68974 11.5653 6.60279 11.5456 6.5146L11.8163 6.24447C12.0749 5.99426 12.4214 5.8557 12.7811 5.85865C13.1409 5.8616 13.4851 6.00583 13.7395 6.26024C13.9939 6.51465 14.1381 6.85885 14.1411 7.21863C14.144 7.57841 14.0055 7.92494 13.7553 8.18348L13.4852 8.45362Z" fill="white"/>
</svg>
